<?xml version="1.0" standalone="no"?>
<!DOCTYPE svg PUBLIC "-//W3C//DTD SVG 1.1//EN" "http://www.w3.org/Graphics/SVG/1.1/DTD/svg11.dtd" >
<svg>
<metadata>
Created by FontForge 20110222 at Sun Jun  9 08:44:06 2013
 By Orthosie Webhosting
Copyright (c) 1993 Linotype-Hell AG and/or its subsidiaries. All Rights Reserved.
</metadata>
<defs>
<font id="MetroRegular" horiz-adv-x="556" >
  <font-face 
    font-family="MetroRegular"
    font-weight="500"
    font-stretch="normal"
    units-per-em="1000"
    panose-1="2 0 6 3 4 0 0 2 0 4"
    ascent="764"
    descent="-236"
    x-height="438"
    cap-height="704"
    bbox="-167 -236 1029 953"
    underline-thickness="50"
    underline-position="-50"
    unicode-range="U+0020-FB02"
  />
<missing-glyph horiz-adv-x="500" 
 />
    <glyph glyph-name=".notdef" horiz-adv-x="500" 
 />
    <glyph glyph-name=".null" horiz-adv-x="0" 
 />
    <glyph glyph-name="nonmarkingreturn" horiz-adv-x="333" 
 />
    <glyph glyph-name="space" unicode=" " horiz-adv-x="278" 
 />
    <glyph glyph-name="exclam" unicode="!" horiz-adv-x="278" 
d="M91 698l94 18q-2 -108 -4 -148q-5 -109 -20 -256l-12 -130h-24l-8 101q-15 173 -20 284q-3 47 -6 131zM86 37q0 22 15.5 37.5t37.5 15.5t37.5 -15.5t15.5 -37.5t-15.5 -37.5t-37.5 -15.5t-37.5 15.5t-15.5 37.5z" />
    <glyph glyph-name="quotedbl" unicode="&#x22;" horiz-adv-x="407" 
d="M65 728h92l-10 -278h-72zM250 728h92l-10 -278h-72z" />
    <glyph glyph-name="numbersign" unicode="#" 
d="M497 276v-50h-113l-32 -226h-56l32 226h-136l-31 -226h-56l32 226h-106v50h113l21 152h-106v50h113l32 226h56l-32 -226h135l32 226h56l-32 -226h106v-50h-113l-21 -152h106zM356 428h-135l-21 -152h135z" />
    <glyph glyph-name="dollar" unicode="$" 
d="M254 715v92h52v-92q57 -9 95 -27q27 -13 44 -25.5t43 -40.5l-38 -55q-38 42 -72 60q-29 16 -72 22v-255l20 -7q61 -22 86.5 -35t52.5 -36q55 -50 55 -131q0 -167 -214 -196v-124h-52v124q-78 5 -131 31q-47 22 -94 73l52 51q29 -32 58 -53q50 -34 115 -38v279
q-64 24 -93.5 39t-55.5 38q-49 45 -49 118q0 82 52 131.5t146 56.5zM254 412v239q-60 -4 -93 -35t-33 -83q0 -49 30 -74q26 -22 96 -47zM306 317v-264q68 8 105 42t37 91q0 55 -41 85q-29 19 -101 46z" />
    <glyph glyph-name="percent" unicode="%" horiz-adv-x="833" 
d="M45 561q0 69 49 118t118 49t118 -49t49 -118t-49 -118t-118 -49t-118 49t-49 118zM167 -24l442 752h58l-443 -752h-57zM454 143q0 69 49 118t118 49t118 -49t49 -118t-49 -118t-118 -49t-118 49t-49 118zM109 561q0 -43 30 -73t73 -30t73 30t30 73t-30 73t-73 30t-73 -30
t-30 -73zM518 143q0 -43 30 -73t73 -30t73 30t30 73t-30 73t-73 30t-73 -30t-30 -73z" />
    <glyph glyph-name="ampersand" unicode="&#x26;" horiz-adv-x="722" 
d="M331 399l197 -219q23 30 42 62q17 32 27 60l62 -29q-18 -48 -36 -79q-17 -32 -49 -71l114 -123h-96l-68 72q-7 -6 -16 -13t-11 -9q-101 -74 -222 -74q-104 0 -165 54.5t-61 146.5q0 77 54 143q22 27 45 46.5t70 49.5q-30 35 -49 62q-36 51 -36 107q0 63 44 103t113 40
q72 0 117.5 -41.5t45.5 -106.5q0 -71 -50 -123q-24 -24 -72 -58zM475 126l-209 237q-58 -38 -85 -65q-56 -54 -56 -119q0 -60 43.5 -97.5t112.5 -37.5q43 0 91 17q52 19 103 65zM280 456q54 33 77.5 62.5t23.5 64.5q0 38 -25 61.5t-65 23.5q-37 0 -61.5 -23t-24.5 -58
t29 -75q12 -18 46 -56z" />
    <glyph glyph-name="quotesingle" unicode="'" horiz-adv-x="222" 
d="M65 728h92l-10 -278h-72z" />
    <glyph glyph-name="parenleft" unicode="(" horiz-adv-x="333" 
d="M190 728h80q-67 -100 -92 -161q-45 -113 -45 -263q0 -152 49 -268q28 -67 94 -160h-81q-61 94 -89 160q-49 119 -49 264q0 148 43 262q26 66 90 166z" />
    <glyph glyph-name="parenright" unicode=")" horiz-adv-x="333" 
d="M143 -124h-80q67 100 92 161q45 113 45 263q0 155 -48 268q-29 68 -95 160h81q64 -99 89 -160q49 -115 49 -264q0 -148 -43 -262q-26 -66 -90 -166z" />
    <glyph glyph-name="asterisk" unicode="*" horiz-adv-x="500" 
d="M284 728l-17 -152l138 63l21 -65l-150 -30l103 -112l-56 -40l-73 132l-73 -132l-56 40l103 112l-150 30l21 65l138 -63l-17 152h68z" />
    <glyph glyph-name="plus" unicode="+" horiz-adv-x="600" 
d="M273 0v217h-217v54h217v217h54v-217h217v-54h-217v-217h-54z" />
    <glyph glyph-name="comma" unicode="," horiz-adv-x="278" 
d="M102 -162h-72l90 252h92z" />
    <glyph glyph-name="hyphen" unicode="-" horiz-adv-x="333" 
d="M42 187v64h250v-64h-250z" />
    <glyph glyph-name="period" unicode="." horiz-adv-x="278" 
d="M86 37q0 22 15.5 37.5t37.5 15.5t37.5 -15.5t15.5 -37.5t-15.5 -37.5t-37.5 -15.5t-37.5 15.5t-15.5 37.5z" />
    <glyph glyph-name="slash" unicode="/" horiz-adv-x="278" 
d="M62 -24h-62l236 752h62z" />
    <glyph glyph-name="zero" unicode="0" 
d="M31 352q0 173 66.5 274.5t180.5 101.5t180.5 -101.5t66.5 -274.5t-66.5 -274.5t-180.5 -101.5t-180.5 101.5t-66.5 274.5zM115 352q0 -146 42 -224t121 -78t121 78t42 224t-42 224t-121 78t-121 -78t-42 -224z" />
    <glyph glyph-name="one" unicode="1" 
d="M168 704h164v-704h-84v644h-90z" />
    <glyph glyph-name="two" unicode="2" 
d="M89 518l-65 37q13 40 24.5 60.5t32.5 42.5q66 70 172 70q105 0 173 -61.5t68 -156.5q0 -59 -26.5 -111t-88.5 -115l-203 -210h352l-6 -74h-514l-2 2l295 309q60 64 84.5 109t24.5 93q0 64 -42.5 102.5t-113.5 38.5q-76 0 -121 -50q-26 -30 -44 -86z" />
    <glyph glyph-name="three" unicode="3" 
d="M215 334v74q67 1 101 15q66 26 66 107q0 56 -35 90t-94 34q-84 0 -131 -78l-76 17q55 135 204 135q95 0 155.5 -55t60.5 -141q0 -109 -100 -156q122 -47 122 -179q0 -101 -66 -161t-176 -60q-105 0 -169 67q-30 32 -60 93l74 25q21 -42 42 -65q43 -46 117 -46
q70 0 112 39t42 104q0 141 -171 141h-18z" />
    <glyph glyph-name="four" unicode="4" 
d="M435 154v-154h-84v154h-351l435 586v-512h88v-74h-88zM349 516l-211 -288h213v288h-2z" />
    <glyph glyph-name="five" unicode="5" 
d="M86 361l8 343h374l-6 -64h-298l-4 -174q45 15 96 15q116 0 188 -68.5t72 -179.5q0 -115 -72.5 -186t-190.5 -71q-87 0 -153 41q-31 17 -77 62l57 52q35 -34 54 -46q52 -35 120 -35q80 0 129 49.5t49 129.5q0 82 -51.5 130t-138.5 48q-72 0 -148 -46h-8z" />
    <glyph glyph-name="six" unicode="6" 
d="M334 704h108l-50 -53q-71 -75 -127 -142q-37 -44 -66 -86l2 -2q38 13 80 13q104 0 171.5 -64.5t67.5 -164.5q0 -101 -68.5 -165t-176.5 -64q-109 0 -177 65t-68 169q0 179 288 477zM436 203q0 64 -47.5 110.5t-113.5 46.5q-67 0 -114 -46.5t-47 -112.5q0 -63 46.5 -107
t113.5 -44t114.5 45t47.5 108z" />
    <glyph glyph-name="seven" unicode="7" 
d="M51 704h496l-363 -704h-95l337 630h-375v74z" />
    <glyph glyph-name="eight" unicode="8" 
d="M181 373q-38 21 -56 37q-54 45 -54 129q0 88 55.5 138.5t151.5 50.5t151.5 -50.5t55.5 -138.5q0 -84 -54 -129q-22 -18 -56 -37q138 -41 138 -192q0 -95 -63 -150t-172 -55t-172 55t-63 150q0 151 138 192zM278 50q71 0 111 35.5t40 99.5q0 65 -43 108t-108 43t-108 -43
t-43 -108q0 -64 40 -99.5t111 -35.5zM278 410q55 0 93 38t38 94q0 52 -35 82t-96 30t-96 -30t-35 -82q0 -56 38 -94t93 -38z" />
    <glyph glyph-name="nine" unicode="9" 
d="M216 0h-108l50 53q71 75 127 142q37 44 66 86l-2 2q-38 -13 -80 -13q-104 0 -171.5 64.5t-67.5 164.5q0 101 68.5 165t176.5 64q109 0 177 -65t68 -169q0 -179 -288 -477zM114 501q0 -64 47.5 -110.5t113.5 -46.5q67 0 114 46.5t47 112.5q0 63 -46.5 107t-113.5 44
t-114.5 -45t-47.5 -108z" />
    <glyph glyph-name="colon" unicode=":" horiz-adv-x="278" 
d="M86 37q0 22 15.5 37.5t37.5 15.5t37.5 -15.5t15.5 -37.5t-15.5 -37.5t-37.5 -15.5t-37.5 15.5t-15.5 37.5zM86 375q0 22 15.5 37.5t37.5 15.5t37.5 -15.5t15.5 -37.5t-15.5 -37.5t-37.5 -15.5t-37.5 15.5t-15.5 37.5z" />
    <glyph glyph-name="semicolon" unicode=";" horiz-adv-x="278" 
d="M86 375q0 22 15.5 37.5t37.5 15.5t37.5 -15.5t15.5 -37.5t-15.5 -37.5t-37.5 -15.5t-37.5 15.5t-15.5 37.5zM102 -162h-72l90 252h92z" />
    <glyph glyph-name="less" unicode="&#x3c;" horiz-adv-x="600" 
d="M584 0l-568 227v34l568 227v-53l-478 -191l478 -191v-53z" />
    <glyph glyph-name="equal" unicode="=" horiz-adv-x="600" 
d="M56 310v54h488v-54h-488zM56 124v54h488v-54h-488z" />
    <glyph glyph-name="greater" unicode="&#x3e;" horiz-adv-x="600" 
d="M16 0v53l478 191l-478 191v53l568 -227v-34z" />
    <glyph glyph-name="question" unicode="?" horiz-adv-x="444" 
d="M106 177v155q94 11 145 37q99 49 99 142q0 63 -47.5 99t-131.5 36q-43 0 -88 -11l5 67q48 14 102 14q110 0 173 -53t63 -145q0 -107 -84 -173q-32 -25 -65 -39t-99 -30v-80zM89 37q0 22 15.5 37.5t37.5 15.5t37.5 -15.5t15.5 -37.5t-15.5 -37.5t-37.5 -15.5t-37.5 15.5
t-15.5 37.5z" />
    <glyph glyph-name="at" unicode="@" horiz-adv-x="833" 
d="M721 119l25 -34q-80 -58 -152.5 -83.5t-158.5 -25.5q-172 0 -283.5 103.5t-111.5 261.5q0 164 118.5 275.5t292.5 111.5q151 0 247 -84t96 -217q0 -106 -62.5 -186t-144.5 -80q-37 0 -60.5 20.5t-23.5 52.5q0 12 4 28q-51 -101 -145 -101q-61 0 -99 42.5t-38 111.5
q0 98 61 171.5t142 73.5q50 0 80 -26t34 -73l25 84h71l-58 -194l-7 -21q-14 -49 -14 -75q0 -42 44 -42q56 0 100 66.5t44 150.5q0 113 -82.5 184t-213.5 71q-155 0 -258.5 -98.5t-103.5 -246.5q0 -140 98 -230t250 -90q115 0 216 55q31 17 68 44zM383 216q54 0 90 62
q20 35 33 77.5t13 71.5q0 38 -20 60t-54 22q-58 0 -100 -68q-39 -62 -39 -129q0 -45 20.5 -70.5t56.5 -25.5z" />
    <glyph glyph-name="A" unicode="A" horiz-adv-x="722" 
d="M173 183l-87 -183h-87l355 728h15l354 -728h-93l-87 183h-370zM203 247h310l-155 326z" />
    <glyph glyph-name="B" unicode="B" horiz-adv-x="611" 
d="M85 0v704h231q225 0 225 -166q0 -131 -123 -160v-2q140 -33 140 -167q0 -98 -70 -153.5t-194 -55.5h-209zM169 640v-236h63q88 0 140 15q40 13 62.5 41.5t22.5 67.5q0 54 -35 81q-25 19 -60.5 25t-118.5 6h-74zM169 340v-276h89q216 0 216 141q0 54 -31 86q-27 27 -72 38
t-131 11h-71z" />
    <glyph glyph-name="C" unicode="C" horiz-adv-x="704" 
d="M628 665l-7 -85q-23 17 -37 26q-77 48 -174 48q-125 0 -204 -84t-79 -218q0 -133 80 -217.5t206 -84.5q50 0 101 15q39 12 63 26.5t62 47.5l-7 -107l-28 -14q-91 -42 -191 -42q-166 0 -268 103.5t-102 270.5q0 166 102 272t262 106q53 0 101 -12q37 -8 60.5 -18t59.5 -33
z" />
    <glyph glyph-name="D" unicode="D" horiz-adv-x="741" 
d="M92 704h209q181 0 289 -96t108 -256t-108 -256t-289 -96h-209v704zM176 630v-556h115q146 0 234.5 76t88.5 202t-88.5 202t-234.5 76h-115z" />
    <glyph glyph-name="E" unicode="E" 
d="M89 0v704h412v-74h-328v-226h286v-74h-286v-256h332v-74h-416z" />
    <glyph glyph-name="F" unicode="F" horiz-adv-x="537" 
d="M92 0v704h410v-74h-326v-244h296v-74h-296v-312h-84z" />
    <glyph glyph-name="G" unicode="G" horiz-adv-x="759" 
d="M655 667l-6 -88q-16 11 -36 22q-89 53 -184 53q-131 0 -216.5 -88t-85.5 -224q0 -131 80.5 -211.5t212.5 -80.5q93 0 183 49v179h-219v74h303v-305q-28 -14 -36 -17q-119 -54 -246 -54q-166 0 -264 99.5t-98 267.5t106.5 276.5t272.5 108.5q50 0 110 -13q58 -14 123 -48z
" />
    <glyph glyph-name="H" unicode="H" horiz-adv-x="778" 
d="M92 0v704h84v-296h426v296h84v-704h-84v334h-426v-334h-84z" />
    <glyph glyph-name="I" unicode="I" horiz-adv-x="278" 
d="M97 0v704h84v-704h-84z" />
    <glyph glyph-name="J" unicode="J" horiz-adv-x="370" 
d="M4 -2l-7 87q39 -25 81 -25q116 0 116 163v481h84v-480q0 -117 -52 -177.5t-152 -60.5q-34 0 -70 12z" />
    <glyph glyph-name="K" unicode="K" horiz-adv-x="648" 
d="M92 0v704h84v-343l338 343h108l-335 -339l382 -365h-118l-375 359v-359h-84z" />
    <glyph glyph-name="L" unicode="L" 
d="M92 0v704h84v-630h356v-74h-440z" />
    <glyph glyph-name="M" unicode="M" horiz-adv-x="889" 
d="M174 728h13l259 -578l256 578h13l148 -728h-84l-95 502h-2l-230 -526h-15l-233 526h-2l-97 -502h-80z" />
    <glyph glyph-name="N" unicode="N" horiz-adv-x="778" 
d="M85 0v728h18l514 -569v545h76v-728h-18l-514 569v-545h-76z" />
    <glyph glyph-name="O" unicode="O" horiz-adv-x="778" 
d="M43 352q0 161 99 268.5t247 107.5t247 -107.5t99 -268.5t-99 -268.5t-247 -107.5t-247 107.5t-99 268.5zM127 352q0 -133 73 -217.5t189 -84.5t189 84.5t73 217.5t-73 217.5t-189 84.5t-189 -84.5t-73 -217.5z" />
    <glyph glyph-name="P" unicode="P" horiz-adv-x="574" 
d="M92 0v704h199q121 0 191.5 -57.5t70.5 -155.5q0 -93 -63 -153q-68 -64 -224 -64h-90v-274h-84zM176 640v-302h64q121 0 175 36t54 116q0 79 -54 114.5t-175 35.5h-64z" />
    <glyph glyph-name="Q" unicode="Q" horiz-adv-x="778" 
d="M346 -20l-2 -2q130 -60 189 -80q63 -22 122 -22q15 0 25 1l-20 -73q-12 -2 -26 -2q-39 0 -76 10q-67 17 -194 82q-82 42 -121.5 58.5t-81.5 25.5l25 66q-143 111 -143 308q0 161 99 268.5t247 107.5t247 -107.5t99 -268.5t-98.5 -268.5t-246.5 -107.5q-25 0 -44 4z
M127 352q0 -133 73 -217.5t189 -84.5t189 84.5t73 217.5t-73 217.5t-189 84.5t-189 -84.5t-73 -217.5z" />
    <glyph glyph-name="R" unicode="R" horiz-adv-x="630" 
d="M92 0v704h221q119 0 183.5 -51.5t64.5 -146.5q0 -154 -182 -201l268 -305h-105l-251 288h-115v-288h-84zM176 640v-288h39q106 0 171 27q91 38 91 128q0 65 -42 99q-25 19 -61.5 26.5t-110.5 7.5h-87z" />
    <glyph glyph-name="S" unicode="S" 
d="M451 680v-92q-25 17 -27 19q-73 47 -153 47q-131 0 -131 -104q0 -48 32 -78q31 -28 124 -67q104 -44 142 -75q68 -56 68 -155q0 -92 -64.5 -145.5t-176.5 -53.5q-108 0 -207 57l-10 91q108 -74 217 -74q71 0 114 34.5t43 92.5q0 57 -44 92q-27 20 -119 62
q-68 31 -94 45.5t-48 31.5q-61 50 -61 139q0 84 58 132.5t158 48.5q84 0 179 -48z" />
    <glyph glyph-name="T" unicode="T" horiz-adv-x="648" 
d="M15 704h618v-74h-267v-630h-84v630h-267v74z" />
    <glyph glyph-name="U" unicode="U" horiz-adv-x="759" 
d="M83 704h84v-410q0 -119 55.5 -181.5t162.5 -62.5q220 0 220 280v374h72v-402q0 -160 -76.5 -243t-222.5 -83q-143 0 -219 84.5t-76 241.5v402z" />
    <glyph glyph-name="V" unicode="V" horiz-adv-x="685" 
d="M325 -24l-326 728h91l247 -561l267 561h83l-347 -728h-15z" />
    <glyph glyph-name="W" unicode="W" horiz-adv-x="926" 
d="M834 704h82l-256 -728h-13l-177 535h-2l-187 -535h-14l-257 728h90l177 -515h2l189 539h14l174 -536h2z" />
    <glyph glyph-name="X" unicode="X" horiz-adv-x="722" 
d="M600 704h101l-290 -334l309 -370h-104l-260 308l-258 -308h-100l312 365l-284 339h107l231 -278z" />
    <glyph glyph-name="Y" unicode="Y" horiz-adv-x="667" 
d="M368 0h-84v306l-296 398h100l241 -326l254 326h95l-310 -398v-306z" />
    <glyph glyph-name="Z" unicode="Z" horiz-adv-x="611" 
d="M72 704h519l-448 -630h445l-13 -74h-580l448 630h-383z" />
    <glyph glyph-name="bracketleft" unicode="[" horiz-adv-x="333" 
d="M74 -112v828h212v-42h-140v-744h140v-42h-212z" />
    <glyph glyph-name="backslash" unicode="\" horiz-adv-x="278" 
d="M216 -24l-236 752h62l236 -752h-62z" />
    <glyph glyph-name="bracketright" unicode="]" horiz-adv-x="333" 
d="M259 716v-828h-212v42h140v744h-140v42h212z" />
    <glyph glyph-name="asciicircum" unicode="^" horiz-adv-x="444" 
d="M54 311l146 417h44l147 -417h-54l-115 328l-114 -328h-54z" />
    <glyph glyph-name="underscore" unicode="_" horiz-adv-x="500" 
d="M0 -125v50h500v-50h-500z" />
    <glyph glyph-name="grave" unicode="`" horiz-adv-x="222" 
d="M88 649l89 -141h-67l-130 141h108z" />
    <glyph glyph-name="a" unicode="a" 
d="M486 430v-330q0 -44 9 -95l-69 -26l-11 52q-77 -52 -156 -52q-99 0 -160.5 64t-61.5 165q0 110 66 176t177 66q55 0 122 -22l14 -4zM410 93v263q-58 34 -125 34q-79 0 -125.5 -49t-46.5 -132q0 -77 42 -123.5t112 -46.5q32 0 62 9q40 13 81 45z" />
    <glyph glyph-name="b" unicode="b" 
d="M69 -21v719l76 18v-319q74 53 156 53q97 0 157.5 -62t60.5 -161q0 -112 -68 -180t-180 -68q-75 0 -138 30zM145 328v-255q50 -34 119 -34q83 0 131 50t48 136q0 73 -43.5 119t-112.5 46q-36 0 -66.5 -13.5t-75.5 -48.5z" />
    <glyph glyph-name="c" unicode="c" horiz-adv-x="500" 
d="M445 415l-9 -68q-81 48 -149 48q-78 0 -126 -50.5t-48 -131.5q0 -77 45 -123.5t119 -46.5q40 0 78 13q43 14 96 52l-10 -85q-21 -11 -34 -16q-64 -28 -135 -28q-108 0 -171.5 63.5t-63.5 171.5t68.5 176.5t176.5 68.5q81 0 163 -44z" />
    <glyph glyph-name="d" unicode="d" 
d="M410 698l76 18v-711l-70 -26v59q-84 -59 -169 -59q-94 0 -152 61t-58 159q0 112 70 181.5t182 69.5q64 0 121 -24v272zM410 99v257q-50 34 -116 34q-85 0 -133 -50t-48 -138q0 -75 38.5 -119t103.5 -44q33 0 68 11q40 14 87 49z" />
    <glyph glyph-name="e" unicode="e" horiz-adv-x="519" 
d="M455 108l-10 -85q-21 -11 -34 -16q-63 -28 -140 -28q-106 0 -170 64t-64 170q0 105 69 175.5t171 70.5q87 0 146 -58t59 -144q0 -27 -15.5 -37t-57.5 -11l-28 -1l-268 -5q16 -160 160 -160q45 0 85 13q32 10 50.5 20t46.5 32zM406 269q-5 65 -39 99t-94 34
q-59 0 -103 -40t-55 -102z" />
    <glyph glyph-name="f" unicode="f" horiz-adv-x="333" 
d="M14 378v60h92v15q0 106 18 159.5t65 85.5l133 18v-32q-71 -16 -104 -54q-36 -44 -36 -133v-59h126v-60h-126v-378h-76v378h-92z" />
    <glyph glyph-name="g" unicode="g" 
d="M410 25q-80 -46 -157 -46q-97 0 -156.5 61t-59.5 161q0 109 68 179t175 70q53 0 135 -26l71 6v-388q0 -80 -19 -131q-21 -56 -79.5 -88.5t-139.5 -32.5q-93 0 -170 47l-11 88q36 -28 62 -41q58 -30 123 -30q77 0 117.5 38t40.5 110v23zM410 90v268q-71 35 -130 35
q-73 0 -120 -52.5t-47 -134.5q0 -78 42 -122.5t116 -44.5q36 0 69 11q35 12 70 40z" />
    <glyph glyph-name="h" unicode="h" 
d="M69 0v698l76 18v-338h3q15 12 27 21q71 51 155 51q80 0 122.5 -45.5t42.5 -131.5v-273h-76v244q0 75 -25 108.5t-80 33.5q-73 0 -121 -47.5t-48 -118.5v-220h-76z" />
    <glyph glyph-name="i" unicode="i" horiz-adv-x="222" 
d="M73 0v432l76 18v-450h-76zM58 603q0 22 15.5 37.5t37.5 15.5t37.5 -15.5t15.5 -37.5t-15.5 -37.5t-37.5 -15.5t-37.5 15.5t-15.5 37.5z" />
    <glyph glyph-name="j" unicode="j" horiz-adv-x="222" 
d="M75 432l76 18v-399q0 -83 -4 -126q-5 -61 -39 -116l-108 -19v5l5 5q27 29 35.5 41t17.5 34q17 43 17 124v433zM60 603q0 22 15.5 37.5t37.5 15.5t37.5 -15.5t15.5 -37.5t-15.5 -37.5t-37.5 -15.5t-37.5 15.5t-15.5 37.5z" />
    <glyph glyph-name="k" unicode="k" horiz-adv-x="481" 
d="M344 438h88l-189 -193l268 -245h-106l-252 241zM69 0v698l76 18v-716h-76z" />
    <glyph glyph-name="l" unicode="l" horiz-adv-x="222" 
d="M73 0v698l76 18v-716h-76z" />
    <glyph glyph-name="m" unicode="m" horiz-adv-x="833" 
d="M69 0v438h74v-74h2q29 37 53 55q43 31 105 31q101 0 144 -98q30 39 54 58q52 40 116 40q73 0 114.5 -47t41.5 -130v-273h-76v254q0 68 -22.5 100t-71.5 32q-61 0 -102.5 -44t-41.5 -109v-233h-76v254q0 69 -21 100.5t-68 31.5q-65 0 -107 -43t-42 -110v-233h-76z" />
    <glyph glyph-name="n" unicode="n" 
d="M69 0v438h74v-90h3q26 34 43 50t41 29q44 23 101 23q79 0 121.5 -45.5t42.5 -131.5v-273h-76v265q0 67 -22 94t-75 27q-77 0 -127 -50.5t-50 -129.5v-206h-76z" />
    <glyph glyph-name="o" unicode="o" 
d="M37 219q0 100 70.5 170t170.5 70t170.5 -70t70.5 -170t-70.5 -170t-170.5 -70t-170.5 70t-70.5 170zM113 219q0 -74 48 -125t117 -51q68 0 116.5 51.5t48.5 124.5t-48.5 124.5t-116.5 51.5q-69 0 -117 -51t-48 -125z" />
    <glyph glyph-name="p" unicode="p" 
d="M69 438h76v-28q67 40 145 40q104 0 166.5 -61t62.5 -162q0 -110 -67.5 -179t-175.5 -69q-59 0 -131 25v-192l-76 -22v648zM145 350v-278q66 -33 124 -33q79 0 126.5 51t47.5 135q0 73 -44 119t-112 46q-65 0 -142 -40z" />
    <glyph glyph-name="q" unicode="q" 
d="M410 5q-82 -26 -142 -26q-107 0 -169 60.5t-62 165.5q0 113 68.5 179t184.5 66q52 0 120 -12h76v-626l-76 -22v215zM410 71v300q-65 22 -117 22q-84 0 -132 -47.5t-48 -131.5q0 -83 46.5 -129t131.5 -46q62 0 119 32z" />
    <glyph glyph-name="r" unicode="r" horiz-adv-x="315" 
d="M69 0v438h76v-72h2q25 35 45 50q16 13 42 23q31 10 88 11v-76h-15q-162 0 -162 -155v-219h-76z" />
    <glyph glyph-name="s" unicode="s" horiz-adv-x="444" 
d="M46 35l10 74q37 -27 67 -41q53 -25 105 -25q48 0 75 17.5t27 48.5q0 27 -23 44q-20 14 -90 36q-87 27 -124 56q-39 33 -39 88q0 57 41.5 91.5t111.5 34.5q80 0 169 -44l-13 -69q-90 53 -157 53q-38 0 -59 -15t-21 -42q0 -26 21 -43q20 -17 95 -42q87 -29 118 -52
q42 -31 42 -89q0 -64 -45.5 -100.5t-124.5 -36.5q-42 0 -84 11q-43 12 -102 45z" />
    <glyph glyph-name="t" unicode="t" horiz-adv-x="333" 
d="M16 378v60h90v134l76 19v-153h128v-60h-128v-205q0 -79 14.5 -112t56.5 -51v-10l-86 -9q-61 37 -61 124v263h-90z" />
    <glyph glyph-name="u" unicode="u" 
d="M486 438v-447l-74 -12v102h-3q-25 -34 -41.5 -50t-41.5 -29q-46 -23 -104 -23q-86 0 -124 48t-38 155v256h76v-256q0 -76 23 -107.5t77 -31.5q75 0 124.5 51.5t49.5 128.5v215h76z" />
    <glyph glyph-name="v" unicode="v" horiz-adv-x="463" 
d="M231 -24h-16l-215 462h88l144 -318l156 318h74z" />
    <glyph glyph-name="w" unicode="w" horiz-adv-x="685" 
d="M3 438h84l126 -302l136 326h12l125 -326l128 302h68l-198 -462h-14l-123 321l-133 -321h-12z" />
    <glyph glyph-name="x" unicode="x" horiz-adv-x="463" 
d="M79 0h-83l187 224l-173 214h99l125 -156l130 156h84l-172 -204l190 -234h-99l-141 175z" />
    <glyph glyph-name="y" unicode="y" horiz-adv-x="463" 
d="M1 438h83l151 -344l155 344h71l-215 -472q-14 -34 -50 -102q-22 -40 -46 -74h-95q24 23 46 50q10 14 15 22q21 33 76 138z" />
    <glyph glyph-name="z" unicode="z" horiz-adv-x="444" 
d="M40 438h387l-288 -378h285l-12 -60h-413l288 378h-259z" />
    <glyph glyph-name="braceleft" unicode="{" horiz-adv-x="370" 
d="M36 281v42q45 4 70 35q23 32 23 95v65q0 68 7 99t27 57q42 50 132 54v-42q-94 -10 -94 -131v-17v-44v-18q-1 -53 -4.5 -75.5t-16.5 -44.5q-25 -43 -102 -54q38 -5 63 -18q21 -10 39 -36q20 -33 21 -120v-18v-44v-17q0 -121 94 -131v-42q-90 4 -132 54q-20 24 -27 56
t-7 100v65q0 63 -23 95q-25 31 -70 35z" />
    <glyph glyph-name="bar" unicode="|" horiz-adv-x="222" 
d="M84 -236v1000h54v-1000h-54z" />
    <glyph glyph-name="braceright" unicode="}" horiz-adv-x="370" 
d="M334 281q-45 -4 -69 -35q-14 -19 -19 -38t-5 -57v-65q0 -68 -7 -99t-27 -57q-42 -50 -131 -54v42q93 10 93 131v17v44l1 18q0 51 4 74t17 46q24 43 102 54q-39 6 -64 18q-22 10 -38 36q-13 20 -17 44t-4 76l-1 18v44v17q0 121 -93 131v42q89 -4 131 -54q20 -24 27 -56
t7 -100v-65q0 -38 5 -57t19 -38q24 -31 69 -35v-42z" />
    <glyph glyph-name="asciitilde" unicode="~" horiz-adv-x="600" 
d="M102 167h-46q13 68 44.5 105t75.5 37q28 0 95 -25l9 -4l57 -22l3 -2q4 -1 6 -2q54 -21 76 -21q26 0 43 19.5t33 68.5h46q-34 -143 -122 -143q-33 0 -131 39l-44 17l-9 4q-42 16 -62 16q-50 0 -74 -87z" />
    <glyph glyph-name="nbspace" unicode="&#xa0;" horiz-adv-x="500" 
 />
    <glyph glyph-name="exclamdown" unicode="&#xa1;" horiz-adv-x="278" 
d="M187 -192l-94 -18q2 108 4 148q4 98 19 256l13 130h24l8 -101q10 -121 20 -284q6 -124 6 -131zM192 469q0 -22 -15.5 -37.5t-37.5 -15.5t-37.5 15.5t-15.5 37.5t15.5 37.5t37.5 15.5t37.5 -15.5t15.5 -37.5z" />
    <glyph glyph-name="cent" unicode="&#xa2;" 
d="M360 464l40 121h53l-45 -134q29 -11 58 -26l-9 -68q-33 20 -69 34l-113 -337q11 -1 24 -1q41 0 77 13q43 14 96 52l-10 -85q-45 -23 -84 -33q-46 -11 -86 -11q-22 0 -38 3l-45 -133h-52l48 143q-71 23 -109 81t-38 141q0 108 68.5 176.5t176.5 68.5q26 0 57 -5zM339 403
q-13 2 -31 2q-77 0 -125.5 -50.5t-48.5 -131.5q0 -113 93 -156z" />
    <glyph glyph-name="sterling" unicode="&#xa3;" 
d="M46 -24v84q56 22 86.5 68.5t30.5 109.5q0 40 -12 95h-105v50h90q-23 91 -23 140q0 92 51.5 142.5t146.5 50.5q80 0 131.5 -37t67.5 -106l-72 -15q-19 40 -37 55q-32 29 -88 29t-88.5 -31t-32.5 -85q0 -51 28 -143h178v-50h-166q9 -48 9 -80q0 -68 -37 -147q55 -29 74 -37
q44 -19 87 -19q52 0 76 33q16 21 29 51l71 -29q-19 -47 -39 -73q-44 -56 -127 -56q-54 0 -112 24q-39 16 -103 56q-29 -32 -56 -52q-27 -19 -58 -28z" />
    <glyph glyph-name="currency" unicode="&#xa4;" 
d="M133 457l-60 60l45 45l60 -60q31 19 50.5 25t49.5 6q29 0 49 -6t51 -25l60 60l45 -45l-60 -60q19 -31 25 -50.5t6 -49.5q0 -31 -6 -50.5t-25 -50.5l60 -60l-45 -45l-60 60q-31 -19 -51 -25t-49 -6q-30 0 -49.5 6t-50.5 25l-60 -60l-45 45l60 60q-19 31 -25.5 50.5
t-6.5 50.5q0 30 6.5 49.5t25.5 50.5zM174 357q0 -43 30.5 -73.5t73.5 -30.5t73 30.5t30 73.5t-30 73t-73 30t-73.5 -30t-30.5 -73z" />
    <glyph glyph-name="yen" unicode="&#xa5;" 
d="M236 0v281h-192v56h175l-59 105h-132v56h101l-114 206h98l165 -326l165 326h97l-114 -206h102v-56h-133l-58 -105h175v-56h-192v-281h-84z" />
    <glyph glyph-name="brokenbar" unicode="&#xa6;" horiz-adv-x="222" 
d="M84 14v250h54v-250h-54zM84 514v250h54v-250h-54z" />
    <glyph glyph-name="section" unicode="&#xa7;" horiz-adv-x="500" 
d="M392 647l-49 -36q-23 34 -44.5 47.5t-50.5 13.5q-28 0 -45.5 -16t-17.5 -42q0 -24 20.5 -50.5t85.5 -87.5q71 -67 101 -105q43 -53 43 -106q0 -97 -107 -108q54 -63 54 -124q0 -55 -36 -88t-96 -33q-48 0 -82 18.5t-72 65.5l53 36q39 -64 100 -64q32 0 51 17.5t19 46.5
q0 25 -17.5 50t-72.5 79l-46 44q-51 49 -79 86q-40 55 -40 103q0 44 31 71t84 30l-4 5q-54 58 -54 112q0 52 34.5 84t89.5 32q52 0 95 -30q19 -13 52 -51zM128 397q3 -40 60 -103q49 -53 75.5 -72t52.5 -19q25 0 40 15t15 40q0 38 -55 100q-34 38 -72 67q-32 25 -60 25
q-24 0 -40 -14t-16 -36v-3z" />
    <glyph glyph-name="dieresis" unicode="&#xa8;" horiz-adv-x="222" 
d="M-26 571q0 22 15.5 37.5t37.5 15.5t37.5 -15.5t15.5 -37.5t-15.5 -37.5t-37.5 -15.5t-37.5 15.5t-15.5 37.5zM142 575q0 22 15.5 37.5t37.5 15.5q21 0 37 -17.5t16 -39.5q0 -21 -15.5 -35t-37.5 -14t-37.5 15.5t-15.5 37.5z" />
    <glyph glyph-name="copyright" unicode="&#xa9;" horiz-adv-x="833" 
d="M793 352q0 -156 -110.5 -266t-265.5 -110q-156 0 -266 110t-110 266t110 266t266 110q155 0 265.5 -110t110.5 -266zM743 352q0 136 -95.5 232.5t-230.5 96.5q-136 0 -231.5 -96t-95.5 -233t95.5 -233t231.5 -96q135 0 230.5 96.5t95.5 232.5zM540 279h62
q-9 -65 -57.5 -106t-117.5 -41q-89 0 -148 63t-59 159q0 97 56 159.5t143 62.5q74 0 125 -43.5t56 -110.5h-62q-7 44 -38 70t-76 26q-58 0 -93.5 -44.5t-35.5 -116.5q0 -75 37 -120.5t97 -45.5q44 0 73 23t38 65z" />
    <glyph glyph-name="ordfeminine" unicode="&#xaa;" horiz-adv-x="370" 
d="M321 709v-211q0 -31 5 -60l-59 -17l-5 25q-41 -25 -90 -25q-64 0 -104 40.5t-40 105.5q0 70 43.5 112.5t115.5 42.5q36 0 79 -14l9 -3zM257 504v146q-35 19 -69 19q-44 0 -69.5 -27.5t-25.5 -73.5q0 -42 23.5 -68t61.5 -26q39 0 79 30z" />
    <glyph glyph-name="guillemotleft" unicode="&#xab;" horiz-adv-x="463" 
d="M168 372h76l-120 -150l124 -156h-76l-124 156zM335 372h76l-120 -150l124 -156h-76l-124 156z" />
    <glyph glyph-name="logicalnot" unicode="&#xac;" horiz-adv-x="600" 
d="M56 310v54h488v-240h-53v186h-435z" />
    <glyph glyph-name="registered" unicode="&#xae;" horiz-adv-x="833" 
d="M793 352q0 -156 -110.5 -266t-265.5 -110q-156 0 -266 110t-110 266t110 266t266 110q155 0 265.5 -110t110.5 -266zM743 352q0 136 -95.5 232.5t-230.5 96.5q-136 0 -231.5 -96t-95.5 -233t95.5 -233t231.5 -96q135 0 230.5 96.5t95.5 232.5zM266 562h144q79 0 116 -17
q61 -29 61 -101q0 -94 -101 -105q29 -4 49 -19q26 -19 35.5 -43.5t10.5 -72.5q1 -45 8 -59h-69q-5 13 -6 39q0 9 -0.5 21t-0.5 14q-1 39 -20 62q-25 29 -98 29h-7h-52v-165h-70v417zM336 361h67q59 0 86.5 18.5t27.5 59.5q0 34 -24 53q-13 9 -31 14q-22 6 -62 6h-64v-151z
" />
    <glyph glyph-name="macron" unicode="&#xaf;" horiz-adv-x="222" 
d="M-44 542v58h311v-58h-311z" />
    <glyph glyph-name="degree" unicode="&#xb0;" horiz-adv-x="370" 
d="M38 581q0 61 43 104t104 43t104 -43t43 -104t-43 -104t-104 -43t-104 43t-43 104zM91 581q0 -39 27.5 -66.5t66.5 -27.5t66.5 27.5t27.5 66.5t-27.5 66.5t-66.5 27.5t-66.5 -27.5t-27.5 -66.5z" />
    <glyph glyph-name="plusminus" unicode="&#xb1;" horiz-adv-x="600" 
d="M273 88v173h-217v54h217v173h54v-173h217v-54h-217v-173h-54zM56 0v53h488v-53h-488z" />
    <glyph glyph-name="twosuperior" unicode="&#xb2;" horiz-adv-x="407" 
d="M89 588l-50 28q21 58 57 85t94 27q70 0 114.5 -39t44.5 -100q0 -37 -15.5 -66t-58.5 -71l-119 -117h215l-4 -53h-338l-2 2l187 184q41 40 56 66t15 56q0 37 -27 60.5t-71 23.5q-37 0 -59 -19t-39 -67z" />
    <glyph glyph-name="threesuperior" unicode="&#xb3;" horiz-adv-x="389" 
d="M155 477v54q58 1 83.5 18t25.5 53q0 31 -22.5 51.5t-55.5 20.5q-46 0 -78 -48l-58 11q36 91 135 91q63 0 103.5 -35.5t40.5 -90.5q0 -67 -65 -95q79 -28 79 -108q0 -64 -43.5 -102.5t-116.5 -38.5q-55 0 -89 23.5t-63 81.5l57 18q15 -29 28 -42q30 -28 69 -28
q40 0 66.5 24.5t26.5 59.5q0 82 -111 82h-12z" />
    <glyph glyph-name="acute" unicode="&#xb4;" horiz-adv-x="222" 
d="M134 649h109l-131 -141h-67z" />
    <glyph glyph-name="mu" unicode="&#xb5;" 
d="M491 438v-447l-74 -12v102h-3q-25 -34 -42 -50t-42 -29q-43 -23 -98 -23q-50 0 -91 25v-192l-76 -22v648h76v-256q0 -76 22.5 -107.5t77.5 -31.5q75 0 124.5 51.5t49.5 128.5v215h76z" />
    <glyph glyph-name="paragraph" unicode="&#xb6;" horiz-adv-x="500" 
d="M273 -88h-68v393q-48 2 -87 16q-51 20 -81 69.5t-30 114.5q0 91 54 145t144 54h258v-56h-48v-736h-68v736h-74v-736z" />
    <glyph glyph-name="periodcentered" unicode="&#xb7;" horiz-adv-x="278" 
d="M86 219q0 22 15.5 37.5t37.5 15.5t37.5 -15.5t15.5 -37.5t-15.5 -37.5t-37.5 -15.5t-37.5 15.5t-15.5 37.5z" />
    <glyph glyph-name="cedilla" unicode="&#xb8;" horiz-adv-x="222" 
d="M19 -87l64 87h48l-47 -63q21 5 36 5q34 0 57 -22t23 -55q0 -41 -32 -66t-84 -25q-44 0 -98 22l17 39l12 -4q34 -11 53 -11q25 0 41 12t16 31q0 39 -49 39q-20 0 -39 -9z" />
    <glyph glyph-name="onesuperior" unicode="&#xb9;" horiz-adv-x="278" 
d="M61 704h121v-422h-64v371h-66z" />
    <glyph glyph-name="ordmasculine" unicode="&#xba;" horiz-adv-x="370" 
d="M29 574q0 64 45.5 109t110.5 45t111 -45t46 -109t-46 -108.5t-111 -44.5t-110.5 44.5t-45.5 108.5zM93 574q0 -40 27 -68.5t65 -28.5t65 28.5t27 68.5q0 41 -27 69.5t-65 28.5t-65 -28.5t-27 -69.5z" />
    <glyph glyph-name="guillemotright" unicode="&#xbb;" horiz-adv-x="463" 
d="M128 66h-76l120 150l-124 156h76l124 -156zM295 66h-76l120 150l-124 156h76l124 -156z" />
    <glyph glyph-name="onequarter" unicode="&#xbc;" horiz-adv-x="833" 
d="M164 -24l442 752h58l-443 -752h-57zM724 92v-92h-64v92h-226l290 362v-308h57v-54h-57zM61 704h121v-422h-64v371h-66zM659 293l-116 -147h117v147h-1z" />
    <glyph glyph-name="onehalf" unicode="&#xbd;" horiz-adv-x="833" 
d="M114 -24l442 752h58l-443 -752h-57zM61 704h121v-422h-64v371h-66zM515 307l-50 28q21 58 57 84.5t94 26.5q69 0 114 -39t45 -100q0 -36 -16 -65.5t-58 -71.5l-119 -116h215l-4 -54h-338l-2 2l187 185q41 41 56 66t15 55q0 38 -27.5 61.5t-71.5 23.5q-37 0 -59 -19.5
t-38 -66.5z" />
    <glyph glyph-name="threequarters" unicode="&#xbe;" horiz-adv-x="833" 
d="M223 -24l442 752h58l-443 -752h-57zM754 92v-92h-64v92h-227l291 362v-308h57v-54h-57zM155 477v54q58 1 83.5 18t25.5 53q0 31 -22.5 51.5t-55.5 20.5q-46 0 -78 -48l-58 11q36 91 135 91q63 0 103.5 -35.5t40.5 -90.5q0 -67 -65 -95q79 -28 79 -108q0 -64 -43.5 -102.5
t-116.5 -38.5q-55 0 -89 23.5t-63 81.5l57 18q15 -29 28 -42q30 -28 69 -28q40 0 66.5 24.5t26.5 59.5q0 82 -111 82h-12zM689 293l-116 -147h117v147h-1z" />
    <glyph glyph-name="questiondown" unicode="&#xbf;" horiz-adv-x="444" 
d="M338 329v-155q-94 -11 -144 -37q-100 -48 -100 -142q0 -63 47.5 -99t131.5 -36q43 0 88 11l-5 -67q-46 -14 -101 -14q-110 0 -173.5 53t-63.5 145q0 107 84 173q33 26 66 39.5t98 29.5v80zM355 469q0 -22 -15.5 -37.5t-37.5 -15.5t-37.5 15.5t-15.5 37.5t15.5 37.5
t37.5 15.5t37.5 -15.5t15.5 -37.5z" />
    <glyph glyph-name="Agrave" unicode="&#xc0;" horiz-adv-x="722" 
d="M173 183l-87 -183h-87l355 728h15l354 -728h-93l-87 183h-370zM203 247h310l-155 326zM338 894l89 -141h-67l-130 141h108z" />
    <glyph glyph-name="Aacute" unicode="&#xc1;" horiz-adv-x="722" 
d="M173 183l-87 -183h-87l355 728h15l354 -728h-93l-87 183h-370zM203 247h310l-155 326zM384 894h109l-131 -141h-67z" />
    <glyph glyph-name="Acircumflex" unicode="&#xc2;" horiz-adv-x="722" 
d="M173 183l-87 -183h-87l355 728h15l354 -728h-93l-87 183h-370zM203 247h310l-155 326zM315 894h92l100 -141h-80l-66 93l-66 -93h-79z" />
    <glyph glyph-name="Atilde" unicode="&#xc3;" horiz-adv-x="722" 
d="M173 183l-87 -183h-87l355 728h15l354 -728h-93l-87 183h-370zM203 247h310l-155 326zM482 878h49q-7 -52 -31.5 -80.5t-62.5 -28.5q-23 0 -59 12l-25 8l-28 9q-31 10 -42 10q-34 0 -42 -46h-50q17 109 94 109q23 0 59 -12l25 -8l28 -9q31 -10 42 -10q34 0 43 46z" />
    <glyph glyph-name="Adieresis" unicode="&#xc4;" horiz-adv-x="722" 
d="M173 183l-87 -183h-87l355 728h15l354 -728h-93l-87 183h-370zM203 247h310l-155 326zM224 816q0 22 15.5 37.5t37.5 15.5t37.5 -15.5t15.5 -37.5t-15.5 -37.5t-37.5 -15.5t-37.5 15.5t-15.5 37.5zM392 820q0 22 15.5 37.5t37.5 15.5q21 0 37 -17.5t16 -39.5
q0 -21 -15.5 -35t-37.5 -14t-37.5 15.5t-15.5 37.5z" />
    <glyph glyph-name="Aring" unicode="&#xc5;" horiz-adv-x="722" 
d="M173 183l-87 -183h-87l355 728h15l354 -728h-93l-87 183h-370zM203 247h310l-155 326zM258 850q0 43 30 73t73 30t73 -30t30 -73t-30 -73t-73 -30t-73 30t-30 73zM302 850q0 -25 17 -42t42 -17t42 17t17 42t-17 42t-42 17t-42 -17t-17 -42z" />
    <glyph glyph-name="AE" unicode="&#xc6;" horiz-adv-x="889" 
d="M-12 0l381 704h465v-74h-328v-226h286v-74h-286v-256h332v-74h-416v222h-232l-117 -222h-85zM408 630l-185 -344h199v344h-14z" />
    <glyph glyph-name="Ccedilla" unicode="&#xc7;" horiz-adv-x="704" 
d="M628 665l-7 -85q-23 17 -37 26q-77 48 -174 48q-125 0 -204 -84t-79 -218q0 -133 80 -217.5t206 -84.5q50 0 101 15q39 12 63 26.5t62 47.5l-7 -107l-28 -14q-93 -42 -187 -42h-27l-29 -39q21 5 35 5q35 0 58 -22t23 -55q0 -40 -32.5 -65.5t-84.5 -25.5q-45 0 -97 22
l17 39l12 -4q33 -11 52 -11q25 0 41.5 12t16.5 31q0 18 -13 28.5t-36 10.5q-19 0 -39 -9l-18 20l50 68q-139 20 -221 120t-82 249q0 166 102.5 272t261.5 106q53 0 101 -12q37 -8 60.5 -18t59.5 -33z" />
    <glyph glyph-name="Egrave" unicode="&#xc8;" 
d="M89 0v704h412v-74h-328v-226h286v-74h-286v-256h332v-74h-416zM255 894l89 -141h-67l-130 141h108z" />
    <glyph glyph-name="Eacute" unicode="&#xc9;" 
d="M89 0v704h412v-74h-328v-226h286v-74h-286v-256h332v-74h-416zM301 894h109l-131 -141h-67z" />
    <glyph glyph-name="Ecircumflex" unicode="&#xca;" 
d="M89 0v704h412v-74h-328v-226h286v-74h-286v-256h332v-74h-416zM232 894h92l100 -141h-80l-66 93l-66 -93h-79z" />
    <glyph glyph-name="Edieresis" unicode="&#xcb;" 
d="M89 0v704h412v-74h-328v-226h286v-74h-286v-256h332v-74h-416zM141 816q0 22 15.5 37.5t37.5 15.5t37.5 -15.5t15.5 -37.5t-15.5 -37.5t-37.5 -15.5t-37.5 15.5t-15.5 37.5zM309 820q0 22 15.5 37.5t37.5 15.5q21 0 37 -17.5t16 -39.5q0 -21 -15.5 -35t-37.5 -14
t-37.5 15.5t-15.5 37.5z" />
    <glyph glyph-name="Igrave" unicode="&#xcc;" horiz-adv-x="278" 
d="M97 0v704h84v-704h-84zM116 894l89 -141h-67l-130 141h108z" />
    <glyph glyph-name="Iacute" unicode="&#xcd;" horiz-adv-x="278" 
d="M97 0v704h84v-704h-84zM162 894h109l-131 -141h-67z" />
    <glyph glyph-name="Icircumflex" unicode="&#xce;" horiz-adv-x="278" 
d="M97 0v704h84v-704h-84zM93 894h92l100 -141h-80l-66 93l-66 -93h-79z" />
    <glyph glyph-name="Idieresis" unicode="&#xcf;" horiz-adv-x="278" 
d="M97 0v704h84v-704h-84zM2 816q0 22 15.5 37.5t37.5 15.5t37.5 -15.5t15.5 -37.5t-15.5 -37.5t-37.5 -15.5t-37.5 15.5t-15.5 37.5zM170 820q0 22 15.5 37.5t37.5 15.5q21 0 37 -17.5t16 -39.5q0 -21 -15.5 -35t-37.5 -14t-37.5 15.5t-15.5 37.5z" />
    <glyph glyph-name="Eth" unicode="&#xd0;" horiz-adv-x="741" 
d="M92 704h209q181 0 289 -96t108 -256t-108 -256t-289 -96h-209v334h-73v74h73v296zM176 630v-222h217v-74h-217v-260h115q146 0 234.5 76t88.5 202t-88.5 202t-234.5 76h-115z" />
    <glyph glyph-name="Ntilde" unicode="&#xd1;" horiz-adv-x="778" 
d="M85 0v728h18l514 -569v545h76v-728h-18l-514 569v-545h-76zM510 878h49q-7 -52 -31.5 -80.5t-62.5 -28.5q-23 0 -59 12l-25 8l-28 9q-31 10 -42 10q-34 0 -42 -46h-50q17 109 94 109q23 0 59 -12l25 -8l28 -9q31 -10 42 -10q34 0 43 46z" />
    <glyph glyph-name="Ograve" unicode="&#xd2;" horiz-adv-x="778" 
d="M43 352q0 161 99 268.5t247 107.5t247 -107.5t99 -268.5t-99 -268.5t-247 -107.5t-247 107.5t-99 268.5zM127 352q0 -133 73 -217.5t189 -84.5t189 84.5t73 217.5t-73 217.5t-189 84.5t-189 -84.5t-73 -217.5zM366 894l89 -141h-67l-130 141h108z" />
    <glyph glyph-name="Oacute" unicode="&#xd3;" horiz-adv-x="778" 
d="M43 352q0 161 99 268.5t247 107.5t247 -107.5t99 -268.5t-99 -268.5t-247 -107.5t-247 107.5t-99 268.5zM127 352q0 -133 73 -217.5t189 -84.5t189 84.5t73 217.5t-73 217.5t-189 84.5t-189 -84.5t-73 -217.5zM412 894h109l-131 -141h-67z" />
    <glyph glyph-name="Ocircumflex" unicode="&#xd4;" horiz-adv-x="778" 
d="M43 352q0 161 99 268.5t247 107.5t247 -107.5t99 -268.5t-99 -268.5t-247 -107.5t-247 107.5t-99 268.5zM127 352q0 -133 73 -217.5t189 -84.5t189 84.5t73 217.5t-73 217.5t-189 84.5t-189 -84.5t-73 -217.5zM343 894h92l100 -141h-80l-66 93l-66 -93h-79z" />
    <glyph glyph-name="Otilde" unicode="&#xd5;" horiz-adv-x="778" 
d="M43 352q0 161 99 268.5t247 107.5t247 -107.5t99 -268.5t-99 -268.5t-247 -107.5t-247 107.5t-99 268.5zM127 352q0 -133 73 -217.5t189 -84.5t189 84.5t73 217.5t-73 217.5t-189 84.5t-189 -84.5t-73 -217.5zM510 878h49q-7 -52 -31.5 -80.5t-62.5 -28.5q-23 0 -59 12
l-25 8l-28 9q-31 10 -42 10q-34 0 -42 -46h-50q17 109 94 109q23 0 59 -12l25 -8l28 -9q31 -10 42 -10q34 0 43 46z" />
    <glyph glyph-name="Odieresis" unicode="&#xd6;" horiz-adv-x="778" 
d="M43 352q0 161 99 268.5t247 107.5t247 -107.5t99 -268.5t-99 -268.5t-247 -107.5t-247 107.5t-99 268.5zM127 352q0 -133 73 -217.5t189 -84.5t189 84.5t73 217.5t-73 217.5t-189 84.5t-189 -84.5t-73 -217.5zM252 816q0 22 15.5 37.5t37.5 15.5t37.5 -15.5t15.5 -37.5
t-15.5 -37.5t-37.5 -15.5t-37.5 15.5t-15.5 37.5zM420 820q0 22 15.5 37.5t37.5 15.5q21 0 37 -17.5t16 -39.5q0 -21 -15.5 -35t-37.5 -14t-37.5 15.5t-15.5 37.5z" />
    <glyph glyph-name="multiply" unicode="&#xd7;" horiz-adv-x="600" 
d="M72 53l190 191l-190 191l37 37l191 -190l191 190l38 -37l-191 -191l191 -191l-38 -38l-191 191l-191 -191z" />
    <glyph glyph-name="Oslash" unicode="&#xd8;" horiz-adv-x="778" 
d="M605 650l69 78h94l-114 -129q81 -102 81 -247q0 -161 -99 -268.5t-247 -107.5q-123 0 -216 78l-70 -78h-94l114 129q-80 100 -80 247q0 161 99 268.5t247 107.5q121 0 216 -78zM555 593q-70 61 -166 61q-116 0 -189 -84t-73 -217q0 -112 50 -188zM223 111q72 -61 166 -61
q116 0 189 84t73 217q0 111 -50 188z" />
    <glyph glyph-name="Ugrave" unicode="&#xd9;" horiz-adv-x="759" 
d="M83 704h84v-410q0 -119 55.5 -181.5t162.5 -62.5q220 0 220 280v374h72v-402q0 -160 -76.5 -243t-222.5 -83q-143 0 -219 84.5t-76 241.5v402zM355 894l89 -141h-67l-130 141h108z" />
    <glyph glyph-name="Uacute" unicode="&#xda;" horiz-adv-x="759" 
d="M83 704h84v-410q0 -119 55.5 -181.5t162.5 -62.5q220 0 220 280v374h72v-402q0 -160 -76.5 -243t-222.5 -83q-143 0 -219 84.5t-76 241.5v402zM400 894h109l-131 -141h-67z" />
    <glyph glyph-name="Ucircumflex" unicode="&#xdb;" horiz-adv-x="759" 
d="M83 704h84v-410q0 -119 55.5 -181.5t162.5 -62.5q220 0 220 280v374h72v-402q0 -160 -76.5 -243t-222.5 -83q-143 0 -219 84.5t-76 241.5v402zM332 894h92l100 -141h-80l-66 93l-66 -93h-79z" />
    <glyph glyph-name="Udieresis" unicode="&#xdc;" horiz-adv-x="759" 
d="M83 704h84v-410q0 -119 55.5 -181.5t162.5 -62.5q220 0 220 280v374h72v-402q0 -160 -76.5 -243t-222.5 -83q-143 0 -219 84.5t-76 241.5v402zM243 816q0 22 15.5 37.5t37.5 15.5t37.5 -15.5t15.5 -37.5t-15.5 -37.5t-37.5 -15.5t-37.5 15.5t-15.5 37.5zM411 820
q0 22 15.5 37.5t37.5 15.5q21 0 37 -17.5t16 -39.5q0 -21 -15.5 -35t-37.5 -14t-37.5 15.5t-15.5 37.5z" />
    <glyph glyph-name="Yacute" unicode="&#xdd;" horiz-adv-x="667" 
d="M368 0h-84v306l-296 398h100l241 -326l254 326h95l-310 -398v-306zM358 895h109l-131 -141h-67z" />
    <glyph glyph-name="Thorn" unicode="&#xde;" horiz-adv-x="574" 
d="M92 0v704h84v-132h115q121 0 191.5 -57.5t70.5 -155.5q0 -95 -63 -153q-36 -34 -88 -49t-136 -15h-90v-142h-84zM176 508v-302h64q121 0 175 35.5t54 115.5t-54 115.5t-175 35.5h-64z" />
    <glyph glyph-name="germandbls" unicode="&#xdf;" 
d="M198 67l64 43q11 -38 28 -53t49 -15q50 0 77 38t27 110q0 83 -42 125q-18 18 -42 28q-31 12 -96 15v60q68 2 99 29.5t31 86.5q0 55 -32 86.5t-88 31.5q-62 0 -95 -40.5t-33 -116.5v-495h-76v433v29q0 97 25 150q22 47 71.5 75.5t108.5 28.5q84 0 137.5 -50t53.5 -128
q0 -112 -96 -142v-2q55 -17 83 -40q67 -52 67 -164q0 -94 -49.5 -151t-130.5 -57q-65 0 -105 37q-19 16 -36 48z" />
    <glyph glyph-name="agrave" unicode="&#xe0;" 
d="M486 430v-330q0 -44 9 -95l-69 -26l-11 52q-77 -52 -156 -52q-99 0 -160.5 64t-61.5 165q0 110 66 176t177 66q55 0 122 -22l14 -4zM410 93v263q-58 34 -125 34q-79 0 -125.5 -49t-46.5 -132q0 -77 42 -123.5t112 -46.5q32 0 62 9q40 13 81 45zM255 649l89 -141h-67
l-130 141h108z" />
    <glyph glyph-name="aacute" unicode="&#xe1;" 
d="M486 430v-330q0 -44 9 -95l-69 -26l-11 52q-77 -52 -156 -52q-99 0 -160.5 64t-61.5 165q0 110 66 176t177 66q55 0 122 -22l14 -4zM410 93v263q-58 34 -125 34q-79 0 -125.5 -49t-46.5 -132q0 -77 42 -123.5t112 -46.5q32 0 62 9q40 13 81 45zM301 649h109l-131 -141
h-67z" />
    <glyph glyph-name="acircumflex" unicode="&#xe2;" 
d="M486 430v-330q0 -44 9 -95l-69 -26l-11 52q-77 -52 -156 -52q-99 0 -160.5 64t-61.5 165q0 110 66 176t177 66q55 0 122 -22l14 -4zM410 93v263q-58 34 -125 34q-79 0 -125.5 -49t-46.5 -132q0 -77 42 -123.5t112 -46.5q32 0 62 9q40 13 81 45zM233 649h92l100 -141h-80
l-66 93l-66 -93h-79z" />
    <glyph glyph-name="atilde" unicode="&#xe3;" 
d="M486 430v-330q0 -44 9 -95l-69 -26l-11 52q-77 -52 -156 -52q-99 0 -160.5 64t-61.5 165q0 110 66 176t177 66q55 0 122 -22l14 -4zM410 93v263q-58 34 -125 34q-79 0 -125.5 -49t-46.5 -132q0 -77 42 -123.5t112 -46.5q32 0 62 9q40 13 81 45zM401 633h49
q-7 -52 -31.5 -80.5t-62.5 -28.5q-23 0 -59 12l-25 8l-28 9q-31 10 -42 10q-34 0 -42 -46h-50q17 109 94 109q23 0 59 -12l25 -8l28 -9q31 -10 42 -10q34 0 43 46z" />
    <glyph glyph-name="adieresis" unicode="&#xe4;" 
d="M486 430v-330q0 -44 9 -95l-69 -26l-11 52q-77 -52 -156 -52q-99 0 -160.5 64t-61.5 165q0 110 66 176t177 66q55 0 122 -22l14 -4zM410 93v263q-58 34 -125 34q-79 0 -125.5 -49t-46.5 -132q0 -77 42 -123.5t112 -46.5q32 0 62 9q40 13 81 45zM143 571q0 22 15.5 37.5
t37.5 15.5t37.5 -15.5t15.5 -37.5t-15.5 -37.5t-37.5 -15.5t-37.5 15.5t-15.5 37.5zM311 575q0 22 15.5 37.5t37.5 15.5q21 0 37 -17.5t16 -39.5q0 -21 -15.5 -35t-37.5 -14t-37.5 15.5t-15.5 37.5z" />
    <glyph glyph-name="aring" unicode="&#xe5;" 
d="M486 430v-330q0 -44 9 -95l-69 -26l-11 52q-77 -52 -156 -52q-99 0 -160.5 64t-61.5 165q0 110 66 176t177 66q55 0 122 -22l14 -4zM410 93v263q-58 34 -125 34q-79 0 -125.5 -49t-46.5 -132q0 -77 42 -123.5t112 -46.5q32 0 62 9q40 13 81 45zM177 605q0 43 30 73t73 30
t73 -30t30 -73t-30 -73t-73 -30t-73 30t-30 73zM221 605q0 -25 17 -42t42 -17t42 17t17 42t-17 42t-42 17t-42 -17t-17 -42z" />
    <glyph glyph-name="ae" unicode="&#xe6;" horiz-adv-x="778" 
d="M91 335l2 72q24 13 35 17q56 26 121 26q51 0 84.5 -17.5t61.5 -59.5q37 40 75 58q44 19 90 19q83 0 135.5 -52.5t52.5 -136.5q0 -33 -9.5 -44t-38.5 -12l-289 -6v-8q0 -69 38.5 -110t103.5 -41q48 0 97 26q25 12 74 51l-10 -81q-28 -18 -32 -20q-71 -40 -146 -40
q-74 0 -126 41q-18 15 -35 42q-36 -37 -71 -54q-55 -29 -126 -29t-110.5 31.5t-39.5 86.5q0 90 90 127q28 11 64 19q51 9 155 12v28q0 106 -102 106q-75 0 -144 -51zM335 94v102q-121 -3 -176 -23q-55 -21 -55 -68q0 -32 23.5 -50.5t63.5 -18.5q69 0 144 58zM416 253l256 10
q-2 62 -32 94.5t-84 32.5q-55 0 -91.5 -35.5t-48.5 -101.5z" />
    <glyph glyph-name="ccedilla" unicode="&#xe7;" horiz-adv-x="500" 
d="M445 415l-9 -68q-81 48 -149 48q-78 0 -126 -50.5t-48 -131.5q0 -77 45 -123.5t119 -46.5q40 0 78 13q43 14 96 52l-10 -85q-47 -23 -84 -33t-80 -11l-31 -42q21 5 35 5q35 0 58 -22t23 -55q0 -40 -32.5 -65.5t-84.5 -25.5q-45 0 -97 22l17 39l12 -4q33 -11 52 -11
q25 0 41 12t16 31q0 18 -13 28.5t-35 10.5q-20 0 -39 -9l-18 20l50 69q-93 14 -143.5 74.5t-50.5 157.5q0 108 68.5 176.5t176.5 68.5q81 0 163 -44z" />
    <glyph glyph-name="egrave" unicode="&#xe8;" horiz-adv-x="519" 
d="M455 108l-10 -85q-21 -11 -34 -16q-63 -28 -140 -28q-106 0 -170 64t-64 170q0 105 69 175.5t171 70.5q87 0 146 -58t59 -144q0 -27 -15.5 -37t-57.5 -11l-28 -1l-268 -5q16 -160 160 -160q45 0 85 13q32 10 50.5 20t46.5 32zM406 269q-5 65 -39 99t-94 34
q-59 0 -103 -40t-55 -102zM236 649l89 -141h-67l-130 141h108z" />
    <glyph glyph-name="eacute" unicode="&#xe9;" horiz-adv-x="519" 
d="M455 108l-10 -85q-21 -11 -34 -16q-63 -28 -140 -28q-106 0 -170 64t-64 170q0 105 69 175.5t171 70.5q87 0 146 -58t59 -144q0 -27 -15.5 -37t-57.5 -11l-28 -1l-268 -5q16 -160 160 -160q45 0 85 13q32 10 50.5 20t46.5 32zM406 269q-5 65 -39 99t-94 34
q-59 0 -103 -40t-55 -102zM282 649h109l-131 -141h-67z" />
    <glyph glyph-name="ecircumflex" unicode="&#xea;" horiz-adv-x="519" 
d="M455 108l-10 -85q-21 -11 -34 -16q-63 -28 -140 -28q-106 0 -170 64t-64 170q0 105 69 175.5t171 70.5q87 0 146 -58t59 -144q0 -27 -15.5 -37t-57.5 -11l-28 -1l-268 -5q16 -160 160 -160q45 0 85 13q32 10 50.5 20t46.5 32zM406 269q-5 65 -39 99t-94 34
q-59 0 -103 -40t-55 -102zM213 649h92l100 -141h-80l-66 93l-66 -93h-79z" />
    <glyph glyph-name="edieresis" unicode="&#xeb;" horiz-adv-x="519" 
d="M455 108l-10 -85q-21 -11 -34 -16q-63 -28 -140 -28q-106 0 -170 64t-64 170q0 105 69 175.5t171 70.5q87 0 146 -58t59 -144q0 -27 -15.5 -37t-57.5 -11l-28 -1l-268 -5q16 -160 160 -160q45 0 85 13q32 10 50.5 20t46.5 32zM406 269q-5 65 -39 99t-94 34
q-59 0 -103 -40t-55 -102zM122 571q0 22 15.5 37.5t37.5 15.5t37.5 -15.5t15.5 -37.5t-15.5 -37.5t-37.5 -15.5t-37.5 15.5t-15.5 37.5zM290 575q0 22 15.5 37.5t37.5 15.5q21 0 37 -17.5t16 -39.5q0 -21 -15.5 -35t-37.5 -14t-37.5 15.5t-15.5 37.5z" />
    <glyph glyph-name="igrave" unicode="&#xec;" horiz-adv-x="222" 
d="M73 0v432l76 18v-450h-76zM88 649l89 -141h-67l-130 141h108z" />
    <glyph glyph-name="iacute" unicode="&#xed;" horiz-adv-x="222" 
d="M73 0v432l76 18v-450h-76zM134 649h109l-131 -141h-67z" />
    <glyph glyph-name="icircumflex" unicode="&#xee;" horiz-adv-x="222" 
d="M73 0v432l76 18v-450h-76zM65 649h92l100 -141h-80l-66 93l-66 -93h-79z" />
    <glyph glyph-name="idieresis" unicode="&#xef;" horiz-adv-x="222" 
d="M73 0v432l76 18v-450h-76zM-26 571q0 22 15.5 37.5t37.5 15.5t37.5 -15.5t15.5 -37.5t-15.5 -37.5t-37.5 -15.5t-37.5 15.5t-15.5 37.5zM142 575q0 22 15.5 37.5t37.5 15.5q21 0 37 -17.5t16 -39.5q0 -21 -15.5 -35t-37.5 -14t-37.5 15.5t-15.5 37.5z" />
    <glyph glyph-name="eth" unicode="&#xf0;" 
d="M333 452l2 2q-32 44 -92 112l-5 5l-171 -77v64l130 58l-4 4l-28 31l-50 53h100l16 -17l32 -33l5 -6l175 80v-64l-134 -61l5 -6q84 -96 127 -164q78 -118 78 -218q0 -97 -71 -166.5t-170 -69.5q-100 0 -170.5 70t-70.5 170t70.5 170t171.5 70q28 0 54 -7zM113 219
q0 -74 48 -125t117 -51q68 0 116.5 51.5t48.5 124.5t-48.5 124.5t-116.5 51.5q-69 0 -117 -51t-48 -125z" />
    <glyph glyph-name="ntilde" unicode="&#xf1;" 
d="M69 0v438h74v-90h3q26 34 43 50t41 29q44 23 101 23q79 0 121.5 -45.5t42.5 -131.5v-273h-76v265q0 67 -22 94t-75 27q-77 0 -127 -50.5t-50 -129.5v-206h-76zM401 633h49q-7 -52 -31.5 -80.5t-62.5 -28.5q-23 0 -59 12l-25 8l-28 9q-31 10 -42 10q-34 0 -42 -46h-50
q17 109 94 109q23 0 59 -12l25 -8l28 -9q31 -10 42 -10q34 0 43 46z" />
    <glyph glyph-name="ograve" unicode="&#xf2;" 
d="M37 219q0 100 70.5 170t170.5 70t170.5 -70t70.5 -170t-70.5 -170t-170.5 -70t-170.5 70t-70.5 170zM113 219q0 -74 48 -125t117 -51q68 0 116.5 51.5t48.5 124.5t-48.5 124.5t-116.5 51.5q-69 0 -117 -51t-48 -125zM255 649l89 -141h-67l-130 141h108z" />
    <glyph glyph-name="oacute" unicode="&#xf3;" 
d="M37 219q0 100 70.5 170t170.5 70t170.5 -70t70.5 -170t-70.5 -170t-170.5 -70t-170.5 70t-70.5 170zM113 219q0 -74 48 -125t117 -51q68 0 116.5 51.5t48.5 124.5t-48.5 124.5t-116.5 51.5q-69 0 -117 -51t-48 -125zM301 649h109l-131 -141h-67z" />
    <glyph glyph-name="ocircumflex" unicode="&#xf4;" 
d="M37 219q0 100 70.5 170t170.5 70t170.5 -70t70.5 -170t-70.5 -170t-170.5 -70t-170.5 70t-70.5 170zM113 219q0 -74 48 -125t117 -51q68 0 116.5 51.5t48.5 124.5t-48.5 124.5t-116.5 51.5q-69 0 -117 -51t-48 -125zM232 649h92l100 -141h-80l-66 93l-66 -93h-79z" />
    <glyph glyph-name="otilde" unicode="&#xf5;" 
d="M37 219q0 100 70.5 170t170.5 70t170.5 -70t70.5 -170t-70.5 -170t-170.5 -70t-170.5 70t-70.5 170zM113 219q0 -74 48 -125t117 -51q68 0 116.5 51.5t48.5 124.5t-48.5 124.5t-116.5 51.5q-69 0 -117 -51t-48 -125zM399 633h49q-7 -52 -31.5 -80.5t-62.5 -28.5
q-23 0 -59 12l-25 8l-28 9q-31 10 -42 10q-34 0 -42 -46h-50q17 109 94 109q23 0 59 -12l25 -8l28 -9q31 -10 42 -10q34 0 43 46z" />
    <glyph glyph-name="odieresis" unicode="&#xf6;" 
d="M37 219q0 100 70.5 170t170.5 70t170.5 -70t70.5 -170t-70.5 -170t-170.5 -70t-170.5 70t-70.5 170zM113 219q0 -74 48 -125t117 -51q68 0 116.5 51.5t48.5 124.5t-48.5 124.5t-116.5 51.5q-69 0 -117 -51t-48 -125zM141 571q0 22 15.5 37.5t37.5 15.5t37.5 -15.5
t15.5 -37.5t-15.5 -37.5t-37.5 -15.5t-37.5 15.5t-15.5 37.5zM309 575q0 22 15.5 37.5t37.5 15.5q21 0 37 -17.5t16 -39.5q0 -21 -15.5 -35t-37.5 -14t-37.5 15.5t-15.5 37.5z" />
    <glyph glyph-name="divide" unicode="&#xf7;" horiz-adv-x="600" 
d="M544 217h-488v54h488v-54zM247 67q0 22 15.5 37.5t37.5 15.5t37.5 -15.5t15.5 -37.5t-15.5 -37.5t-37.5 -15.5t-37.5 15.5t-15.5 37.5zM247 421q0 22 15.5 37.5t37.5 15.5t37.5 -15.5t15.5 -37.5t-15.5 -37.5t-37.5 -15.5t-37.5 15.5t-15.5 37.5z" />
    <glyph glyph-name="oslash" unicode="&#xf8;" 
d="M412 419l55 63h78l-88 -102q62 -68 62 -161q0 -100 -70.5 -170t-170.5 -70q-73 0 -134 40l-60 -69h-78l93 108q-62 67 -62 161q0 100 70.5 170t170.5 70q72 0 134 -40zM188 71q40 -28 90 -28q68 0 116.5 51.5t48.5 124.5q0 57 -34 107zM367 367q-40 28 -89 28
q-69 0 -117 -51t-48 -124q0 -62 33 -108z" />
    <glyph glyph-name="ugrave" unicode="&#xf9;" 
d="M486 438v-447l-74 -12v102h-3q-25 -34 -41.5 -50t-41.5 -29q-46 -23 -104 -23q-86 0 -124 48t-38 155v256h76v-256q0 -76 23 -107.5t77 -31.5q75 0 124.5 51.5t49.5 128.5v215h76zM255 649l89 -141h-67l-130 141h108z" />
    <glyph glyph-name="uacute" unicode="&#xfa;" 
d="M486 438v-447l-74 -12v102h-3q-25 -34 -41.5 -50t-41.5 -29q-46 -23 -104 -23q-86 0 -124 48t-38 155v256h76v-256q0 -76 23 -107.5t77 -31.5q75 0 124.5 51.5t49.5 128.5v215h76zM279 649h109l-131 -141h-67z" />
    <glyph glyph-name="ucircumflex" unicode="&#xfb;" 
d="M486 438v-447l-74 -12v102h-3q-25 -34 -41.5 -50t-41.5 -29q-46 -23 -104 -23q-86 0 -124 48t-38 155v256h76v-256q0 -76 23 -107.5t77 -31.5q75 0 124.5 51.5t49.5 128.5v215h76zM220 649h92l100 -141h-80l-66 93l-66 -93h-79z" />
    <glyph glyph-name="udieresis" unicode="&#xfc;" 
d="M486 438v-447l-74 -12v102h-3q-25 -34 -41.5 -50t-41.5 -29q-46 -23 -104 -23q-86 0 -124 48t-38 155v256h76v-256q0 -76 23 -107.5t77 -31.5q75 0 124.5 51.5t49.5 128.5v215h76zM129 572q0 22 15.5 37.5t37.5 15.5t37.5 -15.5t15.5 -37.5t-15.5 -37.5t-37.5 -15.5
t-37.5 15.5t-15.5 37.5zM297 576q0 22 15.5 37.5t37.5 15.5q21 0 37 -17.5t16 -39.5q0 -21 -15.5 -35t-37.5 -14t-37.5 15.5t-15.5 37.5z" />
    <glyph glyph-name="yacute" unicode="&#xfd;" horiz-adv-x="463" 
d="M1 438h83l151 -344l155 344h71l-215 -472q-14 -34 -50 -102q-22 -40 -46 -74h-95q24 23 46 50q10 14 15 22q21 33 76 138zM254 649h109l-131 -141h-67z" />
    <glyph glyph-name="thorn" unicode="&#xfe;" 
d="M69 -210v908l76 18v-306q67 40 145 40q104 0 166.5 -61t62.5 -162q0 -110 -67.5 -179t-175.5 -69q-59 0 -131 25v-192zM145 350v-278q66 -33 124 -33q79 0 126.5 51t47.5 135q0 73 -44 119t-112 46q-65 0 -142 -40z" />
    <glyph glyph-name="ydieresis" unicode="&#xff;" horiz-adv-x="463" 
d="M1 438h83l151 -344l155 344h71l-215 -472q-14 -34 -50 -102q-22 -40 -46 -74h-95q24 23 46 50q10 14 15 22q21 33 76 138zM94 571q0 22 15.5 37.5t37.5 15.5t37.5 -15.5t15.5 -37.5t-15.5 -37.5t-37.5 -15.5t-37.5 15.5t-15.5 37.5zM262 575q0 22 15.5 37.5t37.5 15.5
q21 0 37 -17.5t16 -39.5q0 -21 -15.5 -35t-37.5 -14t-37.5 15.5t-15.5 37.5z" />
    <glyph glyph-name="dotlessi" unicode="&#x131;" horiz-adv-x="222" 
d="M73 0v432l76 18v-450h-76z" />
    <glyph glyph-name="Lslash" unicode="&#x141;" 
d="M176 74h356v-74h-440v223l-92 -81v94l92 81v387h84v-313l204 180v-94l-204 -180v-223z" />
    <glyph glyph-name="lslash" unicode="&#x142;" horiz-adv-x="222" 
d="M73 0v295l-92 -81v76l92 81v327l76 18v-278l92 81v-76l-92 -81v-362h-76z" />
    <glyph glyph-name="OE" unicode="&#x152;" horiz-adv-x="926" 
d="M841 404v-74h-286v-256h332v-74h-450q-98 0 -176 24q-103 31 -160.5 118.5t-57.5 209.5q0 154 88 248q98 104 306 104h446v-74h-328v-226h286zM471 74v556h-68q-125 0 -200.5 -76t-75.5 -202t75.5 -202t200.5 -76h68z" />
    <glyph glyph-name="oe" unicode="&#x153;" horiz-adv-x="833" 
d="M422 64q-66 -88 -173 -88q-97 0 -159 66.5t-62 170.5t62 170.5t159 66.5q55 0 99 -22q25 -13 42 -28.5t41 -48.5q35 43 63 63q52 36 119 36q85 0 137.5 -52t52.5 -137q0 -33 -9.5 -44t-38.5 -12l-288 -6v-8q0 -69 38.5 -110t102.5 -41q49 0 102 28q25 14 69 49l-10 -81
q-5 -3 -12 -8t-11.5 -7.5t-7.5 -4.5q-71 -40 -145 -40t-129 43q-20 14 -42 45zM248 36q68 0 107.5 48.5t39.5 132.5q0 81 -39 127t-109 46q-66 0 -104.5 -46.5t-38.5 -127.5q0 -82 39.5 -131t104.5 -49zM471 253l256 10q-6 127 -116 127q-55 0 -92 -36t-48 -101z" />
    <glyph glyph-name="Scaron" unicode="&#x160;" 
d="M451 680v-92q-25 17 -27 19q-73 47 -153 47q-131 0 -131 -104q0 -48 32 -78q31 -28 124 -67q104 -44 142 -75q68 -56 68 -155q0 -92 -64.5 -145.5t-176.5 -53.5q-108 0 -207 57l-10 91q108 -74 217 -74q71 0 114 34.5t43 92.5q0 57 -44 92q-27 20 -119 62
q-68 31 -94 45.5t-48 31.5q-61 50 -61 139q0 84 58 132.5t158 48.5q84 0 179 -48zM232 753l-99 141h79l66 -93l66 93h80l-100 -141h-92z" />
    <glyph glyph-name="scaron" unicode="&#x161;" horiz-adv-x="444" 
d="M46 35l10 74q37 -27 67 -41q53 -25 105 -25q48 0 75 17.5t27 48.5q0 27 -23 44q-20 14 -90 36q-87 27 -124 56q-39 33 -39 88q0 57 41.5 91.5t111.5 34.5q80 0 169 -44l-13 -69q-90 53 -157 53q-38 0 -59 -15t-21 -42q0 -26 21 -43q20 -17 95 -42q87 -29 118 -52
q42 -31 42 -89q0 -64 -45.5 -100.5t-124.5 -36.5q-42 0 -84 11q-43 12 -102 45zM176 508l-99 141h79l66 -93l66 93h80l-100 -141h-92z" />
    <glyph glyph-name="Ydieresis" unicode="&#x178;" horiz-adv-x="667" 
d="M368 0h-84v306l-296 398h100l241 -326l254 326h95l-310 -398v-306zM189 816q0 22 15.5 37.5t37.5 15.5t37.5 -15.5t15.5 -37.5t-15.5 -37.5t-37.5 -15.5t-37.5 15.5t-15.5 37.5zM357 820q0 22 15.5 37.5t37.5 15.5q21 0 37 -17.5t16 -39.5q0 -21 -15.5 -35t-37.5 -14
t-37.5 15.5t-15.5 37.5z" />
    <glyph glyph-name="Zcaron" unicode="&#x17d;" horiz-adv-x="611" 
d="M72 704h519l-448 -630h445l-13 -74h-580l448 630h-383zM273 753l-99 141h79l66 -93l66 93h80l-100 -141h-92z" />
    <glyph glyph-name="zcaron" unicode="&#x17e;" horiz-adv-x="444" 
d="M40 438h387l-288 -378h285l-12 -60h-413l288 378h-259zM176 508l-99 141h79l66 -93l66 93h80l-100 -141h-92z" />
    <glyph glyph-name="florin" unicode="&#x192;" 
d="M102 370v60h150q3 30 6 44q17 112 44 165q44 89 148 89q43 0 88 -17l-15 -68q-46 29 -77 29q-92 0 -113 -182l-7 -60h154v-60h-161l-32 -296q-13 -118 -44 -180q-45 -86 -149 -86q-47 0 -86 20l22 62q37 -22 73 -22q48 0 70 38t34 141l37 323h-142z" />
    <glyph glyph-name="circumflex" unicode="&#x2c6;" horiz-adv-x="222" 
d="M65 649h92l100 -141h-80l-66 93l-66 -93h-79z" />
    <glyph glyph-name="caron" unicode="&#x2c7;" horiz-adv-x="222" 
d="M65 508l-99 141h79l66 -93l66 93h80l-100 -141h-92z" />
    <glyph glyph-name="breve" unicode="&#x2d8;" horiz-adv-x="222" 
d="M-43 648h49q10 -41 34.5 -58.5t70.5 -17.5t70.5 17.5t34.5 58.5h49q-13 -135 -154 -135t-154 135z" />
    <glyph glyph-name="dotaccent" unicode="&#x2d9;" horiz-adv-x="222" 
d="M58 571q0 22 15.5 37.5t37.5 15.5t37.5 -15.5t15.5 -37.5t-15.5 -37.5t-37.5 -15.5t-37.5 15.5t-15.5 37.5z" />
    <glyph glyph-name="ring" unicode="&#x2da;" horiz-adv-x="222" 
d="M8 605q0 43 30 73t73 30t73 -30t30 -73t-30 -73t-73 -30t-73 30t-30 73zM52 605q0 -25 17 -42t42 -17t42 17t17 42t-17 42t-42 17t-42 -17t-17 -42z" />
    <glyph glyph-name="ogonek" unicode="&#x2db;" horiz-adv-x="222" 
d="M207 11v-25q-122 -46 -122 -109q0 -18 12.5 -29t32.5 -11q28 0 76 26l21 -37q-74 -52 -131 -52q-40 0 -63 23t-23 63q0 117 197 151z" />
    <glyph glyph-name="tilde" unicode="&#x2dc;" horiz-adv-x="222" 
d="M232 633h49q-7 -52 -31.5 -80.5t-62.5 -28.5q-23 0 -59 12l-25 8l-28 9q-31 10 -42 10q-34 0 -42 -46h-50q17 109 94 109q23 0 59 -12l25 -8l28 -9q31 -10 42 -10q34 0 43 46z" />
    <glyph glyph-name="hungarumlaut" unicode="&#x2dd;" horiz-adv-x="222" 
d="M57 649h102l-94 -147h-64zM198 649h109l-131 -141h-67z" />
    <glyph glyph-name="pi" unicode="&#x3c0;" horiz-adv-x="611" 
d="M578 511v-67h-71v-328v-7q0 -25 9.5 -35t33.5 -10q8 0 28 3v-67q-31 -5 -54 -5q-93 0 -93 102v347h-258v-444h-76v444h-69v67h550z" />
    <glyph glyph-name="endash" unicode="&#x2013;" horiz-adv-x="600" 
d="M544 217h-488v54h488v-54z" />
    <glyph glyph-name="emdash" unicode="&#x2014;" horiz-adv-x="1000" 
d="M0 191v56h1000v-56h-1000z" />
    <glyph glyph-name="quoteleft" unicode="&#x2018;" horiz-adv-x="278" 
d="M158 728h72l-90 -252h-92z" />
    <glyph glyph-name="quoteright" unicode="&#x2019;" horiz-adv-x="278" 
d="M158 728h72l-90 -252h-92z" />
    <glyph glyph-name="quotesinglbase" unicode="&#x201a;" horiz-adv-x="278" 
d="M140 90h72l-90 -252h-92z" />
    <glyph glyph-name="quotedblleft" unicode="&#x201c;" horiz-adv-x="500" 
d="M158 728h72l-90 -252h-92zM380 728h72l-90 -252h-92z" />
    <glyph glyph-name="quotedblright" unicode="&#x201d;" horiz-adv-x="500" 
d="M158 728h72l-90 -252h-92zM380 728h72l-90 -252h-92z" />
    <glyph glyph-name="quotedblbase" unicode="&#x201e;" horiz-adv-x="500" 
d="M140 90h72l-90 -252h-92zM362 90h72l-90 -252h-92z" />
    <glyph glyph-name="dagger" unicode="&#x2020;" horiz-adv-x="500" 
d="M234 -80q-1 117 -5 181q-5 106 -16 194l-3 29q8 35 15 84q5 45 9 87l-158 -22v76l158 -23l-22 202h76l-22 -202l158 23v-76l-158 22q4 -42 9 -87q7 -49 15 -84l-3 -29q-11 -88 -16 -194q-4 -64 -5 -181h-32z" />
    <glyph glyph-name="daggerdbl" unicode="&#x2021;" horiz-adv-x="500" 
d="M234 495l-158 -22v76l158 -23l-22 202h76l-22 -202l158 23v-76l-158 22q4 -42 9 -87q7 -49 15 -84q-8 -35 -15 -84q-5 -45 -9 -87l158 22v-76l-158 23l22 -202h-76l22 202l-158 -23v76l158 -22q-4 42 -9 87q-7 49 -15 84q8 35 15 84q5 45 9 87z" />
    <glyph glyph-name="bullet" unicode="&#x2022;" horiz-adv-x="444" 
d="M46 352q0 73 51.5 124.5t124.5 51.5t124.5 -51.5t51.5 -124.5t-51.5 -124.5t-124.5 -51.5t-124.5 51.5t-51.5 124.5z" />
    <glyph glyph-name="ellipsis" unicode="&#x2026;" horiz-adv-x="1000" 
d="M114 37q0 22 15.5 37.5t37.5 15.5t37.5 -15.5t15.5 -37.5t-15.5 -37.5t-37.5 -15.5t-37.5 15.5t-15.5 37.5zM447 37q0 22 15.5 37.5t37.5 15.5t37.5 -15.5t15.5 -37.5t-15.5 -37.5t-37.5 -15.5t-37.5 15.5t-15.5 37.5zM780 37q0 22 15.5 37.5t37.5 15.5t37.5 -15.5
t15.5 -37.5t-15.5 -37.5t-37.5 -15.5t-37.5 15.5t-15.5 37.5z" />
    <glyph glyph-name="perthousand" unicode="&#x2030;" horiz-adv-x="1074" 
d="M45 555q0 61 43.5 105t105.5 44t105.5 -44t43.5 -105t-43.5 -105t-105.5 -44t-105.5 44t-43.5 105zM178 -24h-57l410 752h57zM365 149q0 61 43.5 105t105.5 44t105.5 -44t43.5 -105t-43.5 -105t-105.5 -44t-105.5 44t-43.5 105zM731 149q0 61 43.5 105t105.5 44
t105.5 -44t43.5 -105t-43.5 -105t-105.5 -44t-105.5 44t-43.5 105zM101 555q0 -38 27.5 -65.5t65.5 -27.5q39 0 66 27.5t27 65.5t-27 65.5t-66 27.5q-38 0 -65.5 -27.5t-27.5 -65.5zM421 149q0 -38 27.5 -65.5t65.5 -27.5t65.5 27.5t27.5 65.5t-27.5 65.5t-65.5 27.5
t-65.5 -27.5t-27.5 -65.5zM787 149q0 -38 27.5 -65.5t65.5 -27.5t65.5 27.5t27.5 65.5t-27.5 65.5t-65.5 27.5t-65.5 -27.5t-27.5 -65.5z" />
    <glyph glyph-name="guilsinglleft" unicode="&#x2039;" horiz-adv-x="296" 
d="M168 372h76l-120 -150l124 -156h-76l-124 156z" />
    <glyph glyph-name="guilsinglright" unicode="&#x203a;" horiz-adv-x="296" 
d="M128 66h-76l120 150l-124 156h76l124 -156z" />
    <glyph glyph-name="fraction" unicode="&#x2044;" horiz-adv-x="167" 
d="M-167 -24l443 752h57l-442 -752h-58z" />
    <glyph glyph-name="trademark" unicode="&#x2122;" horiz-adv-x="889" 
d="M149 282v366h-129v56h322v-56h-129v-366h-64zM393 282v422h95l107 -327l107 327h95v-422h-60v362l-117 -362h-50l-117 362v-362h-60z" />
    <glyph glyph-name="Omega" unicode="&#x2126;" horiz-adv-x="722" 
d="M302 74v-74h-262v74h169q-33 23 -49 37.5t-36 40.5q-78 102 -78 238q0 148 89 243t226 95q138 0 226.5 -95t88.5 -243q0 -65 -20 -128q-39 -117 -143 -188h169v-74h-262v74q44 34 64.5 53t40.5 47q34 45 53.5 103.5t19.5 114.5q0 118 -65 190t-172 72t-172 -72t-65 -190
q0 -56 19.5 -114.5t53.5 -103.5q31 -43 105 -100z" />
    <glyph glyph-name="partialdiff" unicode="&#x2202;" 
d="M405 333q1 25 1 51q0 117 -31 192t-79 75q-23 0 -57 -27l-63 72q50 32 105 32q95 0 152 -94.5t57 -252.5q0 -177 -74.5 -291t-190.5 -114q-80 0 -132.5 59t-52.5 149q0 100 63 172.5t149 72.5q104 0 153 -96zM241 50q53 0 94 51.5t41 119.5q0 59 -32 96.5t-82 37.5
q-56 0 -97 -50.5t-41 -118.5q0 -61 32 -98.5t85 -37.5z" />
    <glyph glyph-name="Delta" unicode="&#x2206;" horiz-adv-x="722" 
d="M409 728l299 -728h-694l299 728h96zM127 74h468l-234 570z" />
    <glyph glyph-name="product" unicode="&#x220f;" horiz-adv-x="741" 
d="M41 704h659v-74h-65v-630h-84v630h-361v-630h-84v630h-65v74z" />
    <glyph glyph-name="summation" unicode="&#x2211;" horiz-adv-x="593" 
d="M37 0v74l279 285l-267 271v74h491v-74h-378l267 -271l-279 -285h405v-74h-518z" />
    <glyph glyph-name="minus" unicode="&#x2212;" horiz-adv-x="500" 
d="M0 191v56h500v-56h-500z" />
    <glyph glyph-name="radical" unicode="&#x221a;" 
d="M326 -24h-63l-152 444l-93 -56l-26 49l171 98l136 -407l279 821h71z" />
    <glyph glyph-name="infinity" unicode="&#x221e;" horiz-adv-x="600" 
d="M300 190q-18 -31 -39 -57q-39 -44 -94 -44q-56 0 -95.5 45.5t-39.5 109.5t39.5 109t95.5 45t94 -43q19 -22 39 -57q20 34 39 57q38 43 94 43t95.5 -45t39.5 -109t-39.5 -109.5t-95.5 -45.5q-55 0 -94 44q-19 22 -39 57zM269 244q-17 42 -45.5 69t-55.5 27
q-33 0 -54.5 -27t-21.5 -69t21.5 -69t54.5 -27q27 0 55.5 27t45.5 69zM331 244q18 -43 46 -69.5t55 -26.5q33 0 54.5 27t21.5 69t-21.5 69t-54.5 27q-27 0 -55.5 -27t-45.5 -69z" />
    <glyph glyph-name="integral" unicode="&#x222b;" 
d="M461 714l-7 -76q-32 16 -58 16q-40 0 -57 -37.5t-22 -137.5l-1 -24l-25 -410q-8 -135 -42 -191q-41 -65 -122 -65q-27 0 -64 15l7 76q31 -16 58 -16q40 0 57 37.5t22 137.5l1 24l25 410q8 135 42 191q41 65 122 65q27 0 64 -15z" />
    <glyph glyph-name="approxequal" unicode="&#x2248;" horiz-adv-x="600" 
d="M56 285v53q65 58 131 58q38 0 99 -26l28 -12q60 -27 99 -27q67 0 131 58v-53q-65 -59 -131 -59q-36 0 -99 27l-28 12q-60 27 -99 27q-66 0 -131 -58zM56 99v53q65 58 131 58q38 0 99 -26l28 -12q60 -27 99 -27q67 0 131 58v-53q-65 -59 -131 -59q-36 0 -99 27l-28 12
q-60 27 -99 27q-66 0 -131 -58z" />
    <glyph glyph-name="notequal" unicode="&#x2260;" horiz-adv-x="600" 
d="M56 124v54h189l55 132h-244v54h266l51 124h56l-51 -124h166v-54h-189l-55 -132h244v-54h-266l-51 -124h-56l51 124h-166z" />
    <glyph glyph-name="lessequal" unicode="&#x2264;" horiz-adv-x="600" 
d="M544 71l-488 191v35l488 191v-53l-398 -155l398 -156v-53zM56 0v53h488v-53h-488z" />
    <glyph glyph-name="greaterequal" unicode="&#x2265;" horiz-adv-x="600" 
d="M56 71v53l398 156l-398 155v53l488 -191v-35zM56 0v53h488v-53h-488z" />
    <glyph glyph-name="lozenge" unicode="&#x25ca;" horiz-adv-x="500" 
d="M33 352l217 376l217 -376l-217 -376zM107 352l143 -248l143 248l-143 248z" />
    <glyph glyph-name="apple" unicode="&#xf8ff;" horiz-adv-x="833" 
d="M608 763q2 -14 2 -27q0 -39 -18 -81.5t-49 -75.5q-21 -22 -46 -38q-33 -19 -87 -20q2 27 3 42q10 72 58 127q51 58 137 73zM808 437q-108 -83 -108 -195q0 -71 36.5 -127t100.5 -81q-26 -72 -72 -144q-42 -66 -78.5 -95t-79.5 -29q-27 0 -83 19q-52 19 -92 19
q-29 0 -53 -9l-57 -21q-26 -10 -55 -10q-63 0 -125 79q-67 85 -104.5 185.5t-37.5 196.5q0 136 67.5 221.5t174.5 85.5q41 0 120 -23q43 -13 66 -13q25 0 90 22q57 19 100 19q117 0 190 -100z" />
    <glyph glyph-name="fi" unicode="&#xfb01;" horiz-adv-x="555" 
d="M14 378v60h92v15q0 106 18 159.5t65 85.5l133 18v-32q-71 -16 -104 -54q-36 -44 -36 -133v-59h126v-60h-126v-378h-76v378h-92zM406 0v432l76 18v-450h-76zM391 603q0 22 15.5 37.5t37.5 15.5t37.5 -15.5t15.5 -37.5t-15.5 -37.5t-37.5 -15.5t-37.5 15.5t-15.5 37.5z" />
    <glyph glyph-name="fl" unicode="&#xfb02;" horiz-adv-x="555" 
d="M14 378v60h92v15q0 106 18 159.5t65 85.5l133 18v-32q-71 -16 -104 -54q-36 -44 -36 -133v-59h126v-60h-126v-378h-76v378h-92zM406 0v698l76 18v-716h-76z" />
    </font>
</defs>
</svg>
