<?xml version="1.0" standalone="no"?>
<!DOCTYPE svg PUBLIC "-//W3C//DTD SVG 1.1//EN" "http://www.w3.org/Graphics/SVG/1.1/DTD/svg11.dtd" >
<svg>
<metadata>
Created by FontForge 20110222 at Sat Jun  1 11:14:04 2013
 By Orthosie Webhosting
Copyright (c) Emigre Inc, 2009. Designed by Zuzana Licko. All rights reserved.
</metadata>
<defs>
<font id="MrEavesSanOTBold" horiz-adv-x="525" >
  <font-face 
    font-family="MrEavesSanOTBold"
    font-weight="700"
    font-stretch="normal"
    units-per-em="1000"
    panose-1="2 11 8 3 6 5 2 2 2 2"
    ascent="800"
    descent="-200"
    x-height="341"
    cap-height="600"
    bbox="-143 -267 969 864"
    underline-thickness="30"
    underline-position="-70"
    unicode-range="U+0020-FB02"
  />
<missing-glyph horiz-adv-x="500" 
 />
    <glyph glyph-name="fi" unicode="fi" horiz-adv-x="519" 
d="M272 269h-84v-269h-112v269h-61v72h61v129q0 73 39 108t108 35q26 0 47 -7v-72q-20 5 -27 5q-28 0 -41.5 -16t-13.5 -54v-128h84v-72zM464 497q0 -25 -18 -43t-42 -18q-25 0 -42.5 18t-17.5 43t17.5 42.5t42.5 17.5q24 0 42 -17.5t18 -42.5zM460 0h-112v341l112 12v-353z
" />
    <glyph glyph-name="fl" unicode="fl" horiz-adv-x="532" 
d="M348 520q-38 18 -77 18q-41 0 -62 -20t-21 -68v-109h84v-72h-84v-269h-112v269h-61v72h61v95q0 89 48 133.5t130 44.5q48 0 96 -16l110 15v-533q0 -33 21 -33q9 0 21 4v-42q-22 -18 -64 -18q-90 0 -90 88v441z" />
    <glyph glyph-name=".notdef" horiz-adv-x="500" 
 />
    <glyph glyph-name=".null" horiz-adv-x="0" 
 />
    <glyph glyph-name="nonmarkingreturn" horiz-adv-x="333" 
 />
    <glyph glyph-name="space" unicode=" " horiz-adv-x="173" 
 />
    <glyph glyph-name="exclam" unicode="!" horiz-adv-x="265" 
d="M206 600l-40 -422h-67l-39 422h146zM197 57q0 -27 -19 -46t-46 -19t-46 19t-19 46t19 46t46 19t46 -19t19 -46z" />
    <glyph glyph-name="quotedbl" unicode="&#x22;" horiz-adv-x="414" 
d="M356 555q0 -14 -18.5 -69.5t-23.5 -117.5h-36q-5 62 -23.5 117.5t-18.5 69.5q0 25 18 43.5t42 18.5q25 0 42.5 -18t17.5 -44zM177 555q0 -14 -18.5 -69.5t-23.5 -117.5h-36q-5 62 -23.5 117.5t-18.5 69.5q0 25 18 43.5t42 18.5q25 0 42.5 -18t17.5 -44z" />
    <glyph glyph-name="numbersign" unicode="#" horiz-adv-x="449" 
d="M429 473l-12 -65h-72l-21 -121h74l-12 -65h-73l-22 -128h-62l22 128h-97l-22 -128h-62l22 128h-73l12 65h72l20 121h-73l12 65h72l22 127h62l-21 -127h96l22 127h62l-21 -127h73zM282 408h-96l-21 -121h97z" />
    <glyph glyph-name="dollar" unicode="$" horiz-adv-x="486" 
d="M451 181q0 -83 -51.5 -128.5t-130.5 -52.5v-86h-47v85q-61 3 -112 24t-79 47l24 91q76 -66 167 -75v176q-93 26 -135 69t-42 108q0 69 48 113t129 49v82h47v-82q45 -4 86.5 -19.5t66.5 -34.5l-23 -82q-63 39 -130 48v-145q94 -26 138 -70.5t44 -116.5zM222 381v133
q-34 -4 -53 -21.5t-19 -44.5q0 -44 72 -67zM269 248v-161q34 5 55.5 27t21.5 54q0 55 -77 80z" />
    <glyph glyph-name="percent" unicode="%" horiz-adv-x="684" 
d="M321 466q0 -64 -39.5 -107t-100.5 -43q-60 0 -99.5 43t-39.5 107q0 63 39.5 106t99.5 43q61 0 100.5 -42.5t39.5 -106.5zM241 466q0 87 -60 87q-59 0 -59 -87q0 -88 59 -88q60 0 60 88zM642 138q0 -64 -39.5 -107t-100.5 -43q-60 0 -99.5 43t-39.5 107q0 63 39.5 106
t99.5 43q61 0 100.5 -42.5t39.5 -106.5zM562 138q0 87 -60 87q-59 0 -59 -87q0 -88 59 -88q60 0 60 88zM553 598l-384 -616l-39 20l383 616z" />
    <glyph glyph-name="ampersand" unicode="&#x26;" horiz-adv-x="664" 
d="M668 54q-46 -70 -121 -70t-138 47q-57 -47 -143 -47q-92 0 -156.5 45.5t-64.5 127.5q0 91 112 162q-48 85 -48 145q0 65 53.5 109t129.5 44q70 0 115.5 -37.5t45.5 -92.5q0 -14 -2.5 -27.5t-10 -25.5t-13 -21.5t-19 -21t-20.5 -18t-25 -18t-24.5 -15.5t-27.5 -16.5
t-26 -15.5q55 -75 116 -135q16 40 16 140h177v-72h-94q-4 -81 -33 -136q51 -46 96 -46q38 0 71 39zM355 487q0 25 -18 40.5t-46 15.5q-38 0 -58 -23t-20 -55q0 -44 29 -96q38 22 58 35.5t37.5 36t17.5 46.5zM346 87q-84 80 -142 163q-46 -39 -46 -88q0 -43 32 -72t84 -29
q43 0 72 26z" />
    <glyph glyph-name="quotesingle" unicode="'" horiz-adv-x="237" 
d="M177 555q0 -14 -18.5 -69.5t-23.5 -117.5h-36q-5 62 -23.5 117.5t-18.5 69.5q0 25 18 43.5t42 18.5q25 0 42.5 -18t17.5 -44z" />
    <glyph glyph-name="parenleft" unicode="(" horiz-adv-x="335" 
d="M310 -86l-31 -25q-205 168 -205 406t204 406l32 -25q-147 -165 -147 -381t147 -381z" />
    <glyph glyph-name="parenright" unicode=")" horiz-adv-x="335" 
d="M261 295q0 -239 -204 -406l-31 25q147 165 147 381t-147 381l32 25q203 -168 203 -406z" />
    <glyph glyph-name="asterisk" unicode="*" horiz-adv-x="407" 
d="M366 336q-10 -18 -30 -22.5t-37 6.5q-12 7 -33 35.5t-48 48.5q4 -33 18 -64.5t14 -45.5q0 -21 -13 -36.5t-33 -15.5t-33.5 15.5t-13.5 36.5q0 13 14.5 45t18.5 65q-27 -19 -48 -47.5t-33 -35.5q-17 -11 -37 -6.5t-30 21.5t-4 36.5t24 30.5q11 6 46 9.5t67 16.5
q-32 14 -66.5 17.5t-45.5 10.5q-18 11 -24.5 30t3.5 36q10 18 30 22.5t37 -6.5q12 -7 33 -36t48 -49q-4 33 -18 65.5t-14 46.5q0 21 13 36t33 15t33.5 -15t13.5 -36q0 -15 -14.5 -47t-18.5 -64q27 20 48 48t33 35q17 11 37 7t30 -22q10 -17 4 -36.5t-24 -30.5
q-11 -6 -46.5 -9.5t-67.5 -17.5q31 -13 66 -16.5t47 -10.5q18 -11 24.5 -30t-3.5 -36z" />
    <glyph glyph-name="plus" unicode="+" horiz-adv-x="454" 
d="M406 195h-145v-146h-67v146h-146v67h146v145h67v-145h145v-67z" />
    <glyph glyph-name="comma" unicode="," horiz-adv-x="254" 
d="M193 46q0 -47 -29 -97.5t-83 -83.5l-25 25q33 35 48 57.5t20 51.5h-5q-25 1 -42 19t-17 44t19 44.5t45 18.5q28 0 48.5 -21t20.5 -58z" />
    <glyph glyph-name="hyphen" unicode="-" horiz-adv-x="297" 
d="M253 167h-209v76h209v-76z" />
    <glyph glyph-name="period" unicode="." horiz-adv-x="254" 
d="M195 60q0 -28 -19.5 -48t-48.5 -20t-48.5 20t-19.5 48t20 47.5t48 19.5t48 -19.5t20 -47.5z" />
    <glyph glyph-name="slash" unicode="/" horiz-adv-x="339" 
d="M332 603l-282 -621l-43 15l282 622z" />
    <glyph glyph-name="zero" unicode="0" horiz-adv-x="564" 
d="M528 216q0 -102 -71.5 -167t-173.5 -65q-104 0 -175.5 65t-71.5 167q0 101 72 166.5t175 65.5q102 0 173.5 -65.5t71.5 -166.5zM411 216q0 69 -36 108.5t-92 39.5q-58 0 -94 -39.5t-36 -108.5q0 -70 36 -109t94 -39q56 0 92 39.5t36 108.5z" />
    <glyph glyph-name="one" unicode="1" horiz-adv-x="300" 
d="M213 0h-116v338h-64v75l180 32v-445z" />
    <glyph glyph-name="two" unicode="2" horiz-adv-x="485" 
d="M443 0h-401v76l161 104q55 36 80 60.5t25 52.5q0 62 -84 62q-85 0 -169 -67v101q29 23 81.5 41t100.5 18q84 0 138 -38t54 -102q0 -90 -114 -153l-110 -62h238v-93z" />
    <glyph glyph-name="three" unicode="3" horiz-adv-x="485" 
d="M447 7q0 -94 -64.5 -151.5t-161.5 -57.5q-54 0 -103 17.5t-79 44.5v99q78 -73 167 -73q56 0 90.5 34t34.5 89q0 49 -27.5 79.5t-77.5 30.5q-46 0 -84 -34l-49 54l192 198h-244v95h398v-56l-171 -177q79 -5 129 -56t50 -136z" />
    <glyph glyph-name="four" unicode="4" horiz-adv-x="548" 
d="M524 0h-109v-195h-116v195h-276v62l297 379h95v-355h109v-86zM299 86v205l-161 -205h161z" />
    <glyph glyph-name="five" unicode="5" horiz-adv-x="480" 
d="M446 10q0 -96 -64 -154t-161 -58q-54 0 -103 17.5t-79 44.5v99q75 -73 167 -73q55 0 89 33.5t34 87.5q0 50 -28.5 80t-79.5 30q-75 0 -107 -64l-54 27v352h362v-95h-268v-165q36 33 101 33q84 0 137.5 -53.5t53.5 -141.5z" />
    <glyph glyph-name="six" unicode="6" 
d="M488 188q0 -89 -62.5 -147t-154.5 -58q-32 0 -61 6.5t-60 26t-54 50t-37.5 82t-14.5 119.5q0 164 68.5 257.5t196.5 93.5q44 0 83 -12.5t60 -27.5v-91q-65 42 -132 42q-149 0 -158 -194q19 22 58 38t78 16q83 0 136.5 -57t53.5 -144zM274 306q-37 0 -68 -17.5t-46 -42.5
q-2 -181 108 -181q47 0 75 33t28 87q0 56 -25.5 88.5t-71.5 32.5z" />
    <glyph glyph-name="seven" unicode="7" horiz-adv-x="458" 
d="M435 377q-47 -68 -126 -256.5t-100 -315.5h-125q26 123 106 301.5t116 230.5h-293v95h422v-55z" />
    <glyph glyph-name="eight" unicode="8" horiz-adv-x="540" 
d="M501 164q0 -81 -65.5 -131t-164.5 -50t-165.5 50t-66.5 131q0 61 38 105t102 65q-104 40 -104 137q0 65 57.5 107t138.5 42q79 0 136.5 -42.5t57.5 -106.5q0 -97 -104 -137q64 -21 102 -65t38 -105zM356 470q0 33 -24.5 53.5t-60.5 20.5q-38 0 -62 -20.5t-24 -53.5
q0 -68 86 -95q85 28 85 95zM384 165q0 90 -113 122q-115 -32 -115 -122q0 -43 32.5 -72t82.5 -29q49 0 81 29t32 72z" />
    <glyph glyph-name="nine" unicode="9" 
d="M481 165q0 -165 -69 -265t-196 -100q-44 0 -83.5 12.5t-59.5 27.5v91q65 -42 132 -42q69 0 111 52t46 156q-18 -22 -57 -38t-78 -16q-84 0 -137.5 57t-53.5 144q0 89 63 147t155 58q32 0 61 -6.5t60 -26t54 -50t37.5 -82t14.5 -119.5zM364 186q4 181 -107 181
q-48 0 -75.5 -33t-27.5 -87q0 -56 25 -88.5t72 -32.5q37 0 67.5 17t45.5 43z" />
    <glyph glyph-name="colon" unicode=":" horiz-adv-x="254" 
d="M192 276q0 -27 -19 -46t-46 -19t-46 19t-19 46t19 46t46 19t46 -19t19 -46zM192 57q0 -27 -19 -46t-46 -19t-46 19t-19 46t19 46t46 19t46 -19t19 -46z" />
    <glyph glyph-name="semicolon" unicode=";" horiz-adv-x="254" 
d="M191 44q0 -45 -27.5 -94t-79.5 -82l-25 25q32 33 47 55.5t19 50.5h-5q-23 1 -39.5 19t-16.5 42t18 42t43 18q27 0 46.5 -20t19.5 -56zM192 276q0 -27 -19 -46t-46 -19t-46 19t-19 46t19 46t46 19t46 -19t19 -46z" />
    <glyph glyph-name="less" unicode="&#x3c;" horiz-adv-x="454" 
d="M402 63l-34 -50l-314 217l314 218l34 -50l-233 -168z" />
    <glyph glyph-name="equal" unicode="=" horiz-adv-x="454" 
d="M373 264h-292v67h292v-67zM373 126h-292v67h292v-67z" />
    <glyph glyph-name="greater" unicode="&#x3e;" horiz-adv-x="454" 
d="M87 448l314 -218l-314 -217l-35 50l234 167l-234 168z" />
    <glyph glyph-name="question" unicode="?" horiz-adv-x="444" 
d="M416 460q0 -65 -42.5 -109t-122.5 -82l-32 -15l-10 -76h-68l-10 126l46 22q68 32 93 61t25 65q0 37 -26.5 56.5t-69.5 19.5q-42 0 -91.5 -21.5t-84.5 -54.5v101q31 28 84.5 46t105.5 18q86 0 144.5 -40t58.5 -117zM240 57q0 -27 -19 -46t-46 -19t-46 19t-19 46t19 46
t46 19t46 -19t19 -46z" />
    <glyph glyph-name="at" unicode="@" horiz-adv-x="706" 
d="M674 243q0 -97 -62 -172.5t-131 -75.5q-55 0 -72 48q-40 -51 -96 -51q-63 0 -93.5 54t-16.5 133q14 76 69 130t121 54q34 0 64 -17h69l-44 -250q-5 -29 1 -42t25 -13q40 0 77.5 58.5t37.5 141.5q0 95 -67.5 154t-160.5 59q-118 0 -202.5 -88t-84.5 -207q0 -120 75 -192.5
t186 -72.5q112 0 215 64l16 -31q-107 -77 -239 -77q-138 0 -232.5 88t-94.5 218q0 145 104.5 248t251.5 103q121 0 202.5 -73.5t81.5 -190.5zM444 295q-20 18 -50 18q-40 0 -69.5 -37t-40.5 -99q-22 -129 52 -129q26 0 49.5 24t30.5 61z" />
    <glyph glyph-name="A" unicode="A" horiz-adv-x="622" 
d="M613 0h-122l-61 148h-243l-61 -148h-118l255 600h95zM397 233l-88 218l-89 -218h177z" />
    <glyph glyph-name="B" unicode="B" horiz-adv-x="543" 
d="M512 176q0 -78 -50.5 -127t-152.5 -49h-243v600h233q92 0 136.5 -43.5t44.5 -113.5q0 -33 -18.5 -66t-45.5 -52q44 -19 70 -60t26 -89zM394 180q0 43 -26 68.5t-80 25.5h-100v-189h100q54 0 80 26t26 69zM188 515v-156h91q44 0 65 21.5t21 56.5t-21 56.5t-65 21.5h-91z
" />
    <glyph glyph-name="C" unicode="C" horiz-adv-x="611" 
d="M568 48q-80 -61 -209 -61q-135 0 -228.5 86t-93.5 227t93.5 227t228.5 86q129 0 209 -61v-111q-85 74 -196 74q-91 0 -149 -58t-58 -157t58 -157t149 -58q111 0 196 74v-111z" />
    <glyph glyph-name="D" unicode="D" horiz-adv-x="655" 
d="M618 300q0 -133 -85 -216.5t-256 -83.5h-211v600h211q171 0 256 -83.5t85 -216.5zM493 300q0 202 -222 202h-83v-404h83q222 0 222 202z" />
    <glyph glyph-name="E" unicode="E" horiz-adv-x="505" 
d="M457 0h-391v600h391v-95h-269v-141h219v-95h-219v-174h269v-95z" />
    <glyph glyph-name="F" unicode="F" horiz-adv-x="462" 
d="M450 505h-262v-145h212v-94h-212v-266h-122v600h384v-95z" />
    <glyph glyph-name="G" unicode="G" horiz-adv-x="668" 
d="M602 42q-2 -1 -15.5 -6.5t-21 -8.5t-25 -9.5t-30.5 -10.5t-33 -9t-38 -8t-40 -5t-43 -2q-134 0 -226.5 87.5t-92.5 229.5q0 141 95.5 227t231.5 86q60 0 118 -16.5t95 -44.5v-111q-88 74 -201 74q-95 0 -153.5 -59t-58.5 -161q0 -100 57 -160t148 -60q68 0 116 25v117
h-106v90h223v-265z" />
    <glyph glyph-name="H" unicode="H" horiz-adv-x="659" 
d="M593 0h-122v265h-283v-265h-122v600h122v-232h283v232h122v-600z" />
    <glyph glyph-name="I" unicode="I" horiz-adv-x="254" 
d="M188 0h-122v600h122v-600z" />
    <glyph glyph-name="J" unicode="J" horiz-adv-x="254" 
d="M188 -41q0 -71 -37.5 -114.5t-109.5 -43.5q-62 0 -97 33v77q10 -9 30 -17.5t34 -8.5q32 0 45 18.5t13 67.5v629h122v-641z" />
    <glyph glyph-name="K" unicode="K" horiz-adv-x="602" 
d="M611 0h-149l-230 260l-44 -47v-213h-122v600h122v-266l250 266h133l-258 -268z" />
    <glyph glyph-name="L" unicode="L" horiz-adv-x="469" 
d="M457 0h-391v600h122v-505h269v-95z" />
    <glyph glyph-name="M" unicode="M" horiz-adv-x="784" 
d="M717 0h-111v368q0 41 4 57l-22 -57l-161 -368h-75l-161 368q-9 21 -21 57l2 -25q1 -24 1 -32v-368h-107v600h130l198 -439l197 439h126v-600z" />
    <glyph glyph-name="N" unicode="N" horiz-adv-x="641" 
d="M574 0h-85l-314 396v-396h-109v600h85l314 -396v396h109v-600z" />
    <glyph glyph-name="O" unicode="O" horiz-adv-x="726" 
d="M688 300q0 -137 -93 -227t-231 -90q-139 0 -233 90t-94 227t94 227t233 90q138 0 231 -90t93 -227zM560 300q0 98 -54 159t-142 61q-90 0 -144.5 -61t-54.5 -159t54.5 -159t144.5 -61q88 0 142 61t54 159z" />
    <glyph glyph-name="P" unicode="P" horiz-adv-x="516" 
d="M502 409q0 -83 -52.5 -137t-155.5 -54h-106v-218h-122v600h228q103 0 155.5 -54t52.5 -137zM381 409q0 46 -25.5 75t-81.5 29h-86v-208h86q56 0 81.5 28.5t25.5 75.5z" />
    <glyph glyph-name="Q" unicode="Q" horiz-adv-x="726" 
d="M829 -79q-1 -72 -44 -128.5t-125 -56.5q-38 0 -75 15t-67 37t-58.5 44t-61.5 37t-65 15q-67 0 -128 -57l-48 43q14 27 47 64t71 60q-106 27 -172 110t-66 196q0 137 94 227t233 90q138 0 231 -90t93 -227q0 -130 -83 -216.5t-206 -99.5q-48 -5 -86 -33q51 8 97.5 -1
t80 -27.5t63.5 -37.5t61.5 -33.5t60.5 -14.5q35 0 57 22.5t30 61.5h66zM560 300q0 98 -54 159t-142 61q-90 0 -144.5 -61t-54.5 -159t54.5 -159t144.5 -61q88 0 142 61t54 159z" />
    <glyph glyph-name="R" unicode="R" horiz-adv-x="580" 
d="M566 4q-36 -11 -71 -11q-115 0 -173 118l-64 128h-70v-239h-122v600h236q101 0 152 -51.5t51 -129.5q0 -65 -35 -110.5t-97 -59.5l59 -103q22 -38 45 -54t55 -16q19 0 34 5v-77zM188 513v-188h94q103 0 103 93q0 95 -103 95h-94z" />
    <glyph glyph-name="S" unicode="S" horiz-adv-x="497" 
d="M462 173q0 -91 -63.5 -138t-155.5 -47q-128 0 -213 75l28 96q85 -81 185 -81q46 0 76 22t30 61q0 38 -27 60t-99 40q-176 43 -176 184q0 75 56 122t151 47q104 0 180 -59l-26 -85q-78 52 -155 52q-44 0 -69 -18.5t-25 -50.5q0 -28 22.5 -48t80.5 -34q105 -26 152.5 -73
t47.5 -125z" />
    <glyph glyph-name="T" unicode="T" horiz-adv-x="549" 
d="M538 505h-203v-505h-122v505h-203v95h528v-95z" />
    <glyph glyph-name="U" unicode="U" horiz-adv-x="684" 
d="M617 277q0 -146 -75 -220t-200 -74t-200.5 74t-75.5 220v323h124v-319q0 -96 39.5 -144.5t114.5 -48.5t114.5 48.5t39.5 144.5v319h119v-323z" />
    <glyph glyph-name="V" unicode="V" horiz-adv-x="619" 
d="M610 600l-255 -600h-92l-255 600h125l179 -431l177 431h121z" />
    <glyph glyph-name="W" unicode="W" horiz-adv-x="869" 
d="M860 600l-205 -600h-89l-119 359q-12 31 -12 46l-3 -9q-2 -9 -5 -20.5t-5 -16.5l-119 -359h-89l-206 600h121l121 -377q2 -6 4.5 -19t5 -24.5t2.5 -12.5l15 56l116 377h87l117 -377l14 -56q7 42 12 56l120 377h117z" />
    <glyph glyph-name="X" unicode="X" horiz-adv-x="590" 
d="M592 0h-139l-159 228l-161 -228h-135l222 307l-210 293h139l147 -212l149 212h135l-210 -292z" />
    <glyph glyph-name="Y" unicode="Y" horiz-adv-x="596" 
d="M594 600l-235 -360v-240h-122v240l-235 360h133l165 -261l165 261h129z" />
    <glyph glyph-name="Z" unicode="Z" horiz-adv-x="518" 
d="M482 600v-59l-292 -446h290v-95h-444v59l292 446h-288v95h442z" />
    <glyph glyph-name="bracketleft" unicode="[" horiz-adv-x="331" 
d="M288 -88h-176v766h176v-51h-93v-664h93v-51z" />
    <glyph glyph-name="backslash" unicode="\" horiz-adv-x="339" 
d="M332 -3l-43 -15l-283 621l43 16z" />
    <glyph glyph-name="bracketright" unicode="]" horiz-adv-x="331" 
d="M220 -88h-176v51h92v664h-92v51h176v-766z" />
    <glyph glyph-name="asciicircum" unicode="^" horiz-adv-x="483" 
d="M462 302l-49 -33l-171 236l-170 -236l-50 33l220 316z" />
    <glyph glyph-name="underscore" unicode="_" horiz-adv-x="344" 
d="M352 -44h-360v44h360v-44z" />
    <glyph glyph-name="grave" unicode="`" horiz-adv-x="300" 
d="M248 431l-18 -28l-140 68q-26 13 -26 35q0 14 10.5 24.5t24.5 10.5q16 0 47 -25z" />
    <glyph glyph-name="a" unicode="a" horiz-adv-x="430" 
d="M399 9q-20 -18 -64 -18q-72 0 -85 58q-53 -58 -122 -58q-39 0 -66 25.5t-27 64.5q0 59 58.5 94t152.5 43v11q0 29 -14 40.5t-45 11.5q-27 0 -63.5 -13t-64.5 -32v78q23 14 70 27t81 13q147 0 147 -122v-152q0 -33 22 -33q10 0 20 4v-42zM246 103v58q-111 -15 -111 -66
q0 -33 39 -33q34 0 72 41z" />
    <glyph glyph-name="b" unicode="b" horiz-adv-x="490" 
d="M451 171q0 -79 -46.5 -131.5t-116.5 -52.5q-35 0 -69.5 14t-53.5 42l-24 -46h-82v603l112 12v-305q43 47 117 47q70 0 116.5 -52t46.5 -131zM256 272q-27 0 -50 -14t-35 -35v-105q12 -21 35 -35t50 -14q37 0 60 27t23 75t-23 74.5t-60 26.5z" />
    <glyph glyph-name="c" unicode="c" horiz-adv-x="389" 
d="M350 25q-49 -36 -125 -36q-79 0 -132 51t-53 131q0 79 53 130t132 51q76 0 125 -36v-84q-43 37 -100 37q-42 0 -70 -26t-28 -72q0 -47 28 -73t70 -26q59 0 100 37v-84z" />
    <glyph glyph-name="d" unicode="d" horiz-adv-x="504" 
d="M474 9q-22 -18 -65 -18q-71 0 -84 52q-19 -28 -53.5 -42t-69.5 -14q-70 0 -116.5 52.5t-46.5 131.5t46.5 131t116.5 52q74 0 117 -47v293l112 12v-532q0 -33 22 -33q9 0 21 4v-42zM234 272q-37 0 -60 -26.5t-23 -74.5t23 -75t60 -27q27 0 50 14t35 35v105q-12 21 -35 35
t-50 14z" />
    <glyph glyph-name="e" unicode="e" horiz-adv-x="425" 
d="M385 45q-65 -58 -159 -58q-84 0 -135.5 52t-51.5 133t52.5 131.5t126.5 50.5q67 0 113 -40t46 -100q0 -25 -6 -49h-222q0 -43 25 -71.5t83 -28.5q55 0 100 35zM275 235q0 23 -14.5 37.5t-41.5 14.5q-54 0 -66 -66h121q1 6 1 14z" />
    <glyph glyph-name="f" unicode="f" horiz-adv-x="289" 
d="M272 269h-84v-269h-112v269h-61v72h61v129q0 73 39 108t108 35q26 0 47 -7v-72q-20 5 -27 5q-28 0 -41.5 -16t-13.5 -54v-128h84v-72z" />
    <glyph glyph-name="g" unicode="g" horiz-adv-x="432" 
d="M206 354q22 0 59.5 -6.5t64.5 -6.5h73v-72h-49q14 -23 14 -52q0 -57 -43.5 -95t-102.5 -43q-41 -4 -57 -11.5t-16 -23.5q0 -14 18 -20t61 -10q175 -17 175 -138q0 -64 -56 -103.5t-138 -39.5q-84 0 -138.5 30t-54.5 73q0 32 22 52.5t50 26.5l51 -18q-27 -13 -27 -41
q0 -23 26.5 -36t66.5 -13q43 0 68 15.5t25 39.5q0 25 -23 38.5t-77 18.5q-151 12 -151 98q0 26 21 49t51 32q-34 15 -56.5 47t-22.5 72q0 55 45.5 96t120.5 41zM207 288q-29 0 -47 -19t-18 -52t18 -52t47 -19q28 0 46.5 19.5t18.5 51.5t-18.5 51.5t-46.5 19.5z" />
    <glyph glyph-name="h" unicode="h" horiz-adv-x="483" 
d="M425 0h-112v187q0 78 -60 78q-31 0 -56.5 -25t-25.5 -58v-182h-112v600l112 12v-325q15 27 52 47t73 20q66 0 97.5 -40.5t31.5 -108.5v-205z" />
    <glyph glyph-name="i" unicode="i" horiz-adv-x="230" 
d="M175 497q0 -25 -18 -43t-42 -18q-25 0 -42.5 18t-17.5 43t17.5 42.5t42.5 17.5q24 0 42 -17.5t18 -42.5zM171 0h-112v341l112 12v-353z" />
    <glyph glyph-name="j" unicode="j" horiz-adv-x="230" 
d="M175 497q0 -25 -18 -43t-42 -18q-25 0 -42.5 18t-17.5 43t17.5 42.5t42.5 17.5q24 0 42 -17.5t18 -42.5zM171 -136q0 -58 -32 -94.5t-91 -36.5q-27 0 -51 8.5t-33 17.5v67q23 -18 49 -18q25 0 35.5 14t10.5 52v467l112 12v-489z" />
    <glyph glyph-name="k" unicode="k" horiz-adv-x="436" 
d="M423 0h-127l-107 139l-19 -20v-119h-111v600l112 12v-401l133 130h115l-153 -145z" />
    <glyph glyph-name="l" unicode="l" horiz-adv-x="243" 
d="M213 9q-22 -18 -64 -18q-90 0 -90 88v521l112 12v-532q0 -33 21 -33q9 0 21 4v-42z" />
    <glyph glyph-name="m" unicode="m" horiz-adv-x="710" 
d="M652 0h-112v191q0 38 -12.5 56t-41.5 18q-30 0 -52.5 -23.5t-22.5 -59.5v-182h-112v191q0 38 -12.5 56t-41.5 18q-30 0 -52 -23.5t-22 -59.5v-182h-112v334l102 11l6 -63q16 32 50.5 52t71.5 20q91 0 114 -78q17 34 51 56t76 22q122 0 122 -149v-205z" />
    <glyph glyph-name="n" unicode="n" horiz-adv-x="483" 
d="M425 0h-112v187q0 78 -60 78q-31 0 -56.5 -25t-25.5 -58v-182h-112v334l102 11l6 -64q15 31 53 52t76 21q66 0 97.5 -40.5t31.5 -108.5v-205z" />
    <glyph glyph-name="o" unicode="o" horiz-adv-x="472" 
d="M437 171q0 -79 -58.5 -132.5t-142.5 -53.5t-142.5 53.5t-58.5 132.5t58 132t143 53q84 0 142.5 -53t58.5 -132zM325 171q0 46 -24 74t-65 28q-40 0 -64.5 -28t-24.5 -74q0 -47 24.5 -75t64.5 -28q41 0 65 28t24 75z" />
    <glyph glyph-name="p" unicode="p" horiz-adv-x="490" 
d="M451 170q0 -79 -46.5 -131t-116.5 -52q-74 0 -117 47v-294h-112v594l101 11l5 -47q19 28 53.5 42t69.5 14q70 0 116.5 -52.5t46.5 -131.5zM256 69q37 0 60 26.5t23 74.5t-23 75t-60 27q-27 0 -50 -14t-35 -35v-105q12 -21 35 -35t50 -14z" />
    <glyph glyph-name="q" unicode="q" horiz-adv-x="490" 
d="M39 170q0 79 46.5 131.5t116.5 52.5q35 0 69.5 -14t53.5 -42l24 47h82v-605h-112v294q-43 -47 -117 -47q-70 0 -116.5 52t-46.5 131zM234 69q27 0 50 14t35 35v105q-12 21 -35 35t-50 14q-37 0 -60 -27t-23 -75t23 -74.5t60 -26.5z" />
    <glyph glyph-name="r" unicode="r" horiz-adv-x="313" 
d="M292 246q-47 14 -84 -6.5t-37 -63.5v-176h-112v334l102 11l6 -65q17 33 50 53.5t75 20.5v-108z" />
    <glyph glyph-name="s" unicode="s" horiz-adv-x="354" 
d="M318 110q0 -57 -37 -90t-107 -33q-74 0 -142 41l18 74q66 -41 123 -41q49 0 49 32q0 15 -13 23t-44 13q-121 23 -121 115q0 46 34 78t103 32q60 0 122 -34l-17 -70q-55 31 -103 31q-43 0 -43 -27q0 -22 46 -31q69 -13 100.5 -44t31.5 -69z" />
    <glyph glyph-name="t" unicode="t" horiz-adv-x="307" 
d="M279 24q-39 -33 -101 -33q-49 0 -77.5 28.5t-28.5 83.5v166h-49v72h49v94l112 12v-106h83v-72h-83v-153q0 -29 8.5 -41t30.5 -12q24 0 45 15z" />
    <glyph glyph-name="u" unicode="u" horiz-adv-x="497" 
d="M466 9q-22 -18 -64 -18q-79 0 -88 67q-15 -28 -52 -49.5t-75 -21.5q-66 0 -97.5 40.5t-31.5 108.5v205h112v-186q0 -79 61 -79q31 0 56 25t25 58v182h112v-261q0 -33 22 -33q10 0 20 4v-42z" />
    <glyph glyph-name="v" unicode="v" horiz-adv-x="407" 
d="M399 341l-152 -343h-87l-152 343h108l88 -222l89 222h106z" />
    <glyph glyph-name="w" unicode="w" horiz-adv-x="627" 
d="M616 341l-144 -343h-82l-76 207l-77 -207h-81l-145 343h107l80 -212l77 212h84l77 -212l79 212h101z" />
    <glyph glyph-name="x" unicode="x" horiz-adv-x="425" 
d="M414 0h-121l-81 109l-83 -109h-118l141 173l-133 168h118l77 -103l78 103h114l-132 -166z" />
    <glyph glyph-name="y" unicode="y" horiz-adv-x="409" 
d="M401 341l-259 -601h-108l117 269l-143 332h108l89 -225l90 225h106z" />
    <glyph glyph-name="z" unicode="z" horiz-adv-x="380" 
d="M344 0h-314v41l166 223h-156v77h300v-41l-167 -223h171v-77z" />
    <glyph glyph-name="braceleft" unicode="{" horiz-adv-x="334" 
d="M289 -78l-24 -33q-49 28 -71 49t-34.5 61t-12.5 110q0 42 -4.5 71t-9.5 45t-20 27.5t-24 15.5t-32 12v32q23 8 32 12t24 15.5t20 27.5t9.5 45t4.5 71q0 69 12.5 109t35 61.5t70.5 49.5l24 -33q-39 -28 -47 -61.5t-8 -128.5q0 -43 -5.5 -73.5t-14 -49t-24.5 -31
t-31.5 -18.5t-39.5 -12q24 -6 39.5 -12t31.5 -18.5t24.5 -31t14 -49t5.5 -73.5q0 -95 8 -128.5t47 -61.5z" />
    <glyph glyph-name="bar" unicode="|" horiz-adv-x="241" 
d="M147 -96h-53v782h53v-782z" />
    <glyph glyph-name="braceright" unicode="}" horiz-adv-x="334" 
d="M277 280q-29 -10 -40 -15.5t-26 -23t-20 -49t-5 -83.5q0 -70 -12.5 -110t-34.5 -61t-70 -49l-24 33q38 28 46 61.5t8 128.5q0 53 7.5 87t24.5 53t35 28t49 16q-31 7 -49 16t-35 28t-24.5 53t-7.5 87q0 95 -8 128.5t-46 61.5l24 33q48 -28 70 -49.5t34.5 -61.5t12.5 -109
q0 -52 5 -83.5t20 -49t26 -23t40 -15.5v-32z" />
    <glyph glyph-name="asciitilde" unicode="~" horiz-adv-x="445" 
d="M380 269q0 -131 -90 -131q-23 0 -71.5 27.5t-70.5 27.5q-17 0 -25.5 -11t-15.5 -40h-43q0 131 90 131q23 0 71.5 -27.5t70.5 -27.5q17 0 25.5 11t15.5 40h43z" />
    <glyph glyph-name="nbspace" unicode="&#xa0;" horiz-adv-x="173" 
 />
    <glyph glyph-name="exclamdown" unicode="&#xa1;" horiz-adv-x="265" 
d="M197 381q0 -27 -19 -46t-46 -19t-46 19t-19 46t19 46t46 19t46 -19t19 -46zM206 -162h-146l39 422h67z" />
    <glyph glyph-name="cent" unicode="&#xa2;" horiz-adv-x="435" 
d="M369 118q-38 -28 -94 -33v-168h-47v166q-73 5 -124 57t-51 127t51 126.5t124 56.5v167h47v-169q56 -5 94 -33v-85q-36 32 -94 37v-201q58 5 94 37v-85zM228 171v191q-31 -8 -49 -33t-18 -62q0 -35 18.5 -61t48.5 -35z" />
    <glyph glyph-name="sterling" unicode="&#xa3;" horiz-adv-x="535" 
d="M482 0h-453v91q57 0 75 19.5t18 86.5v75h-79v71h79v32q0 126 54.5 184t149.5 58q75 0 132 -40v-94q-58 45 -122 45q-52 0 -77.5 -32.5t-25.5 -119.5v-33h151v-71h-151v-25q0 -121 -57 -156h306v-91z" />
    <glyph glyph-name="currency" unicode="&#xa4;" horiz-adv-x="542" 
d="M498 28q-26 -19 -69 -30.5t-83 -11.5q-101 0 -166.5 60.5t-84.5 169.5h-62v51h56q-1 11 -1 35q0 21 1 31h-56v51h62q17 111 83 172t168 61q86 0 152 -42v-97q-56 48 -139 48q-122 0 -144 -142h165v-51h-170q-1 -10 -1 -31q0 -24 1 -35h170v-51h-165q25 -139 144 -139
q77 0 139 48v-97z" />
    <glyph glyph-name="yen" unicode="&#xa5;" horiz-adv-x="595" 
d="M358 236v-58h119v-50h-119v-128h-121v128h-119v50h119v58h-119v50h89l-205 314h133l165 -261l164 261h129l-205 -314h89v-50h-119z" />
    <glyph glyph-name="brokenbar" unicode="&#xa6;" horiz-adv-x="241" 
d="M147 349h-53v337h53v-337zM147 -96h-53v337h53v-337z" />
    <glyph glyph-name="section" unicode="&#xa7;" horiz-adv-x="449" 
d="M420 229q0 -98 -92 -140q74 -46 74 -128q0 -65 -50 -108.5t-137 -43.5q-89 0 -160 50l22 78q71 -47 138 -47q42 0 64.5 17t22.5 47q0 28 -19.5 47t-68.5 31q-184 44 -184 166q0 99 91 139q-73 46 -73 128q0 66 49.5 109t137.5 43q91 0 159 -50l-21 -77q-73 46 -139 46
q-42 0 -64.5 -17t-22.5 -46t19.5 -47.5t68.5 -30.5q185 -46 185 -166zM328 208q0 37 -30 59.5t-96 37.5q-34 -6 -57.5 -30.5t-23.5 -56.5q0 -37 29.5 -59t96.5 -38q34 6 57.5 30.5t23.5 56.5z" />
    <glyph glyph-name="dieresis" unicode="&#xa8;" horiz-adv-x="300" 
d="M297 460q0 -22 -15 -37.5t-37 -15.5q-21 0 -36 15.5t-15 37.5q0 21 15 36t36 15q22 0 37 -15t15 -36zM116 460q0 -22 -15 -37.5t-37 -15.5t-37 15.5t-15 37.5q0 21 15 36t37 15t37 -15t15 -36z" />
    <glyph glyph-name="copyright" unicode="&#xa9;" horiz-adv-x="685" 
d="M659 300q0 -131 -92.5 -224t-223.5 -93t-224 93t-93 224t93 224t224 93t223.5 -93t92.5 -224zM623 300q0 116 -82 198t-198 82t-198 -82t-82 -198t82 -198t198 -82t198 82t82 198zM489 139q-52 -39 -134 -39q-84 0 -144.5 55t-60.5 145t60.5 145t144.5 55q82 0 134 -39
v-77q-54 45 -121 45q-54 0 -89.5 -35t-35.5 -94t35.5 -94t89.5 -35q69 0 121 45v-77z" />
    <glyph glyph-name="ordfeminine" unicode="&#xaa;" horiz-adv-x="387" 
d="M359 302q-18 -16 -58 -16q-65 0 -76 52q-49 -52 -110 -52q-36 0 -60 22.5t-24 58.5q0 53 53 84.5t137 38.5v10q0 26 -12.5 36.5t-40.5 10.5q-55 0 -115 -41v71q20 13 63 24.5t73 11.5q132 0 132 -110v-137q0 -30 20 -30q10 0 18 4v-38zM221 387v52q-100 -14 -100 -60
q0 -29 36 -29q30 0 64 37z" />
    <glyph glyph-name="guillemotleft" unicode="&#xab;" horiz-adv-x="435" 
d="M407 91l-27 -31l-181 145l181 144l27 -32l-116 -113zM279 54l-27 -32l-224 183l224 181l27 -31l-151 -151z" />
    <glyph glyph-name="logicalnot" unicode="&#xac;" horiz-adv-x="562" 
d="M453 85h-67v112h-305v67h372v-179z" />
    <glyph glyph-name="registered" unicode="&#xae;" horiz-adv-x="501" 
d="M482 386q0 -96 -68 -163.5t-164 -67.5q-95 0 -163 67.5t-68 163.5t68 163.5t163 67.5q96 0 164 -67.5t68 -163.5zM452 386q0 83 -59.5 142t-142.5 59t-142 -59t-59 -142t59 -142t142 -59t142.5 59t59.5 142zM386 254q-18 -6 -39 -6q-57 0 -81 54l-25 54h-24v-105h-71v274
h123q46 0 70 -24.5t24 -59.5q0 -61 -56 -78l22 -41q15 -27 40 -27q11 0 17 2v-43zM217 479v-77h35q40 0 40 38q0 39 -40 39h-35z" />
    <glyph glyph-name="macron" unicode="&#xaf;" horiz-adv-x="300" 
d="M267 408h-228v55h228v-55z" />
    <glyph glyph-name="degree" unicode="&#xb0;" horiz-adv-x="385" 
d="M341 461q0 -62 -44 -106t-106 -44t-106 44t-44 106q0 61 44.5 105.5t105.5 44.5q62 0 106 -44t44 -106zM286 461q0 39 -27.5 67t-67.5 28q-39 0 -66.5 -28t-27.5 -67t27.5 -67t66.5 -28q40 0 67.5 28t27.5 67z" />
    <glyph glyph-name="plusminus" unicode="&#xb1;" horiz-adv-x="410" 
d="M386 256h-148v-148h-66v148h-148v66h148v148h66v-148h148v-66zM386 0h-362v58h362v-58z" />
    <glyph glyph-name="twosuperior" unicode="&#xb2;" horiz-adv-x="291" 
d="M255 357h-229v39l75 78q20 21 30.5 33.5t20.5 32t10 37.5q0 23 -13.5 34.5t-31.5 11.5q-39 0 -83 -36v66q43 33 101 33q49 0 81 -27t32 -72q0 -61 -66 -120l-53 -46h126v-64z" />
    <glyph glyph-name="threesuperior" unicode="&#xb3;" horiz-adv-x="305" 
d="M269 459q0 -51 -36.5 -81t-91.5 -30q-63 0 -104 34v65q43 -40 91 -40q26 0 41.5 14.5t15.5 39.5q0 22 -12.5 35t-34.5 13q-25 0 -43 -18l-29 34l95 88h-123v64h227v-39l-85 -78q39 -6 64 -32.5t25 -68.5z" />
    <glyph glyph-name="acute" unicode="&#xb4;" horiz-adv-x="300" 
d="M243 506q0 -22 -26 -35l-140 -68l-18 28l102 85q31 25 47 25q14 0 24.5 -10.5t10.5 -24.5z" />
    <glyph glyph-name="mu" unicode="&#xb5;" horiz-adv-x="497" 
d="M170 -12v-248h-112v601h112v-186q0 -79 61 -79q31 0 56 25t25 58v182h112v-261q0 -33 22 -33q10 0 20 4v-42q-22 -18 -64 -18q-79 0 -88 67q-15 -28 -52 -49.5t-75 -21.5q-12 0 -17 1z" />
    <glyph glyph-name="paragraph" unicode="&#xb6;" horiz-adv-x="521" 
d="M479 537h-62v-728h-76v728h-83v-728h-76v453q-64 7 -107.5 55t-43.5 113q0 70 50 120t120 50h278v-63z" />
    <glyph glyph-name="periodcentered" unicode="&#xb7;" horiz-adv-x="254" 
d="M195 205q0 -29 -19.5 -48.5t-48.5 -19.5t-48.5 19.5t-19.5 48.5q0 28 20 47.5t48 19.5t48 -19.5t20 -47.5z" />
    <glyph glyph-name="cedilla" unicode="&#xb8;" horiz-adv-x="300" 
d="M248 -122q0 -57 -53 -85t-127 -20v41q113 -6 113 59q0 27 -31.5 37.5t-67.5 -2.5v27l106 108l45 -12l-73 -73q35 -3 61.5 -23.5t26.5 -56.5z" />
    <glyph glyph-name="onesuperior" unicode="&#xb9;" horiz-adv-x="217" 
d="M154 357h-84v260h-35v49l119 18v-327z" />
    <glyph glyph-name="ordmasculine" unicode="&#xba;" horiz-adv-x="425" 
d="M393 448q0 -71 -52.5 -119t-128.5 -48t-128.5 48t-52.5 119t52.5 118.5t128.5 47.5t128.5 -47.5t52.5 -118.5zM292 448q0 43 -21.5 68.5t-58.5 25.5q-36 0 -58 -25.5t-22 -68.5q0 -44 22 -70t58 -26q37 0 58.5 26t21.5 70z" />
    <glyph glyph-name="guillemotright" unicode="&#xbb;" horiz-adv-x="436" 
d="M408 205l-224 -183l-27 32l151 150l-151 151l27 31zM237 205l-182 -145l-27 31l116 113l-116 113l27 32z" />
    <glyph glyph-name="onequarter" unicode="&#xbc;" horiz-adv-x="655" 
d="M600 71h-60v-71h-84v71h-145v41l155 210h74v-193h60v-58zM512 598l-384 -616l-39 20l383 616zM178 280h-84v260h-34v49l118 18v-327zM456 129v101l-76 -101h76z" />
    <glyph glyph-name="onehalf" unicode="&#xbd;" horiz-adv-x="656" 
d="M598 0h-229v39l75 78q20 21 30.5 33.5t20.5 32t10 37.5q0 23 -14 34.5t-32 11.5q-38 0 -82 -36v66q16 13 45.5 23t55.5 10q48 0 80 -27t32 -72q0 -63 -66 -120l-52 -46h126v-64zM512 598l-384 -616l-39 20l383 616zM178 280h-84v260h-34v49l118 18v-327z" />
    <glyph glyph-name="threequarters" unicode="&#xbe;" horiz-adv-x="708" 
d="M652 71h-60v-71h-84v71h-145v41l155 210h74v-193h60v-58zM569 598l-383 -616l-40 20l384 616zM292 382q0 -51 -36.5 -81t-91.5 -30q-64 0 -105 34v65q43 -40 92 -40q26 0 41.5 14.5t15.5 39.5q0 22 -12.5 35t-34.5 13q-25 0 -43 -18l-30 34l96 88h-124v64h228v-39
l-85 -78q39 -6 64 -32.5t25 -68.5zM508 129v101l-76 -101h76z" />
    <glyph glyph-name="questiondown" unicode="&#xbf;" horiz-adv-x="444" 
d="M334 381q0 -27 -19 -46t-46 -19t-46 19t-19 46t19 46t46 19t46 -19t19 -46zM421 -115q-31 -28 -84.5 -46t-105.5 -18q-86 0 -144.5 40t-58.5 117q0 65 42.5 109t122.5 82l32 15l10 76h68l10 -126l-46 -22q-68 -32 -93 -61t-25 -65q0 -37 26.5 -56.5t69.5 -19.5
q42 0 91.5 21.5t84.5 54.5v-101z" />
    <glyph glyph-name="Agrave" unicode="&#xc0;" horiz-adv-x="622" 
d="M613 0h-122l-61 148h-243l-61 -148h-118l255 600h95zM397 233l-88 218l-89 -218h177zM364 690l-18 -28l-140 68q-26 12 -26 35q0 14 10.5 24.5t24.5 10.5q16 0 47 -25z" />
    <glyph glyph-name="Aacute" unicode="&#xc1;" horiz-adv-x="622" 
d="M613 0h-122l-61 148h-243l-61 -148h-118l255 600h95zM397 233l-88 218l-89 -218h177zM439 765q0 -22 -26 -35l-140 -68l-18 28l102 85q31 25 47 25q14 0 24.5 -10.5t10.5 -24.5z" />
    <glyph glyph-name="Acircumflex" unicode="&#xc2;" horiz-adv-x="622" 
d="M613 0h-122l-61 148h-243l-61 -148h-118l255 600h95zM397 233l-88 218l-89 -218h177zM440 700l-33 -34l-98 76l-97 -76l-33 34l130 121z" />
    <glyph glyph-name="Atilde" unicode="&#xc3;" horiz-adv-x="622" 
d="M613 0h-122l-61 148h-243l-61 -148h-118l255 600h95zM397 233l-88 218l-89 -218h177zM444 779q0 -53 -20.5 -80.5t-55.5 -27.5q-22 0 -63 24.5t-58 24.5q-15 0 -21.5 -10t-8.5 -35h-44q0 53 20.5 80.5t55.5 27.5q22 0 63 -24.5t58 -24.5q16 0 22 9.5t9 35.5h43z" />
    <glyph glyph-name="Adieresis" unicode="&#xc4;" horiz-adv-x="622" 
d="M613 0h-122l-61 148h-243l-61 -148h-118l255 600h95zM397 233l-88 218l-89 -218h177zM453 719q0 -22 -15 -37.5t-37 -15.5q-21 0 -36 15.5t-15 37.5q0 21 15 36t36 15q22 0 37 -15t15 -36zM272 719q0 -22 -15 -37.5t-37 -15.5t-37 15.5t-15 37.5q0 21 15 36t37 15t37 -15
t15 -36z" />
    <glyph glyph-name="Aring" unicode="&#xc5;" horiz-adv-x="622" 
d="M613 0h-122l-61 148h-243l-61 -148h-118l255 600h95zM397 233l-88 218l-89 -218h177zM408 765q0 -41 -28.5 -69.5t-70.5 -28.5t-70.5 28.5t-28.5 69.5q0 42 28.5 70.5t70.5 28.5t70.5 -28.5t28.5 -70.5zM360 765q0 22 -15 37t-36 15t-36 -15t-15 -37q0 -21 15 -35.5
t36 -14.5t36 14.5t15 35.5z" />
    <glyph glyph-name="AE" unicode="&#xc6;" horiz-adv-x="845" 
d="M406 232v282l-153 -282h153zM797 600v-95h-269v-141h219v-95h-219v-174h269v-95h-391v145h-200l-80 -145h-118l341 600h448z" />
    <glyph glyph-name="Ccedilla" unicode="&#xc7;" horiz-adv-x="611" 
d="M327 -12q-124 11 -207 95.5t-83 216.5q0 141 93.5 227t228.5 86q129 0 209 -61v-111q-85 74 -196 74q-91 0 -149 -58t-58 -157t58 -157t149 -58q111 0 196 74v-111q-71 -54 -185 -60l-40 -40q35 -3 61.5 -23.5t26.5 -56.5q0 -57 -53 -85t-127 -20v41q113 -6 113 59
q0 27 -31.5 37.5t-67.5 -2.5v27z" />
    <glyph glyph-name="Egrave" unicode="&#xc8;" horiz-adv-x="505" 
d="M457 0h-391v600h391v-95h-269v-141h219v-95h-219v-174h269v-95zM334 690l-18 -28l-140 68q-26 12 -26 35q0 14 10.5 24.5t24.5 10.5q16 0 47 -25z" />
    <glyph glyph-name="Eacute" unicode="&#xc9;" horiz-adv-x="505" 
d="M457 0h-391v600h391v-95h-269v-141h219v-95h-219v-174h269v-95zM380 765q0 -22 -26 -35l-140 -68l-18 28l102 85q31 25 47 25q14 0 24.5 -10.5t10.5 -24.5z" />
    <glyph glyph-name="Ecircumflex" unicode="&#xca;" horiz-adv-x="505" 
d="M457 0h-391v600h391v-95h-269v-141h219v-95h-219v-174h269v-95zM390 700l-33 -34l-98 76l-97 -76l-33 34l130 121z" />
    <glyph glyph-name="Edieresis" unicode="&#xcb;" horiz-adv-x="505" 
d="M457 0h-391v600h391v-95h-269v-141h219v-95h-219v-174h269v-95zM413 719q0 -22 -15 -37.5t-37 -15.5q-21 0 -36 15.5t-15 37.5q0 21 15 36t36 15q22 0 37 -15t15 -36zM232 719q0 -22 -15 -37.5t-37 -15.5t-37 15.5t-15 37.5q0 21 15 36t37 15t37 -15t15 -36z" />
    <glyph glyph-name="Igrave" unicode="&#xcc;" horiz-adv-x="254" 
d="M188 0h-122v600h122v-600zM203 690l-18 -28l-140 68q-26 12 -26 35q0 14 10.5 24.5t24.5 10.5q16 0 47 -25z" />
    <glyph glyph-name="Iacute" unicode="&#xcd;" horiz-adv-x="254" 
d="M188 0h-122v600h122v-600zM238 765q0 -22 -26 -35l-140 -68l-18 28l102 85q31 25 47 25q14 0 24.5 -10.5t10.5 -24.5z" />
    <glyph glyph-name="Icircumflex" unicode="&#xce;" horiz-adv-x="254" 
d="M188 0h-122v600h122v-600zM259 700l-33 -34l-98 76l-97 -76l-33 34l130 121z" />
    <glyph glyph-name="Idieresis" unicode="&#xcf;" horiz-adv-x="254" 
d="M188 0h-122v600h122v-600zM272 719q0 -22 -15 -37.5t-37 -15.5q-21 0 -36 15.5t-15 37.5q0 21 15 36t36 15q22 0 37 -15t15 -36zM91 719q0 -22 -15 -37.5t-37 -15.5t-37 15.5t-15 37.5q0 21 15 36t37 15t37 -15t15 -36z" />
    <glyph glyph-name="Eth" unicode="&#xd0;" horiz-adv-x="655" 
d="M66 271h-58v60h58v269h211q171 0 256 -83.5t85 -216.5t-85 -216.5t-256 -83.5h-211v271zM188 331h122v-60h-122v-173h83q222 0 222 202t-222 202h-83v-171z" />
    <glyph glyph-name="Ntilde" unicode="&#xd1;" horiz-adv-x="641" 
d="M574 0h-85l-314 396v-396h-109v600h85l314 -396v396h109v-600zM453 779q0 -53 -20.5 -80.5t-55.5 -27.5q-22 0 -63 24.5t-58 24.5q-15 0 -21.5 -10t-8.5 -35h-44q0 53 20.5 80.5t55.5 27.5q22 0 63 -24.5t58 -24.5q16 0 22 9.5t9 35.5h43z" />
    <glyph glyph-name="Ograve" unicode="&#xd2;" horiz-adv-x="726" 
d="M688 300q0 -137 -93 -227t-231 -90q-139 0 -233 90t-94 227t94 227t233 90q138 0 231 -90t93 -227zM560 300q0 98 -54 159t-142 61q-90 0 -144.5 -61t-54.5 -159t54.5 -159t144.5 -61q88 0 142 61t54 159zM434 690l-18 -28l-140 68q-26 12 -26 35q0 14 10.5 24.5
t24.5 10.5q16 0 47 -25z" />
    <glyph glyph-name="Oacute" unicode="&#xd3;" horiz-adv-x="726" 
d="M688 300q0 -137 -93 -227t-231 -90q-139 0 -233 90t-94 227t94 227t233 90q138 0 231 -90t93 -227zM560 300q0 98 -54 159t-142 61q-90 0 -144.5 -61t-54.5 -159t54.5 -159t144.5 -61q88 0 142 61t54 159zM469 765q0 -22 -26 -35l-140 -68l-18 28l102 85q31 25 47 25
q14 0 24.5 -10.5t10.5 -24.5z" />
    <glyph glyph-name="Ocircumflex" unicode="&#xd4;" horiz-adv-x="726" 
d="M688 300q0 -137 -93 -227t-231 -90q-139 0 -233 90t-94 227t94 227t233 90q138 0 231 -90t93 -227zM560 300q0 98 -54 159t-142 61q-90 0 -144.5 -61t-54.5 -159t54.5 -159t144.5 -61q88 0 142 61t54 159zM490 700l-33 -34l-98 76l-97 -76l-33 34l130 121z" />
    <glyph glyph-name="Otilde" unicode="&#xd5;" horiz-adv-x="726" 
d="M688 300q0 -137 -93 -227t-231 -90q-139 0 -233 90t-94 227t94 227t233 90q138 0 231 -90t93 -227zM560 300q0 98 -54 159t-142 61q-90 0 -144.5 -61t-54.5 -159t54.5 -159t144.5 -61q88 0 142 61t54 159zM493 779q0 -53 -20.5 -80.5t-55.5 -27.5q-22 0 -63 24.5
t-58 24.5q-15 0 -21.5 -10t-8.5 -35h-44q0 53 20.5 80.5t55.5 27.5q22 0 63 -24.5t58 -24.5q16 0 22 9.5t9 35.5h43z" />
    <glyph glyph-name="Odieresis" unicode="&#xd6;" horiz-adv-x="726" 
d="M688 300q0 -137 -93 -227t-231 -90q-139 0 -233 90t-94 227t94 227t233 90q138 0 231 -90t93 -227zM560 300q0 98 -54 159t-142 61q-90 0 -144.5 -61t-54.5 -159t54.5 -159t144.5 -61q88 0 142 61t54 159zM502 719q0 -22 -15 -37.5t-37 -15.5q-21 0 -36 15.5t-15 37.5
q0 21 15 36t36 15q22 0 37 -15t15 -36zM321 719q0 -22 -15 -37.5t-37 -15.5t-37 15.5t-15 37.5q0 21 15 36t37 15t37 -15t15 -36z" />
    <glyph glyph-name="multiply" unicode="&#xd7;" horiz-adv-x="454" 
d="M387 116l-47 -48l-112 113l-113 -113l-48 48l113 112l-112 112l48 48l111 -112l112 112l48 -49l-112 -111z" />
    <glyph glyph-name="Oslash" unicode="&#xd8;" horiz-adv-x="726" 
d="M490 475l-220 -373q42 -22 94 -22q88 0 142 61t54 159q0 113 -70 175zM236 125l221 373q-42 22 -93 22q-90 0 -144.5 -61t-54.5 -159q0 -113 71 -175zM182 33q-68 43 -106.5 112.5t-38.5 154.5q0 137 94 227t233 90q78 0 145 -31l34 57l35 -20l-34 -56q67 -42 105.5 -112
t38.5 -155q0 -137 -93 -227t-231 -90q-78 0 -146 31l-34 -57l-36 20z" />
    <glyph glyph-name="Ugrave" unicode="&#xd9;" horiz-adv-x="684" 
d="M617 277q0 -146 -75 -220t-200 -74t-200.5 74t-75.5 220v323h124v-319q0 -96 39.5 -144.5t114.5 -48.5t114.5 48.5t39.5 144.5v319h119v-323zM406 690l-18 -28l-140 68q-26 12 -26 35q0 14 10.5 24.5t24.5 10.5q16 0 47 -25z" />
    <glyph glyph-name="Uacute" unicode="&#xda;" horiz-adv-x="684" 
d="M617 277q0 -146 -75 -220t-200 -74t-200.5 74t-75.5 220v323h124v-319q0 -96 39.5 -144.5t114.5 -48.5t114.5 48.5t39.5 144.5v319h119v-323zM471 765q0 -22 -26 -35l-140 -68l-18 28l102 85q31 25 47 25q14 0 24.5 -10.5t10.5 -24.5z" />
    <glyph glyph-name="Ucircumflex" unicode="&#xdb;" horiz-adv-x="684" 
d="M617 277q0 -146 -75 -220t-200 -74t-200.5 74t-75.5 220v323h124v-319q0 -96 39.5 -144.5t114.5 -48.5t114.5 48.5t39.5 144.5v319h119v-323zM477 700l-33 -34l-98 76l-97 -76l-33 34l130 121z" />
    <glyph glyph-name="Udieresis" unicode="&#xdc;" horiz-adv-x="684" 
d="M617 277q0 -146 -75 -220t-200 -74t-200.5 74t-75.5 220v323h124v-319q0 -96 39.5 -144.5t114.5 -48.5t114.5 48.5t39.5 144.5v319h119v-323zM487 719q0 -22 -15 -37.5t-37 -15.5q-21 0 -36 15.5t-15 37.5q0 21 15 36t36 15q22 0 37 -15t15 -36zM306 719q0 -22 -15 -37.5
t-37 -15.5t-37 15.5t-15 37.5q0 21 15 36t37 15t37 -15t15 -36z" />
    <glyph glyph-name="Yacute" unicode="&#xdd;" horiz-adv-x="596" 
d="M594 600l-235 -360v-240h-122v240l-235 360h133l165 -261l165 261h129zM423 765q0 -22 -26 -35l-140 -68l-18 28l102 85q31 25 47 25q14 0 24.5 -10.5t10.5 -24.5z" />
    <glyph glyph-name="Thorn" unicode="&#xde;" horiz-adv-x="516" 
d="M66 600h122v-100h106q103 0 155.5 -54t52.5 -137t-52.5 -137t-155.5 -54h-106v-118h-122v600zM381 309q0 46 -25.5 75t-81.5 29h-86v-208h86q56 0 81.5 28.5t25.5 75.5z" />
    <glyph glyph-name="germandbls" unicode="&#xdf;" horiz-adv-x="532" 
d="M504 117q0 -59 -39.5 -93t-113.5 -34q-61 0 -129 28v75q63 -33 116 -33q28 0 46 13.5t18 35.5q0 19 -17.5 34t-43 27.5t-50.5 27.5t-42.5 41t-17.5 61q0 28 14.5 52t32 39t32 35.5t14.5 41.5q0 30 -18 48.5t-54 18.5q-38 0 -59.5 -28.5t-21.5 -71.5v-435h-112v435
q0 82 54 130t139 48q81 0 127 -36t46 -97q0 -33 -15 -59.5t-32.5 -40.5t-32.5 -32.5t-15 -37.5q0 -24 27 -44.5t60 -35t60 -44t27 -69.5z" />
    <glyph glyph-name="agrave" unicode="&#xe0;" horiz-adv-x="430" 
d="M290 431l-18 -28l-140 68q-26 13 -26 35q0 14 10.5 24.5t24.5 10.5q16 0 47 -25zM402 9q-20 -18 -64 -18q-72 0 -85 58q-53 -58 -122 -58q-39 0 -66 25.5t-27 64.5q0 59 58.5 94t152.5 43v11q0 29 -14 40.5t-45 11.5q-60 0 -128 -45v78q23 14 70 27t81 13q147 0 147 -122
v-152q0 -33 22 -33q10 0 20 4v-42zM249 103v58q-111 -15 -111 -66q0 -33 39 -33q34 0 72 41z" />
    <glyph glyph-name="aacute" unicode="&#xe1;" horiz-adv-x="430" 
d="M402 9q-20 -18 -64 -18q-72 0 -85 58q-53 -58 -122 -58q-39 0 -66 25.5t-27 64.5q0 59 58.5 94t152.5 43v11q0 29 -14 40.5t-45 11.5q-60 0 -128 -45v78q23 14 70 27t81 13q147 0 147 -122v-152q0 -33 22 -33q10 0 20 4v-42zM249 103v58q-111 -15 -111 -66q0 -33 39 -33
q34 0 72 41zM305 506q0 -22 -26 -35l-140 -68l-18 28l102 85q31 25 47 25q14 0 24.5 -10.5t10.5 -24.5z" />
    <glyph glyph-name="acircumflex" unicode="&#xe2;" horiz-adv-x="430" 
d="M402 9q-20 -18 -64 -18q-72 0 -85 58q-53 -58 -122 -58q-39 0 -66 25.5t-27 64.5q0 59 58.5 94t152.5 43v11q0 29 -14 40.5t-45 11.5q-60 0 -128 -45v78q23 14 70 27t81 13q147 0 147 -122v-152q0 -33 22 -33q10 0 20 4v-42zM249 103v58q-111 -15 -111 -66q0 -33 39 -33
q34 0 72 41zM336 441l-33 -34l-98 76l-97 -76l-33 34l130 121z" />
    <glyph glyph-name="atilde" unicode="&#xe3;" horiz-adv-x="430" 
d="M402 9q-20 -18 -64 -18q-72 0 -85 58q-53 -58 -122 -58q-39 0 -66 25.5t-27 64.5q0 59 58.5 94t152.5 43v11q0 29 -14 40.5t-45 11.5q-60 0 -128 -45v78q23 14 70 27t81 13q147 0 147 -122v-152q0 -33 22 -33q10 0 20 4v-42zM249 103v58q-111 -15 -111 -66q0 -33 39 -33
q34 0 72 41zM340 520q0 -53 -20.5 -80.5t-55.5 -27.5q-22 0 -63 24.5t-58 24.5q-15 0 -21.5 -10t-8.5 -35h-44q0 53 20.5 80.5t55.5 27.5q22 0 63 -24.5t58 -24.5q16 0 22 9.5t9 35.5h43z" />
    <glyph glyph-name="adieresis" unicode="&#xe4;" horiz-adv-x="430" 
d="M402 9q-20 -18 -64 -18q-72 0 -85 58q-53 -58 -122 -58q-39 0 -66 25.5t-27 64.5q0 59 58.5 94t152.5 43v11q0 29 -14 40.5t-45 11.5q-60 0 -128 -45v78q23 14 70 27t81 13q147 0 147 -122v-152q0 -33 22 -33q10 0 20 4v-42zM249 103v58q-111 -15 -111 -66q0 -33 39 -33
q34 0 72 41zM349 460q0 -22 -15 -37.5t-37 -15.5q-21 0 -36 15.5t-15 37.5q0 21 15 36t36 15q22 0 37 -15t15 -36zM168 460q0 -22 -15 -37.5t-37 -15.5t-37 15.5t-15 37.5q0 21 15 36t37 15t37 -15t15 -36z" />
    <glyph glyph-name="aring" unicode="&#xe5;" horiz-adv-x="430" 
d="M402 9q-20 -18 -64 -18q-72 0 -85 58q-53 -58 -122 -58q-39 0 -66 25.5t-27 64.5q0 59 58.5 94t152.5 43v11q0 29 -14 40.5t-45 11.5q-60 0 -128 -45v78q23 14 70 27t81 13q147 0 147 -122v-152q0 -33 22 -33q10 0 20 4v-42zM249 103v58q-111 -15 -111 -66q0 -33 39 -33
q34 0 72 41zM304 506q0 -41 -28.5 -69.5t-70.5 -28.5t-70.5 28.5t-28.5 69.5q0 42 28.5 70.5t70.5 28.5t70.5 -28.5t28.5 -70.5zM256 506q0 22 -15 37t-36 15t-36 -15t-15 -37q0 -21 15 -35.5t36 -14.5t36 14.5t15 35.5z" />
    <glyph glyph-name="ae" unicode="&#xe6;" horiz-adv-x="631" 
d="M591 45q-65 -58 -159 -58q-107 0 -159 81q-65 -77 -145 -77q-39 0 -66 25.5t-27 64.5q0 59 58.5 94t152.5 43v13q0 29 -14.5 39.5t-44.5 10.5q-27 0 -63.5 -13t-64.5 -32v78q23 14 70 27t82 13q76 0 110 -33q42 33 103 33q67 0 113 -39.5t46 -100.5q0 -27 -6 -49h-222
q0 -43 25 -71.5t83 -28.5q55 0 100 35zM254 109q-9 24 -9 52q-110 -15 -110 -66q0 -16 11.5 -24.5t28.5 -8.5q39 0 79 47zM481 235q0 23 -14.5 37.5t-41.5 14.5q-54 0 -66 -66h121q1 6 1 14z" />
    <glyph glyph-name="ccedilla" unicode="&#xe7;" horiz-adv-x="389" 
d="M191 -8q-65 11 -106.5 60t-41.5 119q0 79 53 130t132 51q76 0 125 -36v-84q-43 37 -100 37q-42 0 -70 -26t-28 -72q0 -47 28 -73t70 -26q59 0 100 37v-84q-43 -32 -109 -36l-26 -26q35 -3 61.5 -23.5t26.5 -56.5q0 -57 -53 -85t-127 -20v41q113 -6 113 59
q0 27 -31.5 37.5t-67.5 -2.5v27z" />
    <glyph glyph-name="egrave" unicode="&#xe8;" horiz-adv-x="425" 
d="M307 431l-18 -28l-140 68q-26 13 -26 35q0 14 10.5 24.5t24.5 10.5q16 0 47 -25zM388 45q-65 -58 -159 -58q-84 0 -135.5 52t-51.5 133t52.5 131.5t126.5 50.5q67 0 113 -40t46 -100q0 -25 -6 -49h-222q0 -43 25 -71.5t83 -28.5q55 0 100 35zM278 235q0 23 -14.5 37.5
t-41.5 14.5q-54 0 -66 -66h121q1 6 1 14z" />
    <glyph glyph-name="eacute" unicode="&#xe9;" horiz-adv-x="425" 
d="M388 45q-65 -58 -159 -58q-84 0 -135.5 52t-51.5 133t52.5 131.5t126.5 50.5q67 0 113 -40t46 -100q0 -25 -6 -49h-222q0 -43 25 -71.5t83 -28.5q55 0 100 35zM278 235q0 23 -14.5 37.5t-41.5 14.5q-54 0 -66 -66h121q1 6 1 14zM322 506q0 -22 -26 -35l-140 -68l-18 28
l102 85q31 25 47 25q14 0 24.5 -10.5t10.5 -24.5z" />
    <glyph glyph-name="ecircumflex" unicode="&#xea;" horiz-adv-x="425" 
d="M388 45q-65 -58 -159 -58q-84 0 -135.5 52t-51.5 133t52.5 131.5t126.5 50.5q67 0 113 -40t46 -100q0 -25 -6 -49h-222q0 -43 25 -71.5t83 -28.5q55 0 100 35zM278 235q0 23 -14.5 37.5t-41.5 14.5q-54 0 -66 -66h121q1 6 1 14zM353 441l-33 -34l-98 76l-97 -76l-33 34
l130 121z" />
    <glyph glyph-name="edieresis" unicode="&#xeb;" horiz-adv-x="425" 
d="M388 45q-65 -58 -159 -58q-84 0 -135.5 52t-51.5 133t52.5 131.5t126.5 50.5q67 0 113 -40t46 -100q0 -25 -6 -49h-222q0 -43 25 -71.5t83 -28.5q55 0 100 35zM278 235q0 23 -14.5 37.5t-41.5 14.5q-54 0 -66 -66h121q1 6 1 14zM366 460q0 -22 -15 -37.5t-37 -15.5
q-21 0 -36 15.5t-15 37.5q0 21 15 36t36 15q22 0 37 -15t15 -36zM185 460q0 -22 -15 -37.5t-37 -15.5t-37 15.5t-15 37.5q0 21 15 36t37 15t37 -15t15 -36z" />
    <glyph glyph-name="igrave" unicode="&#xec;" horiz-adv-x="230" 
d="M198 431l-18 -28l-140 68q-26 13 -26 35q0 14 10.5 24.5t24.5 10.5q16 0 47 -25zM171 0h-112v341l112 12v-353z" />
    <glyph glyph-name="iacute" unicode="&#xed;" horiz-adv-x="230" 
d="M215 506q0 -22 -26 -35l-140 -68l-18 28l102 85q31 25 47 25q14 0 24.5 -10.5t10.5 -24.5zM171 0h-112v341l112 12v-353z" />
    <glyph glyph-name="icircumflex" unicode="&#xee;" horiz-adv-x="230" 
d="M171 0h-112v341l112 12v-353zM246 441l-33 -34l-98 76l-97 -76l-34 34l131 121z" />
    <glyph glyph-name="idieresis" unicode="&#xef;" horiz-adv-x="230" 
d="M258 460q0 -22 -15 -37.5t-37 -15.5q-21 0 -36 15.5t-15 37.5q0 21 15 36t36 15q22 0 37 -15t15 -36zM77 460q0 -22 -15 -37.5t-37 -15.5t-37 15.5t-15 37.5q0 21 15 36t37 15t37 -15t15 -36zM171 0h-112v341l112 12v-353z" />
    <glyph glyph-name="eth" unicode="&#xf0;" horiz-adv-x="472" 
d="M438 194q0 -92 -56 -150.5t-146 -58.5q-85 0 -143 53t-58 133q0 79 58 132t143 53q53 0 91 -26q-24 65 -80 134l-89 -50l-22 42l78 45q-49 52 -88 79l40 39q64 -45 105 -86l90 51l24 -41l-79 -46q132 -150 132 -303zM325 171q0 46 -24 74t-65 28q-40 0 -64.5 -28
t-24.5 -74q0 -47 24.5 -75t64.5 -28q41 0 65 28t24 75z" />
    <glyph glyph-name="ntilde" unicode="&#xf1;" horiz-adv-x="483" 
d="M428 0h-112v187q0 78 -60 78q-31 0 -56.5 -25t-25.5 -58v-182h-112v334l102 11l6 -64q15 31 53 52t76 21q66 0 97.5 -40.5t31.5 -108.5v-205zM378 520q0 -53 -20.5 -80.5t-55.5 -27.5q-22 0 -63 24.5t-58 24.5q-15 0 -21.5 -10t-8.5 -35h-44q0 53 20.5 80.5t55.5 27.5
q22 0 63 -24.5t58 -24.5q16 0 22 9.5t9 35.5h43z" />
    <glyph glyph-name="ograve" unicode="&#xf2;" horiz-adv-x="472" 
d="M314 431l-18 -28l-140 68q-26 13 -26 35q0 14 10.5 24.5t24.5 10.5q16 0 47 -25zM440 171q0 -79 -58.5 -132.5t-142.5 -53.5t-142.5 53.5t-58.5 132.5t58 132t143 53q84 0 142.5 -53t58.5 -132zM328 171q0 46 -24 74t-65 28q-40 0 -64.5 -28t-24.5 -74q0 -47 24.5 -75
t64.5 -28q41 0 65 28t24 75z" />
    <glyph glyph-name="oacute" unicode="&#xf3;" horiz-adv-x="472" 
d="M440 171q0 -79 -58.5 -132.5t-142.5 -53.5t-142.5 53.5t-58.5 132.5t58 132t143 53q84 0 142.5 -53t58.5 -132zM328 171q0 46 -24 74t-65 28q-40 0 -64.5 -28t-24.5 -74q0 -47 24.5 -75t64.5 -28q41 0 65 28t24 75zM349 506q0 -22 -26 -35l-140 -68l-18 28l102 85
q31 25 47 25q14 0 24.5 -10.5t10.5 -24.5z" />
    <glyph glyph-name="ocircumflex" unicode="&#xf4;" horiz-adv-x="472" 
d="M440 171q0 -79 -58.5 -132.5t-142.5 -53.5t-142.5 53.5t-58.5 132.5t58 132t143 53q84 0 142.5 -53t58.5 -132zM328 171q0 46 -24 74t-65 28q-40 0 -64.5 -28t-24.5 -74q0 -47 24.5 -75t64.5 -28q41 0 65 28t24 75zM370 441l-33 -34l-98 76l-97 -76l-33 34l130 121z" />
    <glyph glyph-name="otilde" unicode="&#xf5;" horiz-adv-x="472" 
d="M440 171q0 -79 -58.5 -132.5t-142.5 -53.5t-142.5 53.5t-58.5 132.5t58 132t143 53q84 0 142.5 -53t58.5 -132zM328 171q0 46 -24 74t-65 28q-40 0 -64.5 -28t-24.5 -74q0 -47 24.5 -75t64.5 -28q41 0 65 28t24 75zM372 520q0 -53 -20.5 -80.5t-55.5 -27.5
q-22 0 -63 24.5t-58 24.5q-15 0 -21.5 -10t-8.5 -35h-44q0 53 20.5 80.5t55.5 27.5q22 0 63 -24.5t58 -24.5q16 0 22 9.5t9 35.5h43z" />
    <glyph glyph-name="odieresis" unicode="&#xf6;" horiz-adv-x="472" 
d="M440 171q0 -79 -58.5 -132.5t-142.5 -53.5t-142.5 53.5t-58.5 132.5t58 132t143 53q84 0 142.5 -53t58.5 -132zM328 171q0 46 -24 74t-65 28q-40 0 -64.5 -28t-24.5 -74q0 -47 24.5 -75t64.5 -28q41 0 65 28t24 75zM383 460q0 -22 -15 -37.5t-37 -15.5q-21 0 -36 15.5
t-15 37.5q0 21 15 36t36 15q22 0 37 -15t15 -36zM202 460q0 -22 -15 -37.5t-37 -15.5t-37 15.5t-15 37.5q0 21 15 36t37 15t37 -15t15 -36z" />
    <glyph glyph-name="divide" unicode="&#xf7;" horiz-adv-x="454" 
d="M278 366q0 -20 -15.5 -35.5t-36.5 -15.5q-20 0 -35 15.5t-15 35.5q0 22 15 37.5t35 15.5q21 0 36.5 -15.5t15.5 -37.5zM406 196h-358v67h358v-67zM278 91q0 -21 -15.5 -36t-36.5 -15q-20 0 -35 15t-15 36q0 22 15 37.5t35 15.5q21 0 36.5 -15.5t15.5 -37.5z" />
    <glyph glyph-name="oslash" unicode="&#xf8;" horiz-adv-x="472" 
d="M305 247l-111 -177q19 -10 42 -10q41 0 67 29.5t26 81.5q0 43 -24 76zM167 94l111 177q-19 10 -42 10q-41 0 -67 -29.5t-26 -80.5q0 -42 24 -77zM120 18q-40 25 -62.5 65.5t-22.5 87.5q0 79 58 132t143 53q44 0 84 -16l26 41l31 -19l-25 -39q85 -54 85 -152
q0 -79 -58.5 -132.5t-142.5 -53.5q-45 0 -84 17l-26 -42l-31 19z" />
    <glyph glyph-name="ugrave" unicode="&#xf9;" horiz-adv-x="497" 
d="M308 431l-18 -28l-140 68q-26 13 -26 35q0 14 10.5 24.5t24.5 10.5q16 0 47 -25zM469 9q-22 -18 -64 -18q-79 0 -88 67q-15 -28 -52 -49.5t-75 -21.5q-66 0 -97.5 40.5t-31.5 108.5v205h112v-186q0 -79 61 -79q31 0 56 25t25 58v182h112v-261q0 -33 22 -33q10 0 20 4v-42
z" />
    <glyph glyph-name="uacute" unicode="&#xfa;" horiz-adv-x="497" 
d="M469 9q-22 -18 -64 -18q-79 0 -88 67q-15 -28 -52 -49.5t-75 -21.5q-66 0 -97.5 40.5t-31.5 108.5v205h112v-186q0 -79 61 -79q31 0 56 25t25 58v182h112v-261q0 -33 22 -33q10 0 20 4v-42zM353 506q0 -22 -26 -35l-140 -68l-18 28l102 85q31 25 47 25q14 0 24.5 -10.5
t10.5 -24.5z" />
    <glyph glyph-name="ucircumflex" unicode="&#xfb;" horiz-adv-x="497" 
d="M469 9q-22 -18 -64 -18q-79 0 -88 67q-15 -28 -52 -49.5t-75 -21.5q-66 0 -97.5 40.5t-31.5 108.5v205h112v-186q0 -79 61 -79q31 0 56 25t25 58v182h112v-261q0 -33 22 -33q10 0 20 4v-42zM374 441l-33 -34l-98 76l-97 -76l-33 34l130 121z" />
    <glyph glyph-name="udieresis" unicode="&#xfc;" horiz-adv-x="497" 
d="M469 9q-22 -18 -64 -18q-79 0 -88 67q-15 -28 -52 -49.5t-75 -21.5q-66 0 -97.5 40.5t-31.5 108.5v205h112v-186q0 -79 61 -79q31 0 56 25t25 58v182h112v-261q0 -33 22 -33q10 0 20 4v-42zM387 460q0 -22 -15 -37.5t-37 -15.5q-21 0 -36 15.5t-15 37.5q0 21 15 36t36 15
q22 0 37 -15t15 -36zM206 460q0 -22 -15 -37.5t-37 -15.5t-37 15.5t-15 37.5q0 21 15 36t37 15t37 -15t15 -36z" />
    <glyph glyph-name="yacute" unicode="&#xfd;" horiz-adv-x="409" 
d="M404 341l-259 -601h-108l117 269l-143 332h108l89 -225l90 225h106zM325 506q0 -22 -26 -35l-140 -68l-18 28l102 85q31 25 47 25q14 0 24.5 -10.5t10.5 -24.5z" />
    <glyph glyph-name="thorn" unicode="&#xfe;" horiz-adv-x="490" 
d="M256 69q37 0 60 26.5t23 74.5t-23 75t-60 27q-27 0 -50 -14t-35 -35v-105q12 -21 35 -35t50 -14zM171 306q40 48 117 48q70 0 116.5 -52.5t46.5 -131.5t-46.5 -131t-116.5 -52q-74 0 -117 47v-294h-112v860l112 12v-306z" />
    <glyph glyph-name="ydieresis" unicode="&#xff;" horiz-adv-x="409" 
d="M404 341l-259 -601h-108l117 269l-143 332h108l89 -225l90 225h106zM350 459q0 -22 -15 -37.5t-37 -15.5q-21 0 -36 15.5t-15 37.5q0 21 15 36t36 15q22 0 37 -15t15 -36zM169 459q0 -22 -15 -37.5t-37 -15.5t-37 15.5t-15 37.5q0 21 15 36t37 15t37 -15t15 -36z" />
    <glyph glyph-name="dotlessi" unicode="&#x131;" horiz-adv-x="230" 
d="M171 0h-112v341l112 12v-353z" />
    <glyph glyph-name="Lslash" unicode="&#x141;" horiz-adv-x="469" 
d="M66 243l-45 -29l-26 43l71 46v297h122v-219l65 42l27 -43l-92 -59v-226h269v-95h-391v243z" />
    <glyph glyph-name="lslash" unicode="&#x142;" horiz-adv-x="243" 
d="M59 251l-49 -31l-25 42l74 47v291l112 12v-233l49 31l25 -42l-74 -47v-241q0 -33 21 -33q9 0 21 4v-42q-22 -18 -64 -18q-90 0 -90 88v172z" />
    <glyph glyph-name="OE" unicode="&#x152;" horiz-adv-x="907" 
d="M859 600v-95h-269v-141h219v-95h-219v-174h269v-95h-480q-171 0 -256 83.5t-85 216.5t85 216.5t256 83.5h480zM163 300q0 -202 222 -202h83v404h-83q-222 0 -222 -202z" />
    <glyph glyph-name="oe" unicode="&#x153;" horiz-adv-x="708" 
d="M558 235q0 23 -14.5 37.5t-41.5 14.5q-54 0 -66 -66h121q1 6 1 14zM376 37q-57 -52 -140 -52q-84 0 -142.5 53.5t-58.5 132.5t58 132t143 53q83 0 140 -51q52 49 125 49q67 0 113 -40t46 -100q0 -25 -6 -49h-222q0 -43 25 -71.5t83 -28.5q55 0 100 35l28 -55
q-65 -58 -159 -58q-81 0 -133 50zM325 171q0 46 -24 74t-65 28q-40 0 -64.5 -28t-24.5 -74q0 -47 24.5 -75t64.5 -28q41 0 65 28t24 75z" />
    <glyph glyph-name="Scaron" unicode="&#x160;" horiz-adv-x="497" 
d="M462 173q0 -91 -63.5 -138t-155.5 -47q-128 0 -213 75l28 96q85 -81 185 -81q46 0 76 22t30 61q0 38 -27 60t-99 40q-176 43 -176 184q0 75 56 122t151 47q104 0 180 -59l-26 -85q-78 52 -155 52q-44 0 -69 -18.5t-25 -50.5q0 -28 22.5 -48t80.5 -34q105 -26 152.5 -73
t47.5 -125zM371 786l-131 -121l-130 121l33 34l97 -76l98 76z" />
    <glyph glyph-name="scaron" unicode="&#x161;" horiz-adv-x="354" 
d="M321 110q0 -57 -37 -90t-107 -33q-74 0 -142 41l18 74q66 -41 123 -41q49 0 49 32q0 15 -13 23t-44 13q-121 23 -121 115q0 46 34 78t103 32q60 0 122 -34l-17 -70q-55 31 -103 31q-43 0 -43 -27q0 -22 46 -31q69 -13 100.5 -44t31.5 -69zM314 527l-131 -121l-130 121
l33 34l97 -76l98 76z" />
    <glyph glyph-name="Ydieresis" unicode="&#x178;" horiz-adv-x="596" 
d="M594 600l-235 -360v-240h-122v240l-235 360h133l165 -261l165 261h129zM445 719q0 -22 -15 -37.5t-37 -15.5q-21 0 -36 15.5t-15 37.5q0 21 15 36t36 15q22 0 37 -15t15 -36zM264 719q0 -22 -15 -37.5t-37 -15.5t-37 15.5t-15 37.5q0 21 15 36t37 15t37 -15t15 -36z" />
    <glyph glyph-name="Zcaron" unicode="&#x17d;" horiz-adv-x="518" 
d="M482 600v-59l-292 -446h290v-95h-444v59l292 446h-288v95h442zM389 786l-131 -121l-130 121l33 34l97 -76l98 76z" />
    <glyph glyph-name="zcaron" unicode="&#x17e;" horiz-adv-x="380" 
d="M347 0h-314v41l166 223h-156v77h300v-41l-167 -223h171v-77zM322 527l-131 -121l-130 121l33 34l97 -76l98 76z" />
    <glyph glyph-name="florin" unicode="&#x192;" horiz-adv-x="295" 
d="M151 -69q-6 -58 -40.5 -94.5t-93.5 -36.5q-27 0 -50.5 8.5t-31.5 17.5l6 67q22 -18 47 -18t36.5 14t15.5 52l28 320h-61l7 72h61l11 137q6 72 48 107.5t112 35.5q27 0 46 -7l-6 -72q-20 5 -26 5q-28 0 -43.5 -16t-18.5 -54l-11 -136h84l-7 -72h-84z" />
    <glyph glyph-name="circumflex" unicode="&#x2c6;" horiz-adv-x="300" 
d="M284 441l-33 -34l-98 76l-97 -76l-33 34l130 121z" />
    <glyph glyph-name="caron" unicode="&#x2c7;" horiz-adv-x="300" 
d="M284 527l-131 -121l-130 121l33 34l97 -76l98 76z" />
    <glyph glyph-name="breve" unicode="&#x2d8;" horiz-adv-x="300" 
d="M258 521q0 -51 -30 -82t-75 -31t-75 31t-30 82h28q8 -24 29 -39.5t48 -15.5q26 0 48 15t29 40h28z" />
    <glyph glyph-name="dotaccent" unicode="&#x2d9;" horiz-adv-x="300" 
d="M205 460q0 -22 -15 -37.5t-36 -15.5q-22 0 -37.5 15.5t-15.5 37.5q0 21 15.5 36t37.5 15q21 0 36 -15t15 -36z" />
    <glyph glyph-name="ring" unicode="&#x2da;" horiz-adv-x="300" 
d="M252 506q0 -41 -28.5 -69.5t-70.5 -28.5t-70.5 28.5t-28.5 69.5q0 42 28.5 70.5t70.5 28.5t70.5 -28.5t28.5 -70.5zM204 506q0 22 -15 37t-36 15t-36 -15t-15 -37q0 -21 15 -35.5t36 -14.5t36 14.5t15 35.5z" />
    <glyph glyph-name="ogonek" unicode="&#x2db;" horiz-adv-x="300" 
d="M220 -76q-4 -32 -29.5 -52t-60.5 -20q-37 0 -61.5 24.5t-24.5 60.5q0 44 40.5 72.5t83.5 15.5l16 -1l-10 -24h-11q-20 0 -37.5 -13t-17.5 -30q0 -19 11 -33t32 -14q31 0 43 23l13 28z" />
    <glyph glyph-name="tilde" unicode="&#x2dc;" horiz-adv-x="300" 
d="M288 520q0 -53 -20.5 -80.5t-55.5 -27.5q-22 0 -63 24.5t-58 24.5q-15 0 -21.5 -10t-8.5 -35h-44q0 53 20.5 80.5t55.5 27.5q22 0 63 -24.5t58 -24.5q16 0 22 9.5t9 35.5h43z" />
    <glyph glyph-name="hungarumlaut" unicode="&#x2dd;" horiz-adv-x="300" 
d="M312 506q0 -22 -26 -35l-140 -68l-17 28l101 85q30 25 47 25q14 0 24.5 -10.5t10.5 -24.5zM175 506q0 -23 -26 -35l-141 -68l-17 28l101 85q30 25 47 25q14 0 25 -10.5t11 -24.5z" />
    <glyph glyph-name="Delta" unicode="&#x394;" horiz-adv-x="565" 
d="M542 0h-519l238 612h53zM411 78l-130 358l-137 -358h267z" />
    <glyph glyph-name="Omega" unicode="&#x3a9;" horiz-adv-x="557" 
d="M519 382q0 -64 -34 -118.5t-87 -82.5v-99h106v-82h-182v234q48 16 75 57t27 88q0 59 -38 103.5t-107 44.5t-107.5 -44.5t-38.5 -103.5q0 -48 26.5 -88.5t75.5 -56.5v-234h-182v82h106v98q-53 28 -87 83t-34 119q0 90 68.5 155.5t172.5 65.5q103 0 171.5 -65.5
t68.5 -155.5z" />
    <glyph glyph-name="pi" unicode="&#x3c0;" horiz-adv-x="530" 
d="M502 245h-55v-245h-115v245h-134v-245h-115v245h-55v88h474v-88z" />
    <glyph glyph-name="endash" unicode="&#x2013;" horiz-adv-x="404" 
d="M405 174h-406v62h406v-62z" />
    <glyph glyph-name="emdash" unicode="&#x2014;" horiz-adv-x="646" 
d="M647 174h-648v62h648v-62z" />
    <glyph glyph-name="quoteleft" unicode="&#x2018;" horiz-adv-x="242" 
d="M165 619l25 -25q-32 -33 -47 -55.5t-19 -50.5h5q23 -2 39.5 -19.5t16.5 -41.5t-18 -42t-43 -18q-28 0 -47.5 20t-19.5 56q0 45 28 94.5t80 81.5z" />
    <glyph glyph-name="quoteright" unicode="&#x2019;" horiz-adv-x="242" 
d="M184 541q0 -45 -27.5 -94t-79.5 -81l-25 24q32 33 47 55.5t19 50.5h-5q-24 1 -40 19t-16 42t18 42t43 18q27 0 46.5 -20t19.5 -56z" />
    <glyph glyph-name="quotesinglbase" unicode="&#x201a;" horiz-adv-x="242" 
d="M184 46q0 -46 -27.5 -95t-79.5 -81l-25 24q32 33 47 55.5t19 50.5h-5q-24 1 -40 19t-16 42q0 25 18 42.5t43 17.5q27 0 46.5 -20t19.5 -55z" />
    <glyph glyph-name="quotedblleft" unicode="&#x201c;" horiz-adv-x="423" 
d="M165 619l25 -25q-32 -33 -47 -55.5t-19 -50.5h5q23 -2 39.5 -19.5t16.5 -41.5t-18 -42t-43 -18q-28 0 -47.5 20t-19.5 56q0 45 28 94.5t80 81.5zM347 619l24 -25q-32 -32 -46.5 -55t-18.5 -51h5q23 -1 39 -19t16 -42t-18 -42t-43 -18q-27 0 -46.5 20t-19.5 56
q0 45 28 94.5t80 81.5z" />
    <glyph glyph-name="quotedblright" unicode="&#x201d;" horiz-adv-x="423" 
d="M366 541q0 -45 -28 -94t-80 -81l-24 24q32 32 46.5 55t18.5 51h-5q-23 1 -39 19t-16 42t18 42t43 18q27 0 46.5 -20t19.5 -56zM184 541q0 -45 -27.5 -94t-79.5 -81l-25 24q32 33 47 55.5t19 50.5h-5q-24 1 -40 19t-16 42t18 42t43 18q27 0 46.5 -20t19.5 -56z" />
    <glyph glyph-name="quotedblbase" unicode="&#x201e;" horiz-adv-x="423" 
d="M366 46q0 -46 -28 -95t-80 -81l-24 24q32 32 46.5 55t18.5 51h-5q-23 1 -39 19t-16 42q0 25 18 42.5t43 17.5q27 0 46.5 -20t19.5 -55zM184 46q0 -46 -27.5 -95t-79.5 -81l-25 24q32 33 47 55.5t19 50.5h-5q-24 1 -40 19t-16 42q0 25 18 42.5t43 17.5q27 0 46.5 -20
t19.5 -55z" />
    <glyph glyph-name="dagger" unicode="&#x2020;" horiz-adv-x="444" 
d="M400 425q0 -26 -20.5 -41.5t-46.5 -8.5l-88 24l33 -187l-38 -404h-35l-39 404l34 188l-90 -25q-26 -7 -46.5 8.5t-20.5 41.5t21 42t46 8l92 -26l-30 101q-8 25 8 46t42 21q27 0 42.5 -20.5t8.5 -46.5l-30 -101l90 26q25 7 46 -8.5t21 -41.5z" />
    <glyph glyph-name="daggerdbl" unicode="&#x2021;" horiz-adv-x="444" 
d="M400 1q0 -26 -21 -41.5t-46 -8.5l-90 26l30 -101q7 -26 -8.5 -46.5t-42.5 -20.5q-26 0 -41.5 21t-8.5 46l30 101l-92 -26q-25 -8 -46 8t-21 42t20.5 41.5t46.5 8.5l90 -25l-34 188l34 186l-90 -25q-26 -7 -46.5 8.5t-20.5 41.5t21 42t46 8l92 -26l-30 101q-8 25 8 46
t42 21q27 0 42.5 -20.5t8.5 -46.5l-30 -101l90 26q25 7 46 -8.5t21 -41.5t-20.5 -41.5t-46.5 -8.5l-88 24l33 -185l-33 -187l88 24q26 7 46.5 -8.5t20.5 -41.5z" />
    <glyph glyph-name="bullet" unicode="&#x2022;" horiz-adv-x="283" 
d="M142 333q37 0 62.5 -25.5t25.5 -62.5t-25.5 -63t-62.5 -26t-63 26t-26 63t26 62.5t63 25.5z" />
    <glyph glyph-name="ellipsis" unicode="&#x2026;" horiz-adv-x="732" 
d="M675 57q0 -27 -19 -46t-46 -19t-46 19t-19 46t19 46t46 19t46 -19t19 -46zM431 57q0 -27 -19 -46t-46 -19t-46 19t-19 46t19 46t46 19t46 -19t19 -46zM187 57q0 -27 -19 -46t-46 -19t-46 19t-19 46t19 46t46 19t46 -19t19 -46z" />
    <glyph glyph-name="perthousand" unicode="&#x2030;" horiz-adv-x="1011" 
d="M969 138q0 -64 -39.5 -107t-100.5 -43q-60 0 -99.5 43t-39.5 107q0 63 39.5 106t99.5 43q61 0 100.5 -42.5t39.5 -106.5zM889 138q0 87 -60 87q-59 0 -59 -87q0 -88 59 -88q60 0 60 88zM321 466q0 -64 -39.5 -107t-100.5 -43q-60 0 -99.5 43t-39.5 107q0 63 39.5 106
t99.5 43q61 0 100.5 -42.5t39.5 -106.5zM241 466q0 87 -60 87q-59 0 -59 -87q0 -88 59 -88q60 0 60 88zM642 138q0 -64 -39.5 -107t-100.5 -43q-60 0 -99.5 43t-39.5 107q0 63 39.5 106t99.5 43q61 0 100.5 -42.5t39.5 -106.5zM562 138q0 87 -60 87q-59 0 -59 -87
q0 -88 59 -88q60 0 60 88zM553 598l-384 -616l-39 20l383 616z" />
    <glyph glyph-name="guilsinglleft" unicode="&#x2039;" horiz-adv-x="307" 
d="M279 54l-27 -32l-224 183l224 181l27 -31l-146 -151z" />
    <glyph glyph-name="guilsinglright" unicode="&#x203a;" horiz-adv-x="307" 
d="M279 205l-224 -183l-27 32l146 150l-146 151l27 31z" />
    <glyph glyph-name="fraction" unicode="&#x2044;" horiz-adv-x="137" 
d="M280 598l-383 -616l-40 20l384 616z" />
    <glyph glyph-name="zerosuperior" unicode="&#x2070;" horiz-adv-x="360" 
d="M322 518q0 -79 -40 -124.5t-102 -45.5t-102 45.5t-40 124.5q0 78 40 123.5t102 45.5t102 -45.5t40 -123.5zM235 518q0 107 -55 107q-54 0 -54 -107q0 -108 54 -108q55 0 55 108z" />
    <glyph glyph-name="foursuperior" unicode="&#x2074;" horiz-adv-x="349" 
d="M319 428h-60v-71h-84v71h-145v41l155 210h74v-193h60v-58zM175 486v101l-76 -101h76z" />
    <glyph glyph-name="fivesuperior" unicode="&#x2075;" horiz-adv-x="304" 
d="M268 462q0 -53 -36 -83.5t-91 -30.5q-63 0 -104 34v65q43 -40 91 -40q26 0 40.5 14.5t14.5 38.5q0 22 -13 34.5t-36 12.5q-34 0 -53 -27l-32 15v182h206v-64h-143v-61q17 12 49 12q47 0 77 -28t30 -74z" />
    <glyph glyph-name="sixsuperior" unicode="&#x2076;" horiz-adv-x="330" 
d="M293 460q0 -50 -35.5 -81t-89.5 -31q-52 0 -90.5 33.5t-38.5 118.5q0 87 39 136.5t112 49.5q54 0 83 -22v-59q-36 22 -74 22q-71 0 -75 -85q8 9 26.5 16.5t37.5 7.5q48 0 76.5 -29.5t28.5 -76.5zM170 513q-35 0 -47 -25q-3 -88 45 -88q41 0 41 56q0 57 -39 57z" />
    <glyph glyph-name="sevensuperior" unicode="&#x2077;" horiz-adv-x="294" 
d="M266 639q-28 -42 -68 -128.5t-51 -153.5h-88q14 65 54 144t63 112h-151v64h241v-38z" />
    <glyph glyph-name="eightsuperior" unicode="&#x2078;" horiz-adv-x="338" 
d="M301 446q0 -44 -38 -71t-94 -27t-94 27t-38 71q0 62 70 89q-50 24 -50 71q0 36 33 58.5t79 22.5t79 -22.5t33 -58.5q0 -48 -51 -71q71 -28 71 -89zM205 605q0 16 -10 25t-26 9q-35 0 -35 -34q0 -14 9.5 -27t25.5 -18q16 5 26 18t10 27zM218 447q0 43 -49 60
q-48 -17 -48 -60q0 -21 13.5 -35t34.5 -14q22 0 35.5 14t13.5 35z" />
    <glyph glyph-name="ninesuperior" unicode="&#x2079;" horiz-adv-x="330" 
d="M291 536q0 -88 -39 -137.5t-111 -49.5q-53 0 -83 22v59q33 -22 74 -22q70 0 74 85q-8 -9 -26.5 -16.5t-36.5 -7.5q-49 0 -77.5 29.5t-28.5 77.5q0 49 35.5 80t89.5 31q53 0 91 -33.5t38 -117.5zM208 548q4 87 -45 87q-41 0 -41 -56q0 -57 38 -57q35 0 48 26z" />
    <glyph glyph-name="zeroinferior" unicode="&#x2080;" horiz-adv-x="360" 
d="M322 56q0 -79 -40 -124.5t-102 -45.5t-102 45.5t-40 124.5q0 78 40 123.5t102 45.5t102 -45.5t40 -123.5zM235 56q0 107 -55 107q-54 0 -54 -107q0 -108 54 -108q55 0 55 108z" />
    <glyph glyph-name="oneinferior" unicode="&#x2081;" horiz-adv-x="217" 
d="M154 -105h-84v260h-35v49l119 18v-327z" />
    <glyph glyph-name="twoinferior" unicode="&#x2082;" horiz-adv-x="291" 
d="M255 -105h-229v39l75 78q20 21 30.5 33.5t20.5 32t10 37.5q0 23 -13.5 34.5t-31.5 11.5q-39 0 -83 -36v66q43 33 101 33q49 0 81 -27t32 -72q0 -61 -66 -120l-53 -46h126v-64z" />
    <glyph glyph-name="threeinferior" unicode="&#x2083;" horiz-adv-x="305" 
d="M269 -3q0 -51 -36.5 -81t-91.5 -30q-63 0 -104 34v65q43 -40 91 -40q26 0 41.5 14.5t15.5 39.5q0 22 -12.5 35t-34.5 13q-25 0 -43 -18l-29 34l95 88h-123v64h227v-39l-85 -78q39 -6 64 -32.5t25 -68.5z" />
    <glyph glyph-name="fourinferior" unicode="&#x2084;" horiz-adv-x="349" 
d="M319 -34h-60v-71h-84v71h-145v41l155 210h74v-193h60v-58zM175 24v101l-76 -101h76z" />
    <glyph glyph-name="fiveinferior" unicode="&#x2085;" horiz-adv-x="304" 
d="M268 0q0 -53 -36 -83.5t-91 -30.5q-63 0 -104 34v65q43 -40 91 -40q26 0 40.5 14.5t14.5 38.5q0 22 -13 34.5t-36 12.5q-34 0 -53 -27l-32 15v182h206v-64h-143v-61q17 12 49 12q47 0 77 -28t30 -74z" />
    <glyph glyph-name="sixinferior" unicode="&#x2086;" horiz-adv-x="330" 
d="M293 -2q0 -50 -35.5 -81t-89.5 -31q-52 0 -90.5 33.5t-38.5 118.5q0 87 39 136.5t112 49.5q54 0 83 -22v-59q-36 22 -74 22q-71 0 -75 -85q8 9 26.5 16.5t37.5 7.5q48 0 76.5 -29.5t28.5 -76.5zM170 51q-35 0 -47 -25q-3 -88 45 -88q41 0 41 56q0 57 -39 57z" />
    <glyph glyph-name="seveninferior" unicode="&#x2087;" horiz-adv-x="294" 
d="M266 177q-28 -42 -68 -128.5t-51 -153.5h-88q14 65 54 144t63 112h-151v64h241v-38z" />
    <glyph glyph-name="eightinferior" unicode="&#x2088;" horiz-adv-x="338" 
d="M301 -16q0 -44 -38 -71t-94 -27t-94 27t-38 71q0 62 70 89q-50 24 -50 71q0 36 33 58.5t79 22.5t79 -22.5t33 -58.5q0 -48 -51 -71q71 -28 71 -89zM205 143q0 16 -10 25t-26 9q-35 0 -35 -34q0 -14 9.5 -27t25.5 -18q16 5 26 18t10 27zM218 -15q0 43 -49 60
q-48 -17 -48 -60q0 -21 13.5 -35t34.5 -14q22 0 35.5 14t13.5 35z" />
    <glyph glyph-name="nineinferior" unicode="&#x2089;" horiz-adv-x="330" 
d="M291 74q0 -88 -39 -137.5t-111 -49.5q-53 0 -83 22v59q33 -22 74 -22q70 0 74 85q-8 -9 -26.5 -16.5t-36.5 -7.5q-49 0 -77.5 29.5t-28.5 77.5q0 49 35.5 80t89.5 31q53 0 91 -33.5t38 -117.5zM208 86q4 87 -45 87q-41 0 -41 -56q0 -57 38 -57q35 0 48 26z" />
    <glyph glyph-name="Euro" unicode="&#x20ac;" horiz-adv-x="542" 
d="M498 28q-26 -19 -69 -30.5t-83 -11.5q-101 0 -166.5 60.5t-84.5 169.5h-62v51h56q-1 11 -1 35q0 21 1 31h-56v51h62q17 111 83 172t168 61q86 0 152 -42v-97q-56 48 -139 48q-122 0 -144 -142h165v-51h-170q-1 -10 -1 -31q0 -24 1 -35h170v-51h-165q25 -139 144 -139
q77 0 139 48v-97z" />
    <glyph glyph-name="trademark" unicode="&#x2122;" horiz-adv-x="827" 
d="M768 267h-78v182v21l1 15q0 -1 -2.5 -8.5t-5 -15.5t-3.5 -12l-73 -182h-57l-72 182q-8 16 -12 36v-15q1 -16 1 -21v-182h-76v333h98l92 -227l90 227h97v-333zM330 534h-108v-267h-89v267h-107v66h304v-66z" />
    <glyph glyph-name="onethird" unicode="&#x2153;" horiz-adv-x="659" 
d="M623 102q0 -51 -36.5 -81t-91.5 -30q-63 0 -104 34v65q43 -40 91 -40q26 0 41.5 14.5t15.5 39.5q0 22 -12.5 35t-34.5 13q-25 0 -43 -18l-29 34l95 88h-123v64h227v-39l-85 -78q39 -6 64 -32.5t25 -68.5zM512 598l-384 -616l-39 20l383 616zM178 280h-84v260h-34v49
l118 18v-327z" />
    <glyph glyph-name="twothirds" unicode="&#x2154;" horiz-adv-x="719" 
d="M270 280h-229v39l75 78q20 21 30.5 33.5t20.5 32t10 37.5q0 23 -13.5 34.5t-31.5 11.5q-39 0 -83 -36v66q43 33 101 33q49 0 81 -27t32 -72q0 -61 -66 -120l-53 -46h126v-64zM571 598l-383 -616l-40 20l384 616zM683 102q0 -51 -36.5 -81t-91.5 -30q-63 0 -104 34v65
q43 -40 91 -40q26 0 41.5 14.5t15.5 39.5q0 22 -12.5 35t-34.5 13q-25 0 -43 -18l-29 34l95 88h-123v64h227v-39l-85 -78q39 -6 64 -32.5t25 -68.5z" />
    <glyph glyph-name="oneeighth" unicode="&#x215b;" horiz-adv-x="662" 
d="M625 89q0 -44 -38 -71t-94 -27t-94 27t-38 71q0 62 70 89q-50 24 -50 71q0 36 33 58.5t79 22.5t79 -22.5t33 -58.5q0 -48 -51 -71q71 -28 71 -89zM529 248q0 16 -10 25t-26 9q-35 0 -35 -34q0 -14 9.5 -27t25.5 -18q16 5 26 18t10 27zM542 90q0 43 -49 60
q-48 -17 -48 -60q0 -21 13.5 -35t34.5 -14q22 0 35.5 14t13.5 35zM512 598l-384 -616l-39 20l383 616zM178 280h-84v260h-34v49l118 18v-327z" />
    <glyph glyph-name="threeeighths" unicode="&#x215c;" horiz-adv-x="719" 
d="M569 598l-383 -616l-40 20l384 616zM292 382q0 -51 -36.5 -81t-91.5 -30q-64 0 -105 34v65q43 -40 92 -40q26 0 41.5 14.5t15.5 39.5q0 22 -12.5 35t-34.5 13q-25 0 -43 -18l-30 34l96 88h-124v64h228v-39l-85 -78q39 -6 64 -32.5t25 -68.5zM682 89q0 -44 -38 -71
t-94 -27t-94 27t-38 71q0 62 70 89q-50 24 -50 71q0 36 33 58.5t79 22.5t79 -22.5t33 -58.5q0 -48 -51 -71q71 -28 71 -89zM586 248q0 16 -10 25t-26 9q-35 0 -35 -34q0 -14 9.5 -27t25.5 -18q16 5 26 18t10 27zM599 90q0 43 -49 60q-48 -17 -48 -60q0 -21 13.5 -35
t34.5 -14q22 0 35.5 14t13.5 35z" />
    <glyph glyph-name="fiveeighths" unicode="&#x215d;" horiz-adv-x="726" 
d="M288 385q0 -53 -36 -83.5t-91 -30.5q-63 0 -104 34v65q43 -40 91 -40q26 0 40.5 14.5t14.5 38.5q0 22 -13 34.5t-36 12.5q-34 0 -53 -27l-32 15v182h206v-64h-143v-61q17 12 49 12q47 0 77 -28t30 -74zM689 89q0 -44 -38 -71t-94 -27t-94 27t-38 71q0 62 70 89
q-50 24 -50 71q0 36 33 58.5t79 22.5t79 -22.5t33 -58.5q0 -48 -51 -71q71 -28 71 -89zM593 248q0 16 -10 25t-26 9q-35 0 -35 -34q0 -14 9.5 -27t25.5 -18q16 5 26 18t10 27zM606 90q0 43 -49 60q-48 -17 -48 -60q0 -21 13.5 -35t34.5 -14q22 0 35.5 14t13.5 35zM576 598
l-384 -616l-39 20l383 616z" />
    <glyph glyph-name="seveneighths" unicode="&#x215e;" horiz-adv-x="634" 
d="M266 562q-28 -42 -68 -128.5t-51 -153.5h-88q14 65 54 144t63 112h-151v64h241v-38zM597 89q0 -44 -38 -71t-94 -27t-94 27t-38 71q0 62 70 89q-50 24 -50 71q0 36 33 58.5t79 22.5t79 -22.5t33 -58.5q0 -48 -51 -71q71 -28 71 -89zM501 248q0 16 -10 25t-26 9
q-35 0 -35 -34q0 -14 9.5 -27t25.5 -18q16 5 26 18t10 27zM514 90q0 43 -49 60q-48 -17 -48 -60q0 -21 13.5 -35t34.5 -14q22 0 35.5 14t13.5 35zM484 598l-384 -616l-39 20l383 616z" />
    <glyph glyph-name="partialdiff" unicode="&#x2202;" horiz-adv-x="534" 
d="M488 267q-9 -83 -36 -142t-66 -88.5t-76 -41.5t-78 -12q-92 0 -148.5 60t-47.5 150q9 86 68 140t146 54q37 0 75 -16.5t53 -37.5q11 198 -138 198q-69 0 -136 -44l10 92q22 15 62.5 27t83.5 12q128 0 186.5 -93.5t41.5 -257.5zM371 247q-29 59 -109 59q-47 0 -75 -30.5
t-35 -87.5q-7 -55 18.5 -90t73.5 -35q46 0 81.5 41.5t45.5 142.5z" />
    <glyph glyph-name="product" unicode="&#x220f;" horiz-adv-x="646" 
d="M616 508h-60v-508h-114v508h-238v-508h-114v508h-60v92h586v-92z" />
    <glyph glyph-name="summation" unicode="&#x2211;" horiz-adv-x="550" 
d="M543 -170h-524v38l238 353l-240 342v37h511v-86h-349l199 -285l-210 -313h375v-86z" />
    <glyph glyph-name="minus" unicode="&#x2212;" horiz-adv-x="454" 
d="M375 195h-295v67h295v-67z" />
    <glyph glyph-name="radical" unicode="&#x221a;" horiz-adv-x="459" 
d="M466 741l-284 -763h-19l-126 300l72 33l79 -197l233 627h45z" />
    <glyph glyph-name="infinity" unicode="&#x221e;" horiz-adv-x="698" 
d="M661 228q0 -58 -39.5 -97t-101.5 -39q-37 0 -84.5 28.5t-85.5 65.5q-40 -38 -88 -66t-84 -28q-63 0 -102 39t-39 97t39 97.5t102 39.5q37 0 84.5 -28.5t87.5 -66.5q37 37 85 66t85 29q63 0 102 -39.5t39 -97.5zM523 301q-45 0 -128 -73q86 -73 128 -73q30 0 50.5 22
t20.5 51q0 30 -20.5 51.5t-50.5 21.5zM175 301q-30 0 -50.5 -21.5t-20.5 -51.5q0 -29 20.5 -51t50.5 -22q43 0 121 73q-78 73 -121 73z" />
    <glyph glyph-name="integral" unicode="&#x222b;" horiz-adv-x="277" 
d="M292 570q-30 6 -41 6q-38 0 -53.5 -20.5t-15.5 -75.5v-529q0 -67 -34 -108.5t-101 -41.5q-31 0 -57 10t-36 21v72q30 -24 62 -24q30 0 43 18t13 65v513q0 92 40.5 134t120.5 42q32 0 59 -9v-73z" />
    <glyph glyph-name="approxequal" unicode="&#x2248;" horiz-adv-x="454" 
d="M370 281q-35 -33 -74 -33q-23 0 -70.5 16.5t-67.5 16.5q-17 0 -35.5 -8.5t-28.5 -16.5l-11 -8v67q36 33 75 33q23 0 70.5 -16.5t67.5 -16.5q17 0 35.5 8.5t28.5 16.5l10 8v-67zM370 143q-35 -33 -74 -33q-23 0 -70.5 16.5t-67.5 16.5q-17 0 -35.5 -8.5t-28.5 -16.5
l-11 -8v68q36 33 75 33q23 0 70.5 -16.5t67.5 -16.5q17 0 35.5 8t28.5 16l10 9v-68z" />
    <glyph glyph-name="notequal" unicode="&#x2260;" horiz-adv-x="454" 
d="M373 127h-188l-65 -95l-35 22l49 73h-53v67h97l48 70h-145v68h189l64 95l35 -23l-49 -72h53v-68h-97l-47 -70h144v-67z" />
    <glyph glyph-name="lessequal" unicode="&#x2264;" horiz-adv-x="423" 
d="M372 170l-17 -62l-317 165l317 164l17 -60l-195 -104zM392 0h-361v58h361v-58z" />
    <glyph glyph-name="greaterequal" unicode="&#x2265;" horiz-adv-x="423" 
d="M385 273l-317 -165l-17 62l195 103l-195 104l17 60zM392 0h-361v58h361v-58z" />
    <glyph glyph-name="lozenge" unicode="&#x25ca;" horiz-adv-x="485" 
d="M446 295l-204 -344l-203 344l203 334zM380 296l-138 229l-138 -229l138 -240z" />
    <glyph glyph-name="Lslashsmall" unicode="&#xf6f9;" horiz-adv-x="373" 
d="M355 0h-298v162l-33 -20l-20 43l53 32v216h112v-155l46 28l19 -42l-65 -40v-139h186v-85z" />
    <glyph glyph-name="OEsmall" unicode="&#xf6fa;" horiz-adv-x="683" 
d="M639 0h-352q-126 0 -188 60t-62 157q0 96 62 156t188 60h352v-85h-186v-78h150v-83h-150v-102h186v-85zM341 87v259h-46q-74 0 -109 -32t-35 -97q0 -66 35 -98t109 -32h46z" />
    <glyph glyph-name="Scaronsmall" unicode="&#xf6fd;" horiz-adv-x="390" 
d="M360 130q0 -70 -48 -104.5t-120 -34.5q-95 0 -161 56l25 81q66 -58 136 -58q29 0 48 12.5t19 35.5q0 22 -18 35t-66 24q-132 31 -132 137q0 59 42.5 94t114.5 35q80 0 140 -44l-23 -73q-61 38 -119 38q-26 0 -40.5 -10.5t-14.5 -28.5q0 -33 66 -48q80 -19 115.5 -54
t35.5 -93zM332 617l-131 -121l-130 121l33 34l97 -76l98 76z" />
    <glyph glyph-name="Zcaronsmall" unicode="&#xf6ff;" horiz-adv-x="410" 
d="M379 383l-197 -298h194v-85h-338v50l197 298h-192v85h336v-50zM339 617l-131 -121l-130 121l33 34l97 -76l98 76z" />
    <glyph glyph-name="Asmall" unicode="&#xf761;" horiz-adv-x="489" 
d="M474 0h-111l-38 95h-165l-38 -95h-107l183 433h93zM243 310l-55 -142h110z" />
    <glyph glyph-name="Bsmall" unicode="&#xf762;" horiz-adv-x="434" 
d="M403 127q0 -57 -37 -92t-114 -35h-195v433h188q69 0 102 -31.5t33 -81.5q0 -24 -14 -48.5t-33 -36.5q32 -14 51 -44t19 -64zM294 132q0 59 -69 59h-56v-119h56q69 0 69 60zM273 312q0 49 -54 49h-50v-98h50q54 0 54 49z" />
    <glyph glyph-name="Csmall" unicode="&#xf763;" horiz-adv-x="461" 
d="M421 34q-55 -43 -152 -43t-165 62t-68 164t68 163.5t165 61.5t152 -43v-96q-60 51 -134 51q-58 0 -96.5 -36.5t-38.5 -100.5t38.5 -101t96.5 -37q75 0 134 52v-97z" />
    <glyph glyph-name="Dsmall" unicode="&#xf764;" horiz-adv-x="510" 
d="M473 217q0 -97 -62 -157t-188 -60h-166v433h166q126 0 188 -60t62 -156zM359 217q0 65 -34.5 97t-110.5 32h-45v-259h45q76 0 110.5 32t34.5 98z" />
    <glyph glyph-name="Esmall" unicode="&#xf765;" horiz-adv-x="399" 
d="M355 0h-298v433h298v-85h-186v-78h150v-83h-150v-102h186v-85z" />
    <glyph glyph-name="Fsmall" unicode="&#xf766;" horiz-adv-x="364" 
d="M346 348h-177v-82h141v-84h-141v-182h-112v433h289v-85z" />
    <glyph glyph-name="Gsmall" unicode="&#xf767;" horiz-adv-x="508" 
d="M451 28q-104 -40 -185 -40q-97 0 -163.5 63t-66.5 166q0 102 70 163.5t169 61.5q103 0 158 -43v-96q-65 51 -141 51q-63 0 -102 -38t-39 -106q0 -66 37 -104t95 -38q35 0 64 13v74h-68v78h172v-205z" />
    <glyph glyph-name="Hsmall" unicode="&#xf768;" horiz-adv-x="515" 
d="M458 0h-112v181h-177v-181h-112v433h112v-157h177v157h112v-433z" />
    <glyph glyph-name="Ismall" unicode="&#xf769;" horiz-adv-x="226" 
d="M169 0h-112v433h112v-433z" />
    <glyph glyph-name="Jsmall" unicode="&#xf76a;" horiz-adv-x="226" 
d="M169 -18q0 -56 -31.5 -91t-88.5 -35q-51 0 -81 26v66q20 -18 48 -18q22 0 31.5 13.5t9.5 48.5v441h112v-451z" />
    <glyph glyph-name="Ksmall" unicode="&#xf76b;" horiz-adv-x="485" 
d="M482 0h-133l-150 177l-30 -33v-144h-112v433h112v-181l164 181h120l-177 -191z" />
    <glyph glyph-name="Lsmall" unicode="&#xf76c;" horiz-adv-x="373" 
d="M355 0h-298v433h112v-348h186v-85z" />
    <glyph glyph-name="Msmall" unicode="&#xf76d;" horiz-adv-x="604" 
d="M547 0h-100v241q0 33 3 45l-16 -45l-100 -241h-67l-101 241q-12 23 -16 45q0 -1 1.5 -20t1.5 -25v-241h-96v433h125l121 -282l122 282h122v-433z" />
    <glyph glyph-name="Nsmall" unicode="&#xf76e;" horiz-adv-x="500" 
d="M441 0h-84l-201 255v-255h-99v433h84l202 -255v255h98v-433z" />
    <glyph glyph-name="Osmall" unicode="&#xf76f;" horiz-adv-x="551" 
d="M514 217q0 -99 -69.5 -164t-169.5 -65t-169.5 65t-69.5 164q0 98 69.5 163t169.5 65t169.5 -65t69.5 -163zM398 217q0 64 -33.5 102.5t-89.5 38.5t-89.5 -38.5t-33.5 -102.5t33.5 -103t89.5 -39t89.5 39t33.5 103z" />
    <glyph glyph-name="Psmall" unicode="&#xf770;" horiz-adv-x="415" 
d="M395 289q0 -63 -39.5 -103.5t-116.5 -40.5h-70v-145h-112v433h182q77 0 116.5 -40.5t39.5 -103.5zM284 289q0 69 -71 69h-44v-138h44q71 0 71 69z" />
    <glyph glyph-name="Qsmall" unicode="&#xf771;" horiz-adv-x="551" 
d="M609 -52q1 -54 -30.5 -99.5t-92.5 -45.5q-35 0 -69.5 16t-57 35.5t-53 35.5t-58.5 16q-43 0 -88 -37l-39 37q10 19 35 47t51 44q-76 20 -123.5 79.5t-47.5 140.5q0 98 69.5 163t169.5 65t169.5 -65t69.5 -163q0 -92 -60 -155t-149 -73q-28 -3 -57 -23q55 6 100.5 -12.5
t82 -39.5t64.5 -21q46 0 59 55h55zM395 217q0 64 -32 102.5t-88 38.5t-88 -38.5t-32 -102.5t32 -103t88 -39t88 39t32 103z" />
    <glyph glyph-name="Rsmall" unicode="&#xf772;" horiz-adv-x="456" 
d="M436 5q-32 -10 -61 -10q-91 0 -129 88l-36 85h-41v-168h-112v433h193q74 0 112 -38t38 -95q0 -44 -23.5 -77t-64.5 -45l35 -65q25 -45 64 -45q14 0 25 5v-68zM289 299q0 59 -67 59h-53v-118h53q67 0 67 59z" />
    <glyph glyph-name="Ssmall" unicode="&#xf773;" horiz-adv-x="390" 
d="M357 130q0 -70 -48 -104.5t-120 -34.5q-95 0 -161 56l25 81q66 -58 136 -58q29 0 48 12.5t19 35.5q0 22 -18 35t-66 24q-132 31 -132 137q0 59 42.5 94t114.5 35q79 0 140 -44l-23 -73q-61 38 -119 38q-26 0 -40.5 -10.5t-14.5 -28.5q0 -33 66 -48q80 -19 115.5 -54
t35.5 -93z" />
    <glyph glyph-name="Tsmall" unicode="&#xf774;" horiz-adv-x="427" 
d="M410 348h-141v-348h-112v348h-141v85h394v-85z" />
    <glyph glyph-name="Usmall" unicode="&#xf775;" horiz-adv-x="530" 
d="M472 200q0 -105 -57.5 -158.5t-150.5 -53.5q-92 0 -149.5 53.5t-57.5 158.5v233h113v-228q0 -120 96 -120t96 120v228h110v-233z" />
    <glyph glyph-name="Vsmall" unicode="&#xf776;" horiz-adv-x="484" 
d="M469 433l-182 -433h-89l-183 433h116l113 -283l113 283h112z" />
    <glyph glyph-name="Wsmall" unicode="&#xf777;" horiz-adv-x="665" 
d="M650 433l-147 -433h-87l-73 228q-4 11 -10 41l-5 -17q-4 -17 -6 -24l-72 -228h-88l-147 433h110l74 -232q2 -5 4.5 -17.5t4.5 -23.5t2 -12l2 12q3 11 6 23t5 18l69 232h84l70 -232q1 -5 6 -27t6 -25q10 48 11 52l74 232h107z" />
    <glyph glyph-name="Xsmall" unicode="&#xf778;" horiz-adv-x="468" 
d="M462 0h-127l-101 152l-103 -152h-124l156 222l-148 211h128l92 -140l94 140h124l-148 -211z" />
    <glyph glyph-name="Ysmall" unicode="&#xf779;" horiz-adv-x="473" 
d="M462 433l-170 -260v-173h-112v173l-169 260h122l105 -168l104 168h120z" />
    <glyph glyph-name="Zsmall" unicode="&#xf77a;" horiz-adv-x="410" 
d="M376 383l-197 -298h194v-85h-338v50l197 298h-192v85h336v-50z" />
    <glyph glyph-name="Agravesmall" unicode="&#xf7e0;" horiz-adv-x="489" 
d="M330 521l-18 -28l-140 68q-26 13 -26 35q0 14 10.5 24.5t24.5 10.5q16 0 47 -25zM477 0h-111l-38 95h-165l-38 -95h-107l183 433h93zM246 310l-55 -142h110z" />
    <glyph glyph-name="Aacutesmall" unicode="&#xf7e1;" horiz-adv-x="489" 
d="M477 0h-111l-38 95h-165l-38 -95h-107l183 433h93zM246 310l-55 -142h110zM345 596q0 -22 -26 -35l-140 -68l-18 28l102 85q31 25 47 25q14 0 24.5 -10.5t10.5 -24.5z" />
    <glyph glyph-name="Acircumflexsmall" unicode="&#xf7e2;" horiz-adv-x="489" 
d="M477 0h-111l-38 95h-165l-38 -95h-107l183 433h93zM246 310l-55 -142h110zM378 531l-33 -34l-98 76l-97 -76l-33 34l130 121z" />
    <glyph glyph-name="Atildesmall" unicode="&#xf7e3;" horiz-adv-x="489" 
d="M477 0h-111l-38 95h-165l-38 -95h-107l183 433h93zM246 310l-55 -142h110zM381 610q0 -53 -20.5 -80.5t-55.5 -27.5q-22 0 -63 24.5t-58 24.5q-15 0 -21.5 -10t-8.5 -35h-44q0 53 20.5 80.5t55.5 27.5q22 0 63 -24.5t58 -24.5q16 0 22 9.5t9 35.5h43z" />
    <glyph glyph-name="Adieresissmall" unicode="&#xf7e4;" horiz-adv-x="489" 
d="M477 0h-111l-38 95h-165l-38 -95h-107l183 433h93zM246 310l-55 -142h110zM389 550q0 -22 -15 -37.5t-37 -15.5q-21 0 -36 15.5t-15 37.5q0 21 15 36t36 15q22 0 37 -15t15 -36zM208 550q0 -22 -15 -37.5t-37 -15.5t-37 15.5t-15 37.5q0 21 15 36t37 15t37 -15t15 -36z
" />
    <glyph glyph-name="Aringsmall" unicode="&#xf7e5;" horiz-adv-x="489" 
d="M477 0h-111l-38 95h-165l-38 -95h-107l183 433h93zM246 310l-55 -142h110zM346 596q0 -41 -28.5 -69.5t-70.5 -28.5t-70.5 28.5t-28.5 69.5q0 42 28.5 70.5t70.5 28.5t70.5 -28.5t28.5 -70.5zM298 596q0 22 -15 37t-36 15t-36 -15t-15 -37q0 -21 15 -35.5t36 -14.5
t36 14.5t15 35.5z" />
    <glyph glyph-name="AEsmall" unicode="&#xf7e6;" horiz-adv-x="654" 
d="M611 0h-298v90h-141l-49 -90h-108l247 433h349v-85h-186v-78h150v-83h-150v-102h186v-85zM313 167v188l-100 -188h100z" />
    <glyph glyph-name="Ccedillasmall" unicode="&#xf7e7;" horiz-adv-x="461" 
d="M226 -5q-81 14 -134 73.5t-53 148.5q0 102 68 163.5t165 61.5t152 -43v-96q-60 51 -134 51q-58 0 -96.5 -36.5t-38.5 -100.5t38.5 -101t96.5 -37q75 0 134 52v-97q-54 -41 -146 -43l-28 -28q35 -3 61.5 -23.5t26.5 -56.5q0 -57 -53 -85t-127 -20v41q113 -6 113 59
q0 27 -31.5 37.5t-67.5 -2.5v27z" />
    <glyph glyph-name="Egravesmall" unicode="&#xf7e8;" horiz-adv-x="399" 
d="M292 521l-18 -28l-140 68q-26 13 -26 35q0 14 10.5 24.5t24.5 10.5q16 0 47 -25zM358 0h-298v433h298v-85h-186v-78h150v-83h-150v-102h186v-85z" />
    <glyph glyph-name="Eacutesmall" unicode="&#xf7e9;" horiz-adv-x="399" 
d="M358 0h-298v433h298v-85h-186v-78h150v-83h-150v-102h186v-85zM307 596q0 -22 -26 -35l-140 -68l-18 28l102 85q31 25 47 25q14 0 24.5 -10.5t10.5 -24.5z" />
    <glyph glyph-name="Ecircumflexsmall" unicode="&#xf7ea;" horiz-adv-x="399" 
d="M358 0h-298v433h298v-85h-186v-78h150v-83h-150v-102h186v-85zM338 531l-33 -34l-98 76l-97 -76l-33 34l130 121z" />
    <glyph glyph-name="Edieresissmall" unicode="&#xf7eb;" horiz-adv-x="399" 
d="M358 0h-298v433h298v-85h-186v-78h150v-83h-150v-102h186v-85zM351 550q0 -22 -15 -37.5t-37 -15.5q-21 0 -36 15.5t-15 37.5q0 21 15 36t36 15q22 0 37 -15t15 -36zM170 550q0 -22 -15 -37.5t-37 -15.5t-37 15.5t-15 37.5q0 21 15 36t37 15t37 -15t15 -36z" />
    <glyph glyph-name="Igravesmall" unicode="&#xf7ec;" horiz-adv-x="226" 
d="M195 521l-18 -28l-140 68q-26 13 -26 35q0 14 10.5 24.5t24.5 10.5q16 0 47 -25zM169 0h-112v433h112v-433z" />
    <glyph glyph-name="Iacutesmall" unicode="&#xf7ed;" horiz-adv-x="226" 
d="M215 596q0 -22 -26 -35l-140 -68l-18 28l102 85q31 25 47 25q14 0 24.5 -10.5t10.5 -24.5zM169 0h-112v433h112v-433z" />
    <glyph glyph-name="Icircumflexsmall" unicode="&#xf7ee;" horiz-adv-x="226" 
d="M169 0h-112v433h112v-433zM244 531l-33 -34l-98 76l-97 -76l-33 34l130 121z" />
    <glyph glyph-name="Idieresissmall" unicode="&#xf7ef;" horiz-adv-x="226" 
d="M256 550q0 -22 -15 -37.5t-37 -15.5q-21 0 -36 15.5t-15 37.5q0 21 15 36t36 15q22 0 37 -15t15 -36zM75 550q0 -22 -15 -37.5t-37 -15.5t-37 15.5t-15 37.5q0 21 15 36t37 15t37 -15t15 -36zM169 0h-112v433h112v-433z" />
    <glyph glyph-name="Ethsmall" unicode="&#xf7f0;" horiz-adv-x="510" 
d="M473 217q0 -97 -62 -157t-188 -60h-166v191h-42v53h42v189h166q126 0 188 -60t62 -156zM359 217q0 65 -34.5 97t-110.5 32h-45v-102h76v-53h-76v-104h45q76 0 110.5 32t34.5 98z" />
    <glyph glyph-name="Ntildesmall" unicode="&#xf7f1;" horiz-adv-x="500" 
d="M444 0h-84l-201 255v-255h-99v433h84l202 -255v255h98v-433zM386 610q0 -53 -20.5 -80.5t-55.5 -27.5q-22 0 -63 24.5t-58 24.5q-15 0 -21.5 -10t-8.5 -35h-44q0 53 20.5 80.5t55.5 27.5q22 0 63 -24.5t58 -24.5q16 0 22 9.5t9 35.5h43z" />
    <glyph glyph-name="Ogravesmall" unicode="&#xf7f2;" horiz-adv-x="551" 
d="M352 521l-18 -28l-140 68q-26 13 -26 35q0 14 10.5 24.5t24.5 10.5q16 0 47 -25zM517 217q0 -99 -69.5 -164t-169.5 -65t-169.5 65t-69.5 164q0 98 69.5 163t169.5 65t169.5 -65t69.5 -163zM401 217q0 64 -33.5 102.5t-89.5 38.5t-89.5 -38.5t-33.5 -102.5t33.5 -103
t89.5 -39t89.5 39t33.5 103z" />
    <glyph glyph-name="Oacutesmall" unicode="&#xf7f3;" horiz-adv-x="551" 
d="M517 217q0 -99 -69.5 -164t-169.5 -65t-169.5 65t-69.5 164q0 98 69.5 163t169.5 65t169.5 -65t69.5 -163zM401 217q0 64 -33.5 102.5t-89.5 38.5t-89.5 -38.5t-33.5 -102.5t33.5 -103t89.5 -39t89.5 39t33.5 103zM387 596q0 -22 -26 -35l-140 -68l-18 28l102 85
q31 25 47 25q14 0 24.5 -10.5t10.5 -24.5z" />
    <glyph glyph-name="Ocircumflexsmall" unicode="&#xf7f4;" horiz-adv-x="551" 
d="M517 217q0 -99 -69.5 -164t-169.5 -65t-169.5 65t-69.5 164q0 98 69.5 163t169.5 65t169.5 -65t69.5 -163zM401 217q0 64 -33.5 102.5t-89.5 38.5t-89.5 -38.5t-33.5 -102.5t33.5 -103t89.5 -39t89.5 39t33.5 103zM410 531l-33 -34l-98 76l-97 -76l-33 34l130 121z" />
    <glyph glyph-name="Otildesmall" unicode="&#xf7f5;" horiz-adv-x="551" 
d="M517 217q0 -99 -69.5 -164t-169.5 -65t-169.5 65t-69.5 164q0 98 69.5 163t169.5 65t169.5 -65t69.5 -163zM401 217q0 64 -33.5 102.5t-89.5 38.5t-89.5 -38.5t-33.5 -102.5t33.5 -103t89.5 -39t89.5 39t33.5 103zM411 610q0 -53 -20.5 -80.5t-55.5 -27.5q-22 0 -63 24.5
t-58 24.5q-15 0 -21.5 -10t-8.5 -35h-44q0 53 20.5 80.5t55.5 27.5q22 0 63 -24.5t58 -24.5q16 0 22 9.5t9 35.5h43z" />
    <glyph glyph-name="Odieresissmall" unicode="&#xf7f6;" horiz-adv-x="551" 
d="M517 217q0 -99 -69.5 -164t-169.5 -65t-169.5 65t-69.5 164q0 98 69.5 163t169.5 65t169.5 -65t69.5 -163zM401 217q0 64 -33.5 102.5t-89.5 38.5t-89.5 -38.5t-33.5 -102.5t33.5 -103t89.5 -39t89.5 39t33.5 103zM421 550q0 -22 -15 -37.5t-37 -15.5q-21 0 -36 15.5
t-15 37.5q0 21 15 36t36 15q22 0 37 -15t15 -36zM240 550q0 -22 -15 -37.5t-37 -15.5t-37 15.5t-15 37.5q0 21 15 36t37 15t37 -15t15 -36z" />
    <glyph glyph-name="Oslashsmall" unicode="&#xf7f8;" horiz-adv-x="551" 
d="M365 319l-152 -228q26 -16 62 -16q56 0 89.5 39t33.5 103q0 63 -33 102zM185 114l152 228q-25 16 -62 16q-56 0 -89.5 -38.5t-33.5 -102.5t33 -103zM131 32q-95 67 -95 185q0 98 69.5 163t169.5 65q61 0 113 -26l34 52l31 -19l-34 -51q95 -67 95 -184q0 -99 -69.5 -164
t-169.5 -65q-61 0 -113 26l-34 -52l-31 19z" />
    <glyph glyph-name="Ugravesmall" unicode="&#xf7f9;" horiz-adv-x="530" 
d="M332 521l-18 -28l-140 68q-26 13 -26 35q0 14 10.5 24.5t24.5 10.5q16 0 47 -25zM475 200q0 -105 -57.5 -158.5t-150.5 -53.5q-92 0 -149.5 53.5t-57.5 158.5v233h113v-228q0 -120 96 -120t96 120v228h110v-233z" />
    <glyph glyph-name="Uacutesmall" unicode="&#xf7fa;" horiz-adv-x="530" 
d="M475 200q0 -105 -57.5 -158.5t-150.5 -53.5q-92 0 -149.5 53.5t-57.5 158.5v233h113v-228q0 -120 96 -120t96 120v228h110v-233zM377 596q0 -22 -26 -35l-140 -68l-18 28l102 85q31 25 47 25q14 0 24.5 -10.5t10.5 -24.5z" />
    <glyph glyph-name="Ucircumflexsmall" unicode="&#xf7fb;" horiz-adv-x="530" 
d="M475 200q0 -105 -57.5 -158.5t-150.5 -53.5q-92 0 -149.5 53.5t-57.5 158.5v233h113v-228q0 -120 96 -120t96 120v228h110v-233zM398 531l-33 -34l-98 76l-97 -76l-33 34l130 121z" />
    <glyph glyph-name="Udieresissmall" unicode="&#xf7fc;" horiz-adv-x="530" 
d="M475 200q0 -105 -57.5 -158.5t-150.5 -53.5q-92 0 -149.5 53.5t-57.5 158.5v233h113v-228q0 -120 96 -120t96 120v228h110v-233zM411 550q0 -22 -15 -37.5t-37 -15.5q-21 0 -36 15.5t-15 37.5q0 21 15 36t36 15q22 0 37 -15t15 -36zM230 550q0 -22 -15 -37.5t-37 -15.5
t-37 15.5t-15 37.5q0 21 15 36t37 15t37 -15t15 -36z" />
    <glyph glyph-name="Yacutesmall" unicode="&#xf7fd;" horiz-adv-x="473" 
d="M465 433l-170 -260v-173h-112v173l-169 260h122l105 -168l104 168h120zM357 596q0 -22 -26 -35l-140 -68l-18 28l102 85q31 25 47 25q14 0 24.5 -10.5t10.5 -24.5z" />
    <glyph glyph-name="Thornsmall" unicode="&#xf7fe;" horiz-adv-x="415" 
d="M395 223q0 -63 -39.5 -103.5t-116.5 -40.5h-70v-79h-112v433h112v-66h70q77 0 116.5 -40.5t39.5 -103.5zM284 223q0 69 -71 69h-44v-138h44q71 0 71 69z" />
    <glyph glyph-name="Ydieresissmall" unicode="&#xf7ff;" horiz-adv-x="473" 
d="M465 433l-170 -260v-173h-112v173l-169 260h122l105 -168l104 168h120zM382 549q0 -22 -15 -37.5t-37 -15.5q-21 0 -36 15.5t-15 37.5q0 21 15 36t36 15q22 0 37 -15t15 -36zM201 549q0 -22 -15 -37.5t-37 -15.5t-37 15.5t-15 37.5q0 21 15 36t37 15t37 -15t15 -36z" />
    <glyph glyph-name="DLE" horiz-adv-x="482" 
d="M442 66l-49 -48l-71 71q-37 -23 -82 -23q-46 0 -81 23l-70 -70l-48 48l70 69q-25 38 -25 83q0 44 24 82l-69 69l48 49l69 -71q36 24 82 24q48 0 82 -24l71 71l49 -47l-72 -72q24 -37 24 -81q0 -45 -24 -82zM329 219q0 36 -26 62t-63 26t-63 -26t-26 -62q0 -37 26 -62.5
t63 -25.5t63 25.5t26 62.5z" />
    <glyph glyph-name="Qsmall.alt" horiz-adv-x="551" 
d="M517 -94q-36 -50 -111 -50q-84 0 -127 79l-28 54q-92 8 -153.5 71.5t-61.5 156.5q0 98 69.5 163t169.5 65t169.5 -65t69.5 -163q0 -77 -43 -135t-114 -82l19 -32q23 -40 59 -40q30 0 52 22zM395 217q0 64 -32 102.5t-88 38.5t-88 -38.5t-32 -102.5t32 -103t88 -39t88 39
t32 103z" />
    <glyph glyph-name="Rsmall.alt" horiz-adv-x="456" 
d="M442 0h-123l-114 168h-36v-168h-112v433h193q74 0 112 -38t38 -95q0 -44 -22.5 -76t-63.5 -45zM289 299q0 59 -67 59h-53v-118h53q67 0 67 59z" />
    <glyph glyph-name="dotlessi.small" horiz-adv-x="226" 
d="M169 0h-112v433h112v-433z" />
    <glyph glyph-name="germandbls.small" horiz-adv-x="780" 
d="M357 130q0 -70 -48 -104.5t-120 -34.5q-95 0 -161 56l25 83q66 -58 136 -58q29 0 47 12t18 34t-17.5 34.5t-64.5 23.5q-132 31 -132 138q0 59 42.5 94t114.5 35q79 0 140 -44l-23 -75q-61 38 -119 38q-53 0 -53 -37q0 -17 14 -27.5t50 -19.5q80 -19 115.5 -54.5
t35.5 -93.5zM747 130q0 -70 -48 -104.5t-120 -34.5q-95 0 -161 56l25 83q66 -58 136 -58q29 0 47 12t18 34t-17.5 34.5t-64.5 23.5q-132 31 -132 138q0 59 42.5 94t114.5 35q79 0 140 -44l-23 -75q-61 38 -119 38q-53 0 -53 -37q0 -17 14 -27.5t50 -19.5q80 -19 115.5 -54.5
t35.5 -93.5z" />
    <glyph glyph-name="zero.lprp" horiz-adv-x="582" 
d="M537 302q0 -147 -69 -233t-177 -86q-107 0 -176.5 86t-69.5 233q0 146 69.5 232t176.5 86q108 0 177 -86t69 -232zM416 302q0 110 -33 167.5t-92 57.5t-92 -57.5t-33 -167.5t33 -168t92 -58t92 58t33 168z" />
    <glyph glyph-name="one.lprp" horiz-adv-x="310" 
d="M218 0h-116v506h-64v75l180 32v-613z" />
    <glyph glyph-name="two.lprp" horiz-adv-x="470" 
d="M427 0h-401v67l157 163q53 55 81 98.5t28 94.5t-28 75t-69 24q-77 0 -154 -65v100q26 23 78 42t97 19q87 0 142.5 -48.5t55.5 -131.5q0 -48 -21 -94.5t-44 -73t-57 -59.5l-123 -116h258v-95z" />
    <glyph glyph-name="three.lprp" horiz-adv-x="495" 
d="M452 189q0 -94 -64.5 -150t-161.5 -56q-54 0 -103 17.5t-79 44.5v99q78 -73 167 -73q56 0 90.5 32.5t34.5 87.5q0 49 -27.5 78t-77.5 29q-48 0 -84 -34l-49 55l190 186h-242v95h398v-56l-169 -166q77 -5 127 -54.5t50 -134.5z" />
    <glyph glyph-name="four.lprp" horiz-adv-x="558" 
d="M529 147h-109v-147h-116v147h-276v62l297 396h95v-373h109v-85zM304 232v218l-163 -218h163z" />
    <glyph glyph-name="five.lprp" horiz-adv-x="490" 
d="M451 195q0 -96 -64 -154t-161 -58q-54 0 -103 17.5t-79 44.5v99q75 -73 167 -73q55 0 89 33.5t34 87.5q0 50 -28.5 80t-79.5 30q-75 0 -107 -64l-54 27v335h362v-95h-268v-148q36 33 101 33q84 0 137.5 -53.5t53.5 -141.5z" />
    <glyph glyph-name="six.lprp" horiz-adv-x="535" 
d="M493 188q0 -89 -62.5 -147t-154.5 -58q-32 0 -61 6.5t-60 26t-54 50t-37.5 82t-14.5 119.5q0 164 68.5 257.5t196.5 93.5q44 0 83 -12.5t60 -27.5v-91q-65 42 -132 42q-149 0 -158 -194q19 22 58 38t78 16q83 0 136.5 -57t53.5 -144zM279 306q-37 0 -68 -17.5t-46 -42.5
q-2 -181 108 -181q47 0 75 33t28 87q0 56 -25.5 88.5t-71.5 32.5z" />
    <glyph glyph-name="seven.lprp" horiz-adv-x="468" 
d="M440 545q-50 -74 -127.5 -247t-98.5 -298h-125q25 121 103.5 284t118.5 221h-293v95h422v-55z" />
    <glyph glyph-name="eight.lprp" horiz-adv-x="555" 
d="M511 164q0 -81 -67 -131t-166 -50t-166.5 50t-67.5 131q0 61 39 105t104 65q-107 41 -107 137q0 64 59 106.5t139 42.5t138.5 -42.5t58.5 -106.5q0 -45 -27 -81t-79 -56q64 -21 103 -65t39 -105zM366 470q0 32 -25.5 53t-62.5 21t-62.5 -20.5t-25.5 -53.5
q0 -30 22.5 -55.5t65.5 -39.5q42 14 65 39.5t23 55.5zM394 165q0 89 -116 122q-117 -33 -117 -122q0 -42 33.5 -71.5t83.5 -29.5t83 29.5t33 71.5z" />
    <glyph glyph-name="nine.lprp" horiz-adv-x="535" 
d="M486 336q0 -164 -68.5 -257.5t-196.5 -93.5q-44 0 -83.5 12.5t-59.5 27.5v91q65 -42 132 -42q149 0 157 194q-18 -22 -57 -38t-78 -16q-84 0 -137.5 57t-53.5 144q0 89 63 147t155 58q32 0 61 -6.5t60 -26t54 -50t37.5 -82t14.5 -119.5zM369 357q4 181 -107 181
q-48 0 -75.5 -33t-27.5 -87q0 -56 25 -88.5t72 -32.5q37 0 67.5 17t45.5 43z" />
    <glyph glyph-name="zero.otab" 
d="M493 216q0 -103 -64.5 -167.5t-165.5 -64.5q-102 0 -166 64t-64 168q0 103 64.5 167.5t165.5 64.5q100 0 165 -65t65 -167zM376 216q0 69 -31 108.5t-82 39.5q-53 0 -83 -39t-30 -109q0 -71 30 -109.5t83 -38.5q51 0 82 39t31 109z" />
    <glyph glyph-name="one.otab" 
d="M325 0h-116v338h-64v75l180 32v-445z" />
    <glyph glyph-name="two.otab" 
d="M461 0h-401v76l161 104q55 36 80 60.5t25 52.5q0 62 -84 62q-85 0 -169 -67v101q29 23 81.5 41t100.5 18q84 0 138 -38t54 -102q0 -90 -114 -153l-110 -62h238v-93z" />
    <glyph glyph-name="three.otab" 
d="M467 7q0 -94 -64.5 -151.5t-161.5 -57.5q-54 0 -103 17.5t-79 44.5v99q78 -73 167 -73q56 0 90.5 34t34.5 89q0 49 -27.5 79.5t-77.5 30.5q-46 0 -84 -34l-49 54l192 198h-244v95h398v-56l-171 -177q79 -5 129 -56t50 -136z" />
    <glyph glyph-name="four.otab" 
d="M503 0h-99v-195h-116v195h-266v62l287 379h95v-355h99v-86zM288 86v202l-153 -202h153z" />
    <glyph glyph-name="five.otab" 
d="M468 10q0 -96 -64 -154t-161 -58q-54 0 -103 17.5t-79 44.5v99q75 -73 167 -73q55 0 89 33.5t34 87.5q0 50 -28.5 80t-79.5 30q-75 0 -107 -64l-54 27v352h362v-95h-268v-165q36 33 101 33q84 0 137.5 -53.5t53.5 -141.5z" />
    <glyph glyph-name="six.otab" 
d="M488 188q0 -89 -62.5 -147t-154.5 -58q-32 0 -61 6.5t-60 26t-54 50t-37.5 82t-14.5 119.5q0 164 68.5 257.5t196.5 93.5q44 0 83 -12.5t60 -27.5v-91q-65 42 -132 42q-149 0 -158 -194q19 22 58 38t78 16q83 0 136.5 -57t53.5 -144zM274 306q-37 0 -68 -17.5t-46 -42.5
q-2 -181 108 -181q47 0 75 33t28 87q0 56 -25.5 88.5t-71.5 32.5z" />
    <glyph glyph-name="seven.otab" 
d="M468 377q-47 -68 -126 -256.5t-100 -315.5h-125q26 123 106 301.5t116 230.5h-293v95h422v-55z" />
    <glyph glyph-name="eight.otab" 
d="M490 164q0 -81 -64 -131t-162 -50q-99 0 -163.5 50t-64.5 131q0 62 36 105.5t100 64.5q-100 39 -100 137q0 65 56 107t136 42q79 0 134.5 -42t55.5 -107q0 -98 -100 -137q64 -21 100 -64.5t36 -105.5zM345 470q0 33 -22.5 53.5t-58.5 20.5q-37 0 -59.5 -20.5t-22.5 -53.5
q0 -69 82 -95q81 27 81 95zM373 165q0 91 -109 122q-111 -31 -111 -122q0 -43 30.5 -72t80.5 -29q49 0 79 29t30 72z" />
    <glyph glyph-name="nine.otab" 
d="M481 165q0 -165 -69 -265t-196 -100q-44 0 -83.5 12.5t-59.5 27.5v91q65 -42 132 -42q69 0 111 52t46 156q-18 -22 -57 -38t-78 -16q-84 0 -137.5 57t-53.5 144q0 89 63 147t155 58q32 0 61 -6.5t60 -26t54 -50t37.5 -82t14.5 -119.5zM364 186q4 181 -107 181
q-48 0 -75.5 -33t-27.5 -87q0 -56 25 -88.5t72 -32.5q37 0 67.5 17t45.5 43z" />
    <glyph glyph-name="zero.ltab" 
d="M489 302q0 -150 -60.5 -234.5t-165.5 -84.5t-165.5 85t-60.5 234t60.5 233.5t165.5 84.5t165.5 -84.5t60.5 -233.5zM368 302q0 114 -24.5 169.5t-80.5 55.5t-80.5 -55.5t-24.5 -169.5t25 -170t80 -56q56 0 80.5 55.5t24.5 170.5z" />
    <glyph glyph-name="one.ltab" 
d="M325 0h-116v506h-64v75l180 32v-613z" />
    <glyph glyph-name="two.ltab" 
d="M455 0h-401v67l157 163q35 37 54.5 61t37 60.5t17.5 71.5q0 51 -28 75t-69 24q-77 0 -154 -65v100q26 23 78 42t97 19q87 0 142.5 -48.5t55.5 -131.5q0 -116 -122 -227l-123 -116h258v-95z" />
    <glyph glyph-name="three.ltab" 
d="M467 189q0 -94 -64.5 -150t-161.5 -56q-54 0 -103 17.5t-79 44.5v99q78 -73 167 -73q56 0 90.5 32.5t34.5 87.5q0 49 -27.5 78t-77.5 29q-48 0 -84 -34l-49 55l190 186h-242v95h398v-56l-169 -166q77 -5 127 -54.5t50 -134.5z" />
    <glyph glyph-name="four.ltab" 
d="M503 147h-99v-147h-116v147h-266v62l287 396h95v-373h99v-85zM288 232v211l-153 -211h153z" />
    <glyph glyph-name="five.ltab" 
d="M468 195q0 -96 -64 -154t-161 -58q-54 0 -103 17.5t-79 44.5v99q75 -73 167 -73q55 0 89 33.5t34 87.5q0 50 -28.5 80t-79.5 30q-75 0 -107 -64l-54 27v335h362v-95h-268v-148q36 33 101 33q84 0 137.5 -53.5t53.5 -141.5z" />
    <glyph glyph-name="six.ltab" 
d="M488 188q0 -89 -62.5 -147t-154.5 -58q-32 0 -61 6.5t-60 26t-54 50t-37.5 82t-14.5 119.5q0 164 68.5 257.5t196.5 93.5q44 0 83 -12.5t60 -27.5v-91q-65 42 -132 42q-149 0 -158 -194q19 22 58 38t78 16q83 0 136.5 -57t53.5 -144zM274 306q-37 0 -68 -17.5t-46 -42.5
q-2 -181 108 -181q47 0 75 33t28 87q0 56 -25.5 88.5t-71.5 32.5z" />
    <glyph glyph-name="seven.ltab" 
d="M468 545q-50 -74 -127.5 -247t-98.5 -298h-125q25 121 103.5 284t118.5 221h-293v95h422v-55z" />
    <glyph glyph-name="eight.ltab" 
d="M490 164q0 -81 -64 -131t-162 -50q-99 0 -163.5 50t-64.5 131q0 62 36 105.5t100 64.5q-100 39 -100 137q0 65 56 107t136 42q79 0 134.5 -42t55.5 -107q0 -98 -100 -137q64 -21 100 -64.5t36 -105.5zM345 470q0 33 -22.5 53.5t-58.5 20.5q-37 0 -59.5 -20.5t-22.5 -53.5
q0 -69 82 -95q81 27 81 95zM373 165q0 91 -109 122q-111 -31 -111 -122q0 -43 30.5 -72t80.5 -29q49 0 79 29t30 72z" />
    <glyph glyph-name="nine.ltab" 
d="M481 336q0 -164 -68.5 -257.5t-196.5 -93.5q-44 0 -83.5 12.5t-59.5 27.5v91q65 -42 132 -42q149 0 157 194q-18 -22 -57 -38t-78 -16q-84 0 -137.5 57t-53.5 144q0 89 63 147t155 58q32 0 61 -6.5t60 -26t54 -50t37.5 -82t14.5 -119.5zM364 357q4 181 -107 181
q-48 0 -75.5 -33t-27.5 -87q0 -56 25 -88.5t72 -32.5q37 0 67.5 17t45.5 43z" />
    <glyph glyph-name="zero.nfra" horiz-adv-x="360" 
d="M322 441q0 -79 -40 -124.5t-102 -45.5t-102 45.5t-40 124.5q0 78 40 123.5t102 45.5t102 -45.5t40 -123.5zM235 441q0 107 -55 107q-54 0 -54 -107q0 -108 54 -108q55 0 55 108z" />
    <glyph glyph-name="one.nfra" horiz-adv-x="217" 
d="M154 280h-84v260h-35v49l119 18v-327z" />
    <glyph glyph-name="two.nfra" horiz-adv-x="291" 
d="M255 280h-229v39l75 78q20 21 30.5 33.5t20.5 32t10 37.5q0 23 -13.5 34.5t-31.5 11.5q-39 0 -83 -36v66q43 33 101 33q49 0 81 -27t32 -72q0 -61 -66 -120l-53 -46h126v-64z" />
    <glyph glyph-name="three.nfra" horiz-adv-x="305" 
d="M269 382q0 -51 -36.5 -81t-91.5 -30q-63 0 -104 34v65q43 -40 91 -40q26 0 41.5 14.5t15.5 39.5q0 22 -12.5 35t-34.5 13q-25 0 -43 -18l-29 34l95 88h-123v64h227v-39l-85 -78q39 -6 64 -32.5t25 -68.5z" />
    <glyph glyph-name="four.nfra" horiz-adv-x="349" 
d="M319 351h-60v-71h-84v71h-145v41l155 210h74v-193h60v-58zM175 409v101l-76 -101h76z" />
    <glyph glyph-name="five.nfra" horiz-adv-x="304" 
d="M268 385q0 -53 -36 -83.5t-91 -30.5q-63 0 -104 34v65q43 -40 91 -40q26 0 40.5 14.5t14.5 38.5q0 22 -13 34.5t-36 12.5q-34 0 -53 -27l-32 15v182h206v-64h-143v-61q17 12 49 12q47 0 77 -28t30 -74z" />
    <glyph glyph-name="six.nfra" horiz-adv-x="330" 
d="M293 383q0 -50 -35.5 -81t-89.5 -31q-52 0 -90.5 33.5t-38.5 118.5q0 87 39 136.5t112 49.5q54 0 83 -22v-59q-36 22 -74 22q-71 0 -75 -85q8 9 26.5 16.5t37.5 7.5q48 0 76.5 -29.5t28.5 -76.5zM170 436q-35 0 -47 -25q-3 -88 45 -88q41 0 41 56q0 57 -39 57z" />
    <glyph glyph-name="seven.nfra" horiz-adv-x="294" 
d="M266 562q-28 -42 -68 -128.5t-51 -153.5h-88q14 65 54 144t63 112h-151v64h241v-38z" />
    <glyph glyph-name="eight.nfra" horiz-adv-x="338" 
d="M301 369q0 -44 -38 -71t-94 -27t-94 27t-38 71q0 62 70 89q-50 24 -50 71q0 36 33 58.5t79 22.5t79 -22.5t33 -58.5q0 -48 -51 -71q71 -28 71 -89zM205 528q0 16 -10 25t-26 9q-35 0 -35 -34q0 -14 9.5 -27t25.5 -18q16 5 26 18t10 27zM218 370q0 43 -49 60
q-48 -17 -48 -60q0 -21 13.5 -35t34.5 -14q22 0 35.5 14t13.5 35z" />
    <glyph glyph-name="nine.nfra" horiz-adv-x="330" 
d="M291 459q0 -88 -39 -137.5t-111 -49.5q-53 0 -83 22v59q33 -22 74 -22q70 0 74 85q-8 -9 -26.5 -16.5t-36.5 -7.5q-49 0 -77.5 29.5t-28.5 77.5q0 49 35.5 80t89.5 31q53 0 91 -33.5t38 -117.5zM208 471q4 87 -45 87q-41 0 -41 -56q0 -57 38 -57q35 0 48 26z" />
    <glyph glyph-name="zero.dfra" horiz-adv-x="360" 
d="M322 161q0 -79 -40 -124.5t-102 -45.5t-102 45.5t-40 124.5q0 78 40 123.5t102 45.5t102 -45.5t40 -123.5zM235 161q0 107 -55 107q-54 0 -54 -107q0 -108 54 -108q55 0 55 108z" />
    <glyph glyph-name="one.dfra" horiz-adv-x="217" 
d="M154 0h-84v260h-35v49l119 18v-327z" />
    <glyph glyph-name="two.dfra" horiz-adv-x="291" 
d="M255 0h-229v39l75 78q20 21 30.5 33.5t20.5 32t10 37.5q0 23 -13.5 34.5t-31.5 11.5q-39 0 -83 -36v66q43 33 101 33q49 0 81 -27t32 -72q0 -63 -66 -120l-53 -46h126v-64z" />
    <glyph glyph-name="three.dfra" horiz-adv-x="305" 
d="M269 102q0 -51 -36.5 -81t-91.5 -30q-63 0 -104 34v65q43 -40 91 -40q26 0 41.5 14.5t15.5 39.5q0 22 -12.5 35t-34.5 13q-25 0 -43 -18l-29 34l95 88h-123v64h227v-39l-85 -78q39 -6 64 -32.5t25 -68.5z" />
    <glyph glyph-name="four.dfra" horiz-adv-x="349" 
d="M319 71h-60v-71h-84v71h-145v41l155 210h74v-193h60v-58zM175 129v101l-76 -101h76z" />
    <glyph glyph-name="five.dfra" horiz-adv-x="304" 
d="M268 105q0 -53 -36 -83.5t-91 -30.5q-63 0 -104 34v65q43 -40 91 -40q26 0 40.5 14.5t14.5 38.5q0 22 -13 34.5t-36 12.5q-34 0 -53 -27l-32 15v182h206v-64h-143v-61q17 12 49 12q47 0 77 -28t30 -74z" />
    <glyph glyph-name="six.dfra" horiz-adv-x="330" 
d="M293 103q0 -50 -35.5 -81t-89.5 -31q-52 0 -90.5 33.5t-38.5 118.5q0 87 39 136.5t112 49.5q54 0 83 -22v-59q-36 22 -74 22q-71 0 -75 -85q8 9 26.5 16.5t37.5 7.5q48 0 76.5 -29.5t28.5 -76.5zM170 156q-35 0 -47 -25q-3 -88 45 -88q41 0 41 56q0 57 -39 57z" />
    <glyph glyph-name="seven.dfra" horiz-adv-x="294" 
d="M266 282q-28 -42 -68 -128.5t-51 -153.5h-88q14 65 54 144t63 112h-151v64h241v-38z" />
    <glyph glyph-name="eight.dfra" horiz-adv-x="338" 
d="M301 89q0 -44 -38 -71t-94 -27t-94 27t-38 71q0 62 70 89q-50 24 -50 71q0 36 33 58.5t79 22.5t79 -22.5t33 -58.5q0 -48 -51 -71q71 -28 71 -89zM205 248q0 16 -10 25t-26 9q-35 0 -35 -34q0 -14 9.5 -27t25.5 -18q16 5 26 18t10 27zM218 90q0 43 -49 60
q-48 -17 -48 -60q0 -21 13.5 -35t34.5 -14q22 0 35.5 14t13.5 35z" />
    <glyph glyph-name="nine.dfra" horiz-adv-x="330" 
d="M291 179q0 -88 -39 -137.5t-111 -49.5q-53 0 -83 22v59q33 -22 74 -22q70 0 74 85q-8 -9 -26.5 -16.5t-36.5 -7.5q-49 0 -77.5 29.5t-28.5 77.5q0 49 35.5 80t89.5 31q53 0 91 -33.5t38 -117.5zM208 191q4 87 -45 87q-41 0 -41 -56q0 -57 38 -57q35 0 48 26z" />
    <glyph glyph-name="questiondown.caps" horiz-adv-x="444" 
d="M334 543q0 -27 -19 -46t-46 -19t-46 19t-19 46t19 46t46 19t46 -19t19 -46zM421 47q-31 -28 -84.5 -46t-105.5 -18q-86 0 -144.5 40t-58.5 117q0 66 42 109.5t123 81.5l32 15l10 76h68l10 -126l-46 -22q-68 -32 -93 -61t-25 -65q0 -37 26.5 -56.5t69.5 -19.5
q42 0 91.5 21.5t84.5 54.5v-101z" />
    <glyph glyph-name="exclamdown.caps" horiz-adv-x="265" 
d="M197 543q0 -27 -19 -46t-46 -19t-46 19t-19 46t19 46t46 19t46 -19t19 -46zM206 0h-146l39 422h67z" />
    <glyph glyph-name="at.caps" horiz-adv-x="706" 
d="M674 354q0 -97 -62 -172.5t-131 -75.5q-55 0 -72 48q-40 -51 -96 -51q-63 0 -93.5 54t-16.5 133q14 76 69 130t121 54q34 0 64 -17h69l-44 -250q-5 -29 1 -42t25 -13q40 0 77.5 58.5t37.5 141.5q0 95 -67.5 154t-160.5 59q-118 0 -202.5 -88t-84.5 -207q0 -120 75 -192.5
t186 -72.5q112 0 215 64l16 -31q-107 -77 -239 -77q-138 0 -232.5 88t-94.5 218q0 145 104.5 248t251.5 103q121 0 202.5 -73.5t81.5 -190.5zM444 406q-20 18 -50 18q-40 0 -69.5 -37t-40.5 -99q-22 -129 52 -129q26 0 49.5 24t30.5 61z" />
    <glyph glyph-name="zero.small" horiz-adv-x="452" 
d="M414 218q0 -106 -53 -168t-135 -62t-135 62t-53 168t53 167.5t135 61.5t135 -61.5t53 -167.5zM303 218q0 145 -77 145t-77 -145q0 -146 77 -146t77 146z" />
    <glyph glyph-name="one.small" horiz-adv-x="264" 
d="M191 0h-111v353h-46v66l157 24v-443z" />
    <glyph glyph-name="two.small" horiz-adv-x="363" 
d="M327 0h-303v55l103 109q26 27 40 43t26.5 41t12.5 49q0 31 -19 46.5t-45 15.5q-52 0 -107 -46v88q20 17 59.5 31t73.5 14q64 0 107 -36t43 -96q0 -85 -89 -164l-73 -65h171v-85z" />
    <glyph glyph-name="three.small" horiz-adv-x="382" 
d="M347 138q0 -69 -49.5 -109.5t-121.5 -40.5q-90 0 -139 46v86q53 -53 120 -53q37 0 59.5 19.5t22.5 53.5q0 63 -65 63q-29 0 -54 -21l-44 50l122 116h-160v85h302v-50l-115 -109q53 -6 87.5 -42t34.5 -94z" />
    <glyph glyph-name="four.small" horiz-adv-x="437" 
d="M408 101h-79v-101h-107v101h-196v55l207 278h96v-258h79v-75zM222 176v132l-97 -132h97z" />
    <glyph glyph-name="five.small" horiz-adv-x="380" 
d="M345 141q0 -70 -48.5 -111.5t-120.5 -41.5q-90 0 -139 46v86q55 -53 120 -53q37 0 58 19.5t21 52.5q0 30 -18.5 46.5t-50.5 16.5q-48 0 -68 -36l-47 20v247h275v-85h-189v-84q23 17 66 17q63 0 102 -38t39 -102z" />
    <glyph glyph-name="six.small" horiz-adv-x="414" 
d="M40 193q0 118 52.5 185.5t147.5 67.5q71 0 111 -30v-78q-51 29 -97 29q-99 0 -105 -118q13 14 39.5 24.5t52.5 10.5q61 0 99 -41t38 -104q0 -67 -47 -109t-118 -42q-32 0 -59.5 8.5t-54.5 29.5t-43 64t-16 103zM147 177q-2 -118 64 -118q28 0 44.5 21.5t16.5 54.5
q0 76 -58 76q-47 0 -67 -34z" />
    <glyph glyph-name="seven.small" horiz-adv-x="366" 
d="M340 384q-37 -58 -90.5 -176t-68.5 -208h-113q18 87 71 196t83 152h-202v85h320v-49z" />
    <glyph glyph-name="eight.small" horiz-adv-x="427" 
d="M390 120q0 -60 -50.5 -96t-125.5 -36q-76 0 -126.5 36t-50.5 96q0 85 97 121q-71 30 -71 97q0 48 44.5 78.5t106.5 30.5q61 0 105.5 -30.5t44.5 -78.5q0 -67 -70 -97q96 -35 96 -121zM265 337q0 20 -14.5 32t-36.5 12t-37 -12t-15 -32q0 -19 13.5 -35.5t38.5 -23.5
q24 7 37.5 23.5t13.5 35.5zM282 121q0 58 -68 79q-69 -21 -69 -79q0 -27 19.5 -45t49.5 -18q31 0 49.5 18t18.5 45z" />
    <glyph glyph-name="nine.small" horiz-adv-x="414" 
d="M374 242q0 -118 -52.5 -185.5t-147.5 -67.5q-71 0 -111 30v78q51 -29 97 -29q99 0 105 118q-13 -14 -39.5 -24.5t-52.5 -10.5q-61 0 -99 41t-38 104q0 67 47 109t118 42q32 0 59.5 -8.5t54.5 -29.5t43 -64t16 -103zM267 258q2 118 -64 118q-28 0 -44.5 -21.5t-16.5 -54.5
q0 -76 58 -76q47 0 67 34z" />
    <glyph glyph-name="onequarter.small" horiz-adv-x="505" 
d="M455 47h-44v-47h-72v47h-105v35l112 150h65v-137h44v-48zM150 202h-71v183h-26v40l97 13v-236zM339 95v68l-52 -68h52zM388 430l-277 -444l-34 17l277 444z" />
    <glyph glyph-name="onehalf.small" horiz-adv-x="510" 
d="M461 0h-176v31l52 53q46 46 46 73q0 14 -10 21.5t-22 7.5q-27 0 -60 -26v54q31 23 78 23q36 0 61 -19.5t25 -52.5q0 -44 -50 -86l-33 -28h89v-51zM150 202h-71v183h-26v40l97 13v-236zM388 430l-277 -444l-34 17l277 444z" />
    <glyph glyph-name="threequarters.small" horiz-adv-x="541" 
d="M491 47h-44v-47h-72v47h-105v35l112 150h65v-137h44v-48zM431 430l-277 -444l-34 17l277 444zM230 276q0 -37 -28.5 -58.5t-70.5 -21.5q-52 0 -80 25v50q30 -27 67 -27q41 0 41 34q0 14 -8.5 22t-22.5 8q-18 0 -31 -13l-24 27l67 60h-88v51h173v-31l-60 -53
q28 -5 46.5 -24t18.5 -49zM375 95v68l-51 -68h51z" />
    <glyph glyph-name="periodcentered.small" horiz-adv-x="254" 
d="M195 225q0 -29 -19.5 -48.5t-48.5 -19.5t-48.5 19.5t-19.5 48.5q0 28 20 47.5t48 19.5t48 -19.5t20 -47.5z" />
    <glyph glyph-name="hyphen.allsmall" horiz-adv-x="297" 
d="M253 187h-209v76h209v-76z" />
    <glyph glyph-name="endash.allsmall" horiz-adv-x="404" 
d="M405 194h-406v62h406v-62z" />
    <glyph glyph-name="emdash.allsmall" horiz-adv-x="646" 
d="M647 194h-648v62h648v-62z" />
    <glyph glyph-name="at.small" horiz-adv-x="635" 
d="M607 219q0 -88 -56 -155.5t-118 -67.5q-50 0 -65 43q-37 -46 -86 -46q-57 0 -84.5 48.5t-14.5 119.5q12 68 62 117t109 49q29 0 57 -16h62l-39 -225q-5 -27 0.5 -38t22.5 -11q36 0 70 53t34 127q0 86 -60.5 139t-145.5 53q-106 0 -182 -79.5t-76 -186.5t67.5 -172.5
t167.5 -65.5q102 0 194 57l14 -28q-96 -69 -215 -69q-124 0 -209 79t-85 196q0 130 94 223t226 93q109 0 182.5 -66t73.5 -171zM400 265q-17 17 -45 17q-36 0 -63 -33.5t-36 -89.5q-18 -116 46 -116q24 0 45 21.5t27 55.5z" />
    <glyph glyph-name="asciitilde.small" horiz-adv-x="445" 
d="M380 289q0 -131 -90 -131q-23 0 -71.5 27.5t-70.5 27.5q-17 0 -25.5 -11t-15.5 -40h-43q0 131 90 131q23 0 71.5 -27.5t70.5 -27.5q17 0 25.5 11t15.5 40h43z" />
    <glyph glyph-name="dollar.allsmall" horiz-adv-x="376" 
d="M344 137q0 -122 -138 -137v-64h-34v63q-86 3 -144 52l22 77q63 -48 122 -52v101q-75 20 -105.5 52t-30.5 81q0 55 37 87.5t99 36.5v59h34v-59q69 -6 116 -39l-21 -72q-47 28 -95 33v-78q73 -19 105.5 -53t32.5 -88zM172 287v70q-39 -5 -39 -35q0 -25 39 -35zM248 123
q0 30 -42 44v-89q42 6 42 45z" />
    <glyph glyph-name="cent.allsmall" horiz-adv-x="370" 
d="M249 33v-71h-35v69q-77 2 -128 53t-51 129t51 128.5t128 52.5v73h35v-75q59 -6 96 -34v-84q-41 35 -96 37v-197q56 2 96 37v-84q-37 -28 -96 -34zM214 118v189q-30 -9 -48.5 -33t-18.5 -61t18.5 -61.5t48.5 -33.5z" />
    <glyph glyph-name="Euro.allsmall" horiz-adv-x="428" 
d="M386 20q-42 -30 -116 -30q-76 0 -126 43t-65 122h-45v40h40v43h-40v40h45q13 79 63.5 123t127.5 44q69 0 116 -30v-85q-39 34 -100 34q-41 0 -64.5 -19.5t-31.5 -66.5h111v-40h-114q-1 -6 -1 -20q0 -16 1 -23h114v-40h-111q9 -46 32 -65t64 -19q58 0 100 34v-85z" />
    <glyph glyph-name="sterling.allsmall" horiz-adv-x="418" 
d="M370 0h-339v79q39 0 52.5 13.5t13.5 57.5v40h-56v64h56v17q0 174 151 174q63 0 104 -30v-81q-45 33 -90 33q-34 0 -50.5 -20.5t-16.5 -73.5v-19h107v-64h-107v-11q0 -75 -41 -100h216v-79z" />
    <glyph glyph-name="yen.allsmall" horiz-adv-x="471" 
d="M462 433l-146 -221h60v-40h-84v-41h84v-40h-84v-91h-112v91h-85v40h85v41h-85v40h60l-144 221h122l105 -168l104 168h120z" />
    <glyph glyph-name="percent.allsmall" horiz-adv-x="521" 
d="M248 336q0 -46 -29.5 -77t-75.5 -31t-75.5 31t-29.5 77q0 45 29.5 76.5t75.5 31.5t75.5 -31.5t29.5 -76.5zM484 100q0 -46 -29.5 -77.5t-75.5 -31.5t-76 31.5t-30 77.5q0 45 30 76t76 31t75.5 -31t29.5 -76zM181 336q0 58 -38 58t-38 -58t38 -58t38 58zM416 100
q0 57 -37 57q-38 0 -38 -57q0 -58 38 -58q37 0 37 58zM416 430l-277 -444l-34 17l277 444z" />
    <glyph glyph-name="perthousand.allsmall" horiz-adv-x="763" 
d="M726 100q0 -46 -30 -77.5t-76 -31.5t-75.5 31.5t-29.5 77.5q0 45 29.5 76t75.5 31t76 -31t30 -76zM659 100q0 57 -39 57q-37 0 -37 -57q0 -58 37 -58q39 0 39 58zM248 336q0 -46 -29.5 -77t-75.5 -31t-75.5 31t-29.5 77q0 45 29.5 76.5t75.5 31.5t75.5 -31.5t29.5 -76.5z
M484 100q0 -46 -29.5 -77.5t-75.5 -31.5t-76 31.5t-30 77.5q0 45 30 76t76 31t75.5 -31t29.5 -76zM181 336q0 58 -38 58t-38 -58t38 -58t38 58zM416 100q0 57 -37 57q-38 0 -38 -57q0 -58 38 -58q37 0 37 58zM416 430l-277 -444l-34 17l277 444z" />
    <glyph glyph-name="plus.allsmall" horiz-adv-x="454" 
d="M406 190h-145v-146h-67v146h-146v67h146v145h67v-145h145v-67z" />
    <glyph glyph-name="minus.allsmall" horiz-adv-x="454" 
d="M375 190h-295v67h295v-67z" />
    <glyph glyph-name="multiply.allsmall" horiz-adv-x="454" 
d="M387 111l-47 -48l-112 113l-113 -113l-48 48l113 112l-112 112l48 48l111 -112l112 112l48 -49l-112 -111z" />
    <glyph glyph-name="divide.allsmall" horiz-adv-x="454" 
d="M278 361q0 -20 -15.5 -35.5t-36.5 -15.5q-20 0 -35 15.5t-15 35.5q0 22 15 37.5t35 15.5q21 0 36.5 -15.5t15.5 -37.5zM406 191h-358v67h358v-67zM278 86q0 -21 -15.5 -36t-36.5 -15q-20 0 -35 15t-15 36q0 22 15 37.5t35 15.5q21 0 36.5 -15.5t15.5 -37.5z" />
    <glyph glyph-name="equal.allsmall" horiz-adv-x="454" 
d="M373 259h-292v67h292v-67zM373 121h-292v67h292v-67z" />
    <glyph glyph-name="notequal.allsmall" horiz-adv-x="454" 
d="M373 122h-188l-65 -95l-35 22l49 73h-53v67h97l48 70h-145v68h189l64 95l35 -23l-49 -72h53v-68h-97l-47 -70h144v-67z" />
    <glyph glyph-name="approxequal.allsmall" horiz-adv-x="454" 
d="M370 276q-35 -33 -74 -33q-23 0 -70.5 16.5t-67.5 16.5q-17 0 -35.5 -8t-28.5 -16l-11 -9v67q36 33 75 33q23 0 70.5 -16.5t67.5 -16.5q17 0 35.5 8t28.5 16l10 9v-67zM370 138q-35 -33 -74 -33q-23 0 -70.5 16.5t-67.5 16.5q-17 0 -35.5 -8t-28.5 -16l-11 -9v68
q36 33 75 33q23 0 70.5 -16.5t67.5 -16.5q17 0 35.5 8.5t28.5 16.5l10 8v-68z" />
    <glyph glyph-name="less.allsmall" horiz-adv-x="454" 
d="M402 58l-34 -50l-314 217l314 218l34 -50l-233 -168z" />
    <glyph glyph-name="greater.allsmall" horiz-adv-x="454" 
d="M87 443l314 -218l-314 -217l-35 50l234 167l-234 168z" />
    <glyph glyph-name="degree.allsmall" horiz-adv-x="385" 
d="M341 289q0 -62 -44 -106t-106 -44t-106 44t-44 106q0 61 44.5 105.5t105.5 44.5q62 0 106 -44t44 -106zM286 289q0 39 -27.5 67t-67.5 28q-39 0 -66.5 -28t-27.5 -67t27.5 -67t66.5 -28q40 0 67.5 28t27.5 67z" />
    <glyph glyph-name="infinity.allsmall" horiz-adv-x="698" 
d="M661 223q0 -57 -39.5 -96.5t-101.5 -39.5q-37 0 -84.5 28.5t-85.5 65.5q-40 -38 -88 -66t-84 -28q-63 0 -102 39t-39 97t39 97.5t102 39.5q37 0 84.5 -28.5t87.5 -66.5q37 37 85 66t85 29q63 0 102 -39.5t39 -97.5zM523 296q-45 0 -128 -73q86 -73 128 -73q30 0 50.5 22
t20.5 51q0 30 -20.5 51.5t-50.5 21.5zM175 296q-30 0 -50.5 -21.5t-20.5 -51.5q0 -29 20.5 -51t50.5 -22q43 0 121 73q-78 73 -121 73z" />
    <glyph glyph-name="logicalnot.allsmall" horiz-adv-x="562" 
d="M453 80h-67v112h-305v67h372v-179z" />
    <glyph glyph-name="pi.allsmall" horiz-adv-x="524" 
d="M496 345h-55v-345h-112v345h-134v-345h-112v345h-55v88h468v-88z" />
    <glyph glyph-name="ordfeminine.allsmall" horiz-adv-x="440" 
d="M427 214h-100l-35 85h-148l-34 -85h-97l165 390h84zM219 493l-50 -128h99z" />
    <glyph glyph-name="ordmasculine.allsmall" horiz-adv-x="496" 
d="M463 409q0 -88 -63 -147t-153 -59t-152.5 59t-62.5 147t62.5 146.5t152.5 58.5t153 -58.5t63 -146.5zM358 409q0 58 -30 92.5t-81 34.5q-50 0 -80 -34.5t-30 -92.5q0 -57 30 -92.5t80 -35.5q51 0 81 35.5t30 92.5z" />
    <glyph glyph-name="question.allsmall" horiz-adv-x="347" 
d="M318 331q0 -49 -29.5 -80t-91.5 -59l-17 -7l-10 -46h-61l-10 91l33 16q42 21 58 38t16 38q0 43 -54 43q-62 0 -126 -55v88q24 21 63 34.5t78 13.5q65 0 108 -29t43 -86zM194 49q0 -23 -16 -39t-39 -16t-38.5 16t-15.5 39t16 39t38 16q23 0 39 -16t16 -39z" />
    <glyph glyph-name="questiondown.allsmall" horiz-adv-x="347" 
d="M153 384q0 23 16 39t39 16t38.5 -16t15.5 -39t-16 -39t-38 -16t-38.5 16.5t-16.5 38.5zM29 102q0 50 29.5 81.5t91.5 57.5l17 7l10 46h61l10 -91l-33 -16q-42 -21 -58 -38t-16 -38q0 -43 54 -43q62 0 126 55v-88q-24 -21 -63 -34.5t-78 -13.5q-65 0 -108 29t-43 86z" />
    <glyph glyph-name="exclam.allsmall" horiz-adv-x="226" 
d="M181 433l-38 -294h-61l-37 294h136zM167 49q0 -23 -16 -39t-39 -16t-38.5 16t-15.5 39t16 39t38 16q23 0 39 -16t16 -39z" />
    <glyph glyph-name="exclamdown.allsmall" horiz-adv-x="226" 
d="M167 385q0 -23 -16 -39.5t-39 -16.5q-22 0 -38 16.5t-16 39.5t16 38.5t38 15.5q23 0 39 -15.5t16 -38.5zM181 0h-136l37 294h61z" />
    <glyph glyph-name="bullet.allsmall" horiz-adv-x="283" 
d="M142 353q37 0 62.5 -25.5t25.5 -62.5t-25.5 -63t-62.5 -26t-63 26t-26 63t26 62.5t63 25.5z" />
    <glyph glyph-name="asterisk.allsmall" horiz-adv-x="407" 
d="M366 164q-10 -18 -29.5 -22.5t-37.5 6.5q-12 7 -33 35.5t-48 48.5q4 -33 18 -64.5t14 -45.5q0 -21 -13 -36.5t-33 -15.5t-33.5 15.5t-13.5 36.5q0 13 14.5 45t18.5 65q-27 -19 -48 -47.5t-33 -35.5q-18 -10 -37.5 -5.5t-29.5 20.5q-10 17 -4 37t24 30q11 6 46 9.5
t67 16.5q-32 14 -66.5 17.5t-45.5 10.5q-18 11 -24.5 30t3.5 36q10 18 29.5 22.5t37.5 -6.5q12 -7 33 -36t48 -49q-4 33 -18 65.5t-14 46.5q0 21 13 36t33 15t33.5 -15t13.5 -36q0 -15 -14.5 -47t-18.5 -64q27 20 48 48t33 35q18 10 38 6t29 -21q10 -18 4 -37t-24 -30
q-11 -6 -46.5 -9.5t-67.5 -17.5q31 -13 66 -16.5t47 -10.5q18 -11 24.5 -30t-3.5 -36z" />
    <glyph glyph-name="quotesingle.allsmall" horiz-adv-x="237" 
d="M177 383q0 -14 -18.5 -69.5t-23.5 -117.5h-36q-5 62 -23.5 117.5t-18.5 69.5q0 25 18 43.5t42 18.5q25 0 42.5 -18t17.5 -44z" />
    <glyph glyph-name="quotedbl.allsmall" horiz-adv-x="414" 
d="M356 383q0 -14 -18.5 -69.5t-23.5 -117.5h-36q-5 62 -23.5 117.5t-18.5 69.5q0 25 18 43.5t42 18.5q25 0 42.5 -18t17.5 -44zM177 383q0 -14 -18.5 -69.5t-23.5 -117.5h-36q-5 62 -23.5 117.5t-18.5 69.5q0 25 18 43.5t42 18.5q25 0 42.5 -18t17.5 -44z" />
    <glyph glyph-name="quoteleft.allsmall" horiz-adv-x="242" 
d="M165 447l25 -25q-32 -33 -47 -55.5t-19 -50.5h5q23 -2 39.5 -19.5t16.5 -41.5t-18 -42t-43 -18q-28 0 -47.5 20t-19.5 56q0 45 28 94.5t80 81.5z" />
    <glyph glyph-name="quoteright.allsmall" horiz-adv-x="242" 
d="M184 369q0 -45 -27.5 -94t-79.5 -81l-25 24q32 33 47 55.5t19 50.5h-5q-24 1 -40 19t-16 42t18 42t43 18q27 0 46.5 -20t19.5 -56z" />
    <glyph glyph-name="quotedblleft.allsmall" horiz-adv-x="423" 
d="M165 447l25 -25q-32 -33 -47 -55.5t-19 -50.5h5q23 -2 39.5 -19.5t16.5 -41.5t-18 -42t-43 -18q-28 0 -47.5 20t-19.5 56q0 45 28 94.5t80 81.5zM347 447l24 -25q-32 -32 -46.5 -55t-18.5 -51h5q23 -1 39 -19t16 -42t-18 -42t-43 -18q-27 0 -46.5 20t-19.5 56
q0 45 28 94.5t80 81.5z" />
    <glyph glyph-name="quotedblright.allsmall" horiz-adv-x="423" 
d="M366 369q0 -45 -28 -94t-80 -81l-24 24q32 32 46.5 55t18.5 51h-5q-23 1 -39 19t-16 42t18 42t43 18q27 0 46.5 -20t19.5 -56zM184 369q0 -45 -27.5 -94t-79.5 -81l-25 24q32 33 47 55.5t19 50.5h-5q-24 1 -40 19t-16 42t18 42t43 18q27 0 46.5 -20t19.5 -56z" />
    <glyph glyph-name="guillemotleft.allsmall" horiz-adv-x="435" 
d="M407 111l-27 -31l-181 145l181 144l27 -32l-116 -113zM279 74l-27 -32l-224 183l224 181l27 -31l-151 -151z" />
    <glyph glyph-name="guillemotright.allsmall" horiz-adv-x="436" 
d="M408 225l-224 -183l-27 32l151 150l-151 151l27 31zM237 225l-182 -145l-27 31l116 113l-116 113l27 32z" />
    <glyph glyph-name="guilsinglleft.allsmall" horiz-adv-x="307" 
d="M279 74l-27 -32l-224 183l224 181l27 -31l-146 -151z" />
    <glyph glyph-name="guilsinglright.allsmall" horiz-adv-x="307" 
d="M279 225l-224 -183l-27 32l146 150l-146 151l27 31z" />
    <glyph glyph-name="parenleft.allsmall" horiz-adv-x="265" 
d="M235 -81l-23 -19q-70 57 -109.5 139.5t-39.5 173.5t39.5 173.5t108.5 139.5l24 -19q-36 -40 -65.5 -120t-29.5 -174t29.5 -174t65.5 -120z" />
    <glyph glyph-name="parenright.allsmall" horiz-adv-x="265" 
d="M202 213q0 -91 -39.5 -173.5t-109.5 -139.5l-23 19q36 40 65.5 120t29.5 174t-29.5 174t-65.5 120l24 19q69 -57 108.5 -139.5t39.5 -173.5z" />
    <glyph glyph-name="bracketleft.allsmall" horiz-adv-x="268" 
d="M226 -84h-135v593h135v-42h-61v-508h61v-43z" />
    <glyph glyph-name="bracketright.allsmall" horiz-adv-x="268" 
d="M177 -84h-135v43h61v508h-61v42h135v-593z" />
    <glyph glyph-name="braceleft.allsmall" horiz-adv-x="264" 
d="M221 -75l-19 -25q-53 30 -75 63.5t-22 103.5q0 72 -13.5 97.5t-48.5 37.5v24q35 12 48.5 37t13.5 97q0 70 22 103.5t75 63.5l19 -24q-27 -20 -33 -48t-6 -99q0 -73 -21 -102.5t-64 -39.5q43 -11 64 -40.5t21 -102.5q0 -71 6 -99t33 -47z" />
    <glyph glyph-name="braceright.allsmall" horiz-adv-x="264" 
d="M220 202q-35 -12 -48.5 -37.5t-13.5 -97.5q0 -70 -22 -103.5t-75 -63.5l-18 25q27 19 32.5 46.5t5.5 99.5t21 102t64 41q-43 10 -64 40t-21 102q0 52 -1 71.5t-9.5 40.5t-27.5 35l18 24q53 -30 75 -63.5t22 -103.5q0 -72 13.5 -97t48.5 -37v-24z" />
    <glyph glyph-name="slash.allsmall" horiz-adv-x="271" 
d="M255 434l-201 -449l-38 14l201 451z" />
    <glyph glyph-name="backslash.allsmall" horiz-adv-x="271" 
d="M255 -1l-39 -14l-201 449l39 16z" />
    <glyph glyph-name="bar.allsmall" horiz-adv-x="200" 
d="M123 -69h-46v564h46v-564z" />
    <glyph glyph-name="ampersand.allsmall" horiz-adv-x="505" 
d="M498 46q-38 -57 -99 -57q-50 0 -93 31q-41 -31 -101 -31q-70 0 -117.5 33t-47.5 91q0 67 77 117q-32 55 -32 102q0 48 40.5 80.5t97.5 32.5q53 0 87 -28t34 -70q0 -21 -8.5 -39t-29.5 -35t-33.5 -25.5t-41.5 -25.5q28 -40 65 -75q7 33 7 86h141v-64h-66q-4 -54 -21 -86
q27 -25 54 -25q26 0 54 30zM257 347q0 14 -10 23.5t-26 9.5q-22 0 -33 -14.5t-11 -33.5q0 -24 16 -58q64 37 64 73zM249 69q-54 50 -89 99q-19 -24 -19 -47q0 -27 18.5 -45t50.5 -18q20 0 39 11z" />
    <glyph glyph-name="numbersign.allsmall" horiz-adv-x="353" 
d="M328 343l-9 -51h-52l-14 -83h53l-9 -51h-53l-15 -90h-50l15 90h-69l-15 -90h-49l15 90h-52l8 51h53l13 83h-52l9 51h52l16 90h49l-15 -90h69l15 90h50l-15 -90h52zM217 292h-69l-13 -83h69z" />
    <glyph glyph-name="copyright.allsmall" horiz-adv-x="514" 
d="M486 217q0 -95 -66.5 -162t-161.5 -67t-162 67t-67 162t67 161.5t162 66.5q94 0 161 -66.5t67 -161.5zM454 217q0 82 -57 139t-139 57t-139.5 -57t-57.5 -139q0 -83 57.5 -140t139.5 -57t139 57.5t57 139.5zM359 102q-37 -27 -94 -27q-60 0 -102 39t-42 103q0 63 42 102
t102 39q57 0 94 -27v-60q-40 31 -85 31q-34 0 -57.5 -22.5t-23.5 -62.5t23.5 -62.5t57.5 -22.5q48 0 85 30v-60z" />
    <glyph glyph-name="Q.alt" horiz-adv-x="726" 
d="M560 300q0 98 -54 159t-142 61q-90 0 -144.5 -61t-54.5 -159t54.5 -159t144.5 -61q88 0 142 61t54 159zM461 -4l27 -47q21 -37 42.5 -51.5t51.5 -14.5q47 0 79 37l37 -50q-50 -69 -146 -69q-112 0 -171 111l-39 72q-131 8 -218 96.5t-87 219.5q0 137 94 227t233 90
q138 0 231 -90t93 -227q0 -111 -62.5 -193t-164.5 -111z" />
    <glyph glyph-name="R.alt" horiz-adv-x="580" 
d="M385 252l178 -252h-134l-166 239h-75v-239h-122v600h236q101 0 152 -51.5t51 -129.5q0 -62 -31.5 -106.5t-88.5 -60.5zM188 513v-188h94q103 0 103 93q0 95 -103 95h-94z" />
    <glyph glyph-name="a.alt" horiz-adv-x="504" 
d="M474 9q-22 -18 -65 -18q-71 0 -84 52q-19 -28 -53.5 -42t-69.5 -14q-70 0 -116.5 52.5t-46.5 131.5t46.5 131t116.5 52q35 0 69.5 -14t53.5 -42l24 47h82v-265q0 -33 22 -33q9 0 21 4v-42zM234 272q-37 0 -60 -26.5t-23 -74.5t23 -75t60 -27q27 0 50 14t35 35v105
q-12 21 -35 35t-50 14z" />
    <glyph glyph-name="aacute.alt" horiz-adv-x="504" 
d="M477 9q-22 -18 -65 -18q-71 0 -84 52q-19 -28 -53.5 -42t-69.5 -14q-70 0 -116.5 52.5t-46.5 131.5t46.5 131t116.5 52q35 0 69.5 -14t53.5 -42l24 47h82v-265q0 -33 22 -33q9 0 21 4v-42zM237 272q-37 0 -60 -26.5t-23 -74.5t23 -75t60 -27q27 0 50 14t35 35v105
q-12 21 -35 35t-50 14zM357 506q0 -22 -26 -35l-140 -68l-18 28l102 85q31 25 47 25q14 0 24.5 -10.5t10.5 -24.5z" />
    <glyph glyph-name="acircumflex.alt" horiz-adv-x="504" 
d="M477 9q-22 -18 -65 -18q-71 0 -84 52q-19 -28 -53.5 -42t-69.5 -14q-70 0 -116.5 52.5t-46.5 131.5t46.5 131t116.5 52q35 0 69.5 -14t53.5 -42l24 47h82v-265q0 -33 22 -33q9 0 21 4v-42zM237 272q-37 0 -60 -26.5t-23 -74.5t23 -75t60 -27q27 0 50 14t35 35v105
q-12 21 -35 35t-50 14zM383 441l-33 -34l-98 76l-97 -76l-33 34l130 121z" />
    <glyph glyph-name="adieresis.alt" horiz-adv-x="504" 
d="M477 9q-22 -18 -65 -18q-71 0 -84 52q-19 -28 -53.5 -42t-69.5 -14q-70 0 -116.5 52.5t-46.5 131.5t46.5 131t116.5 52q35 0 69.5 -14t53.5 -42l24 47h82v-265q0 -33 22 -33q9 0 21 4v-42zM237 272q-37 0 -60 -26.5t-23 -74.5t23 -75t60 -27q27 0 50 14t35 35v105
q-12 21 -35 35t-50 14zM396 460q0 -22 -15 -37.5t-37 -15.5q-21 0 -36 15.5t-15 37.5q0 21 15 36t36 15q22 0 37 -15t15 -36zM215 460q0 -22 -15 -37.5t-37 -15.5t-37 15.5t-15 37.5q0 21 15 36t37 15t37 -15t15 -36z" />
    <glyph glyph-name="agrave.alt" horiz-adv-x="504" 
d="M327 431l-18 -28l-140 68q-26 13 -26 35q0 14 10.5 24.5t24.5 10.5q16 0 47 -25zM477 9q-22 -18 -65 -18q-71 0 -84 52q-19 -28 -53.5 -42t-69.5 -14q-70 0 -116.5 52.5t-46.5 131.5t46.5 131t116.5 52q35 0 69.5 -14t53.5 -42l24 47h82v-265q0 -33 22 -33q9 0 21 4v-42z
M237 272q-37 0 -60 -26.5t-23 -74.5t23 -75t60 -27q27 0 50 14t35 35v105q-12 21 -35 35t-50 14z" />
    <glyph glyph-name="aring.alt" horiz-adv-x="504" 
d="M477 9q-22 -18 -65 -18q-71 0 -84 52q-19 -28 -53.5 -42t-69.5 -14q-70 0 -116.5 52.5t-46.5 131.5t46.5 131t116.5 52q35 0 69.5 -14t53.5 -42l24 47h82v-265q0 -33 22 -33q9 0 21 4v-42zM237 272q-37 0 -60 -26.5t-23 -74.5t23 -75t60 -27q27 0 50 14t35 35v105
q-12 21 -35 35t-50 14zM351 506q0 -41 -28.5 -69.5t-70.5 -28.5t-70.5 28.5t-28.5 69.5q0 42 28.5 70.5t70.5 28.5t70.5 -28.5t28.5 -70.5zM303 506q0 22 -15 37t-36 15t-36 -15t-15 -37q0 -21 15 -35.5t36 -14.5t36 14.5t15 35.5z" />
    <glyph glyph-name="atilde.alt" horiz-adv-x="504" 
d="M477 9q-22 -18 -65 -18q-71 0 -84 52q-19 -28 -53.5 -42t-69.5 -14q-70 0 -116.5 52.5t-46.5 131.5t46.5 131t116.5 52q35 0 69.5 -14t53.5 -42l24 47h82v-265q0 -33 22 -33q9 0 21 4v-42zM237 272q-37 0 -60 -26.5t-23 -74.5t23 -75t60 -27q27 0 50 14t35 35v105
q-12 21 -35 35t-50 14zM387 520q0 -53 -20.5 -80.5t-55.5 -27.5q-22 0 -63 24.5t-58 24.5q-15 0 -21.5 -10t-8.5 -35h-44q0 53 20.5 80.5t55.5 27.5q22 0 63 -24.5t58 -24.5q16 0 22 9.5t9 35.5h43z" />
    <glyph glyph-name="g.alt" horiz-adv-x="491" 
d="M234 69q27 0 50 14t35 35v105q-12 21 -35 35t-50 14q-37 0 -60 -27t-23 -75t23 -74.5t60 -26.5zM431 2q0 -201 -204 -201q-84 0 -159 44l6 82q72 -43 148 -43q44 0 70.5 28t26.5 85v37q-43 -47 -117 -47q-70 0 -116.5 52t-46.5 131t46.5 131.5t116.5 52.5q35 0 69.5 -14
t53.5 -42l24 47h82v-343z" />
    <glyph glyph-name="g.alt2" horiz-adv-x="432" 
d="M206 354q22 0 60.5 -7.5t65.5 -7.5h71v-74h-48q13 -15 13 -48q0 -57 -43 -94.5t-101 -43.5q-42 -5 -58 -12.5t-16 -23.5q0 -26 54 -28q103 -4 148.5 -41.5t45.5 -92.5q0 -68 -56 -108t-139 -40q-87 0 -137 31.5t-50 82.5q0 32 25.5 58.5t64.5 33.5q-59 26 -59 78
q0 26 20.5 48.5t51.5 32.5q-34 15 -56.5 47t-22.5 72q0 55 45.5 96t120.5 41zM207 288q-29 0 -47 -19t-18 -52t18 -52t47 -19q28 0 46 19.5t18 51.5t-18 51.5t-46 19.5zM298 -139q0 57 -102 57q-35 0 -59 -17t-24 -38q0 -56 93 -56q41 0 66.5 15t25.5 39z" />
    <glyph glyph-name="g.alt3" horiz-adv-x="432" 
d="M207 288q-29 0 -47 -19t-18 -52t18 -52t47 -19q28 0 46.5 19.5t18.5 51.5t-18.5 51.5t-46.5 19.5zM298 331q18 29 50.5 48t71.5 19v-98q-42 12 -79 -7q27 -35 27 -76q0 -57 -43.5 -95t-102.5 -43q-41 -4 -57 -11.5t-16 -23.5q0 -14 18 -20t61 -10q175 -17 175 -138
q0 -64 -56 -103.5t-138 -39.5q-84 0 -138.5 30t-54.5 73q0 32 22 52.5t50 26.5l51 -18q-27 -13 -27 -41q0 -23 26.5 -36t66.5 -13q43 0 68 15.5t25 39.5q0 25 -23 38.5t-77 18.5q-151 12 -151 98q0 26 21 49t51 32q-34 15 -56.5 47t-22.5 72q0 55 45.5 96t120.5 41
q51 0 92 -23z" />
    <glyph glyph-name="g.alt4" horiz-adv-x="432" 
d="M298 -139q0 57 -102 57q-35 0 -59 -17t-24 -38q0 -56 93 -56q41 0 66.5 15t25.5 39zM207 288q-29 0 -47 -19t-18 -52t18 -52t47 -19q28 0 46 19.5t18 51.5t-18 51.5t-46 19.5zM298 331q18 29 50.5 48t71.5 19v-98q-42 12 -79 -6q27 -37 27 -77q0 -57 -43 -94.5
t-101 -43.5q-42 -5 -58 -12.5t-16 -23.5q0 -26 54 -28q103 -4 148.5 -41.5t45.5 -92.5q0 -68 -56 -108t-139 -40q-87 0 -137 31.5t-50 82.5q0 32 25.5 58.5t64.5 33.5q-59 26 -59 78q0 26 20.5 48.5t51.5 32.5q-34 15 -56.5 47t-22.5 72q0 55 45.5 96t120.5 41q51 0 92 -23z
" />
    <glyph glyph-name="j.alt" horiz-adv-x="230" 
d="M175 497q0 -25 -18 -43t-42 -18q-25 0 -42.5 18t-17.5 43t17.5 42.5t42.5 17.5q24 0 42 -17.5t18 -42.5zM171 -68q0 -58 -32 -94.5t-91 -36.5q-27 0 -51 8.5t-33 17.5v67q23 -18 49 -18q25 0 35.5 14t10.5 52v399l112 12v-421z" />
    <glyph glyph-name="l.alt" horiz-adv-x="230" 
d="M171 0h-112v600l112 12v-612z" />
    <glyph glyph-name="lslash.alt" horiz-adv-x="230" 
d="M245 368l-74 -48v-320h-112v252l-48 -32l-25 42l73 47v291l112 12v-234l49 32z" />
    <glyph glyph-name="p.alt" horiz-adv-x="490" 
d="M451 170q0 -79 -46.5 -131t-116.5 -52q-74 0 -117 47v-229h-112v529l101 11l5 -47q19 28 53.5 42t69.5 14q70 0 116.5 -52.5t46.5 -131.5zM256 69q37 0 60 26.5t23 74.5t-23 75t-60 27q-27 0 -50 -14t-35 -35v-105q12 -21 35 -35t50 -14z" />
    <glyph glyph-name="q.alt" horiz-adv-x="490" 
d="M39 170q0 79 46.5 131.5t116.5 52.5q35 0 69.5 -14t53.5 -42l24 47h82v-540h-112v229q-43 -47 -117 -47q-70 0 -116.5 52t-46.5 131zM234 69q27 0 50 14t35 35v105q-12 21 -35 35t-50 14q-37 0 -60 -27t-23 -75t23 -74.5t60 -26.5z" />
    <glyph glyph-name="y.alt" horiz-adv-x="409" 
d="M401 341l-231 -536h-108l89 204l-143 332h108l89 -225l90 225h106z" />
    <glyph glyph-name="yacute.alt" horiz-adv-x="409" 
d="M404 341l-231 -536h-108l89 204l-143 332h108l89 -225l90 225h106zM325 506q0 -22 -26 -35l-140 -68l-18 28l102 85q31 25 47 25q14 0 24.5 -10.5t10.5 -24.5z" />
    <glyph glyph-name="ydieresis.alt" horiz-adv-x="409" 
d="M404 341l-231 -536h-108l89 204l-143 332h108l89 -225l90 225h106zM350 459q0 -22 -15 -37.5t-37 -15.5q-21 0 -36 15.5t-15 37.5q0 21 15 36t36 15q22 0 37 -15t15 -36zM169 459q0 -22 -15 -37.5t-37 -15.5t-37 15.5t-15 37.5q0 21 15 36t37 15t37 -15t15 -36z" />
    <glyph glyph-name="thorn.alt" horiz-adv-x="490" 
d="M256 69q37 0 60 26.5t23 74.5t-23 75t-60 27q-27 0 -50 -14t-35 -35v-105q12 -21 35 -35t50 -14zM171 306q40 48 117 48q70 0 116.5 -52.5t46.5 -131.5t-46.5 -131t-116.5 -52q-74 0 -117 47v-229h-112v795l112 12v-306z" />
    <glyph glyph-name="fl.alt" horiz-adv-x="519" 
d="M348 520q-38 18 -77 18q-41 0 -62 -20t-21 -68v-109h84v-72h-84v-269h-112v269h-61v72h61v95q0 89 48 133.5t130 44.5q48 0 96 -16l110 15v-613h-112v520z" />
    <glyph glyph-name="ordfeminine.alt" horiz-adv-x="454" 
d="M427 302q-20 -16 -59 -16q-63 0 -76 47q-17 -26 -48 -38.5t-62 -12.5q-63 0 -105 47t-42 119q0 71 42 118t105 47q31 0 62 -13t48 -38l22 42h74v-238q0 -30 20 -30q7 0 19 4v-38zM211 539q-34 0 -54.5 -24t-20.5 -67q0 -44 20.5 -68t54.5 -24q24 0 45 13t31 31v95
q-10 18 -31 31t-45 13z" />
    <glyph glyph-name="registered.alt" horiz-adv-x="501" 
d="M482 386q0 -96 -68 -163.5t-164 -67.5q-95 0 -163 67.5t-68 163.5t68 163.5t163 67.5q96 0 164 -67.5t68 -163.5zM452 386q0 83 -59.5 142t-142.5 59t-142 -59t-59 -142t59 -142t142 -59t142.5 59t59.5 142zM390 251h-83l-64 106h-26v-106h-71v274h122q47 0 71 -24
t24 -60q0 -57 -51 -76zM251 479h-34v-76h34q41 0 41 37q0 39 -41 39z" />
    </font>
</defs>
</svg>
